<svg xmlns="http://www.w3.org/2000/svg" viewBox="0 0 409.86 410.05"><defs><style>.cls-1{fill:#3d3a3a;}.cls-2{fill:#222020;}.cls-3{fill:#ff8500;}.cls-4{fill:#e5a055;}.cls-5{fill:#92cf85;}.cls-6{fill:#0c0c0c;}</style></defs><title>add-new (2)</title><g id="Layer_2" data-name="Layer 2"><g id="add-new"><path class="cls-1" d="M0,401.25V9.25C1.79,1.81,3.56.12,12.52.1q70.29-.15,140.6,0c1.31,0,2.67-.31,3.92.38a5.69,5.69,0,0,1,1.34,4.07c.05,1.2,0,2.4,0,3.6q0,197,0,393.94c0,2.74.63,5.67-1.59,8H8.8Q1.27,408.79,0,401.25Z"/><path class="cls-2" d="M313,113.11a4.62,4.62,0,0,1,.64,3l-.12,77.69c-3.64,2-7.53.43-11.29.81a99.64,99.64,0,0,0-43.52,8.88c-35.38,16.32-57,43.73-63.13,82.31-4.93,31.14,3.22,59.29,23.18,83.7,17.06,20.86,39.18,33.3,65.78,37.81,1.87.32,4.44-.15,5.1,2.69H156.8q0-203.57,0-407.13c0-.8,0-1.59.06-2.39L196,.57c-.08,1.6-1.38,2.17-2.48,2.88a11.29,11.29,0,0,0-5.56,10q-.08,50.39,0,100.76c0,6.32,3.12,9.81,9.26,11.21a30,30,0,0,0,6.74.68h92a29,29,0,0,0,7.13-.8c4.42-1.1,7.23-3.77,8.08-8.33C311.47,115.52,311.54,114,313,113.11Z"/><path class="cls-3" d="M301.47,193.38a61.84,61.84,0,0,1,12,.47c45,6.85,75.91,31.43,90.71,74.41S404,358.85,367.91,387a106,106,0,0,1-54.6,22.33,4.21,4.21,0,0,0-1.31.68H301.6c-2.07-1.13-2.36-3.12-2.37-5.16q-.09-27.4,0-54.8a7.81,7.81,0,0,1,.72-3.49c.75-1.43,2.18-1.89,3.55-2.36,5.81-2,8.37-6.24,8.58-12.14.14-4.13,0-8.26.06-12.39.08-6,1-7,6.92-7.1,2.66-.05,5.33,0,8,0,1.33,0,2.66,0,4,0,7.65-.29,12.86-4.65,12.93-10.81s-5.13-10.69-12.75-11c-2.79-.11-5.59-.05-8.38-.05-10.72,0-10.71,0-10.72-10.53,0-3.06.08-6.12-.07-9.18-.27-5.73-2.76-9.9-8.39-11.86-1.37-.48-2.81-.91-3.64-2.29a10.66,10.66,0,0,1-.84-5.08q0-26,0-52C299.22,197.43,299,194.9,301.47,193.38Z"/><path class="cls-4" d="M301.05,346.14q-.07,30.42-.13,60.85a14,14,0,0,0,.68,3.06h-2.4a6.24,6.24,0,0,0-4.8,0h-4.8c-5.56-2.27-11.65-2.16-17.34-4-43.26-13.83-70.19-42.65-77.76-87.56C186.15,269,212.57,222.13,258.72,202a102.73,102.73,0,0,1,42.75-8.63,13.72,13.72,0,0,0-.55,2.71q0,30.54.13,61.08a3.8,3.8,0,0,1-1.88,1.91c-5.47,1.77-8,5.66-8.59,11.29-.46,4.66-.21,9.32-.35,14-.17,5.24-1.12,6.18-6.45,6.33s-10.66-.34-15.95.75c-5.7,1.17-9.25,5.15-9.13,10.42s3.54,8.87,9.13,10c5.15,1.06,10.36.62,15.55.74,5.83.13,6.72,1,6.86,6.74.11,4.52-.1,9,.34,13.57.55,5.64,3.12,9.51,8.6,11.28A3.71,3.71,0,0,1,301.05,346.14Z"/><path class="cls-5" d="M294.4,410.05a3.71,3.71,0,0,1,4.8,0Z"/><path class="cls-6" d="M313,113.11c.19,5.38-1,10.09-6.3,12.74a18.66,18.66,0,0,1-8.52,1.7q-48.17,0-96.32,0c-10.72,0-15.63-5.19-15.53-15.65.29-32.11.21-64.21,0-96.32,0-7.45,2.53-12.56,9.73-15,5.06-.74,9,1.32,12.45,4.83q49.77,49.89,99.63,99.67C310.4,107.35,312.5,109.74,313,113.11Z"/><path class="cls-2" d="M301.05,346.14l-1.78-.73q-.18-43.76,0-87.52l1.78-.72c8.48,1.37,12.38,5.83,12.45,14.28,0,5.06.09,10.13,0,15.19-.05,2.12.71,2.78,2.77,2.74,5.47-.11,10.94-.16,16.4,0,6.76.2,11.65,4.33,12.78,10.48.91,4.94-2.12,10.51-7,12.75a16.4,16.4,0,0,1-7,1.36c-5.07,0-10.13.07-15.2,0-2.06-.05-2.82.61-2.77,2.73.12,5.06.07,10.13,0,15.2C313.43,340.31,309.53,344.76,301.05,346.14Z"/><path class="cls-2" d="M298.76,257.66c2,.55,1.61,2.2,1.63,3.61q.48,40.13.93,80.26c0,1.41.42,3.05-1.55,3.64-5.91-1.14-9.39-4.47-9.9-10.29a117.38,117.38,0,0,1-.46-16.34c.22-4.26-1.35-5.17-5.25-4.94a124.68,124.68,0,0,1-15.94-.08,11.76,11.76,0,0,1-.28-23.48,126.74,126.74,0,0,1,15.95-.46c3.89.14,5.44-.8,5.12-5.05a119,119,0,0,1,.08-16.35C289.47,262.35,292.87,258.94,298.76,257.66Z"/></g></g></svg>