<svg xmlns="http://www.w3.org/2000/svg" viewBox="0 0 214.88 205.98"><defs><style>.cls-1{fill:#566368;}.cls-2{fill:#da7800;}</style></defs><title>added-feature</title><g id="Layer_2" data-name="Layer 2"><g id="added-feature"><path class="cls-1" d="M131.18,81.11c-1.69-2.69-.57-5.65-.72-8.47-.22-4.14-.12-8.31,0-12.46s1.76-5.37,5.83-4.79c5.13.72,10.15.85,14.5-2.76A15.24,15.24,0,0,0,155,34.13c-3-6.3-10.09-9.64-17.56-8.26-5.6,1-7-.09-7-5.78q0-10-.05-20.09H207.6c1.11,1.4,3.23,1.48,4.13,3.14-1.72,3.79-5.09,6.13-8,8.78-2.28,2.06-4.6,4.07-6.77,6.25-16.36,16.36-33.43,32-50,48.12C141.8,71.31,136.78,76.54,131.18,81.11Z"/><path class="cls-2" d="M84.5,124.69q10.65,0,21.3.06c5.75,0,6.9,1.41,5.88,7-1.48,8.25,3.46,16.16,11.15,17.84,9,2,17.11-2.8,19.22-11.41a15.26,15.26,0,0,0-.16-7.14c-1-4.28.32-6.13,4.74-6.25,7-.2,13.94,0,20.9-.1,1.89,0,2.18.85,2.18,2.44,0,22.91.06,45.83-.1,68.74,0,6.11-4.23,10-10.76,10-24.78.09-49.57,0-74.35-.06-1.38-1.39-1.22-3.18-1.24-4.91-.06-5.07.11-10.16-.08-15.23-.14-4-1.26-5-5.23-4.55a21.59,21.59,0,0,1-9.87-.93c-7.47-2.62-11.2-8.56-10.5-16.88A15.2,15.2,0,0,1,70.93,149.5a29.37,29.37,0,0,1,6-.15c5.43.27,6.2-.49,6.31-6.06s-.26-11.22.23-16.83a3.76,3.76,0,0,1,.51-1.3Z"/><path class="cls-2" d="M.09,124.75C.05,101,0,77.28,0,53.55c0-6.19,4.62-10,11.63-10q29.16-.06,58.33,0c3.49,0,7,.18,10.46-.05,3-.2,4.3.63,4.13,4-.28,5.49-.09,11-.07,16.49s1.9,6.86,7.3,5.72c7.52-1.58,15.53,2.19,18.26,8.91,2.11,5.18,1.87,10.54-1.88,14.77-4,4.53-9.27,7.36-15.67,6.1-6.2-1.22-8,.06-8,6.39s0,12.61,0,18.91l0,.11A6.09,6.09,0,0,1,80.39,126c-5.62,0-11.23.12-16.84,0s-7.37-2.21-7-7.75c.21-3.6.61-7.22-1.47-10.52a15,15,0,0,0-16.87-6,14.57,14.57,0,0,0-10.3,14.49c.06,1.21.29,2.39.33,3.6.1,3.11-1.43,5.49-4.38,5.83a110.85,110.85,0,0,1-22.38,0A2.58,2.58,0,0,1,.09,124.75Z"/><path class="cls-2" d="M.09,124.75c7.23,0,14.47,0,21.7,0,4.53,0,5.85-1.75,5-6.23C25.31,111.1,28.88,104.32,36,101c6-2.84,14.29-1,18.74,3.94,3.57,4,3.69,8.73,3.07,13.6s.42,6.24,5.43,6.27c7.1,0,14.2,0,21.3,0a4.71,4.71,0,0,1-.22.73c-.64,2-2.13,3.37-3.56,4.79-16.06,16-32.61,31.42-49,47.06C23.86,185,16.54,193.22,7.85,200c-1.47,1.15-2.74,2.59-4.73,2.9A8.83,8.83,0,0,1,0,195.82Q0,160.29.09,124.75Z"/><path class="cls-1" d="M131.18,81.11c3.2-5.37,8.23-9,12.55-13.32,1-1,2.3-1.82,3.35-2.84,11.12-10.82,22.15-21.75,33.36-32.49,10.33-9.88,20.85-19.55,31.29-29.32,2.41,1.74,3.08,4.24,3.08,7,0,22.63-.05,45.27.07,67.9,0,2.81-1,3.29-3.49,3.23-6-.15-12-.08-18.08,0-4.89,0-6.06,1.59-5.27,6.34,1.7,10.34-3,16.42-12.57,18.47s-17.93-4.19-19.11-13.58a15.19,15.19,0,0,1,.54-4.75c.91-4.88-.34-6.44-5.23-6.49Z"/><path class="cls-2" d="M3.12,202.91c15-13.5,29.31-27.69,43.82-41.68,3.26-3.13,6.64-6.18,9.91-9.32q13.77-13.17,27.47-26.38c.05,6.83.17,13.66.13,20.48,0,3.93-2,5.42-6,4.69-8.53-1.57-15.85,1.52-18.64,8.19-2.33,5.57-2,11.08,2,15.87s9.56,6.18,15.58,5.21c5.61-.9,7,.11,7,5.81,0,6.69,0,13.39,0,20.09q-37.38.06-74.75.11A7.63,7.63,0,0,1,3.12,202.91Z"/></g></g></svg>