<svg xmlns="http://www.w3.org/2000/svg" viewBox="0 0 479 479"><defs><style>.cls-1{fill:#f7931c;}.cls-2{fill:#fee97c;}.cls-3{fill:#e8ae7e;}.cls-4{fill:#fed05e;}.cls-5{fill:#f2a34e;}.cls-6{fill:#ff8500;}</style></defs><title>Balance</title><g id="Layer_2" data-name="Layer 2"><g id="Balance"><circle class="cls-1" cx="239.5" cy="239.5" r="239.5"/><path class="cls-2" d="M170.16,110.26c15.81.46,31.63,1.74,47.39-.75,3.1,1.33,4.32,4,4.48,7.06.73,14.41,1.06,28.82-.28,43.22a8.79,8.79,0,0,1-2,4.4c-4.36,4.68-10.18,4.05-15.77,4.14-8,.14-15.92.2-23.88,0-7.48-.19-8.36,2.61-5.44,9C183.16,196.05,191,215,199,233.94c1.91,4.52,4.65,9.1.45,13.89-7.35,3.5-14.59,3.92-21.66-.72-9-10.25-12.29-23.41-17.43-35.54-5.52-13-12-25.7-15.41-37.68-1.71,11-8.17,22-13.28,33.39-6.07,13.52-9.23,28.57-19.69,40-7,4.15-13.84,4.82-20.16-1.37,4.41-15,11.86-28.71,17.81-43,4.31-10.41,8.22-21.08,13.54-31,10.7-19.87,14.6-40.68,13.15-63.14-1.11-17.14-.22-17.2,17.84-14.67C156.33,102.61,162.38,107.29,170.16,110.26Z"/><path class="cls-3" d="M272.15,164.29c-1.63,2.73-1.41,5.75-1.41,8.74q0,72.87,0,145.74c0,3-.23,6,1.48,8.71-8.57,8.37-18.23,5.07-27.81,2.62a8,8,0,0,1-2.75-2.87c-2.55-5-2.17-10.34-2.18-15.62q-.12-109.1,0-218.17c0-6.15-1.2-12.83,4.5-17.63,9-.73,17.93-1.08,26.88.23,2.35,6.22,4,12.53,3.72,19.3-.33,7.1,3.4,10.35,10.33,10.06a38,38,0,0,1,20,4.69l28.9,0a2.56,2.56,0,0,1-.35,3.24c-3.47,3.43-8,3-12.25,3-11.32.24-22.66-.08-34,.17-10.92.23-12.21,1.89-12.79,13.06C273.89,141.2,276.46,153,272.15,164.29Z"/><path class="cls-4" d="M244,75.81q-.12,126-.25,251.93c-8.81,7.36-21.39,6.37-26.27-2.06q-.13-74.87-.28-149.73c0-3.93.8-8-1.41-11.71,4.23-7.75,1.7-16.12,2-24.18.38-10.17-.14-20.37-.27-30.55-.09-8.87,0-17.74-.33-26.6-.19-5.23,1.29-8.08,7.14-7.68C230.89,75.66,237.46,75.64,244,75.81Z"/><path class="cls-4" d="M333.77,112.23l.09-2.11c0-.66.05-1.32.06-2,.11-16.91.25-17,18.14-13.9-.06,14,0,28-.24,42-.07,4.5,1.28,8.45,3,12.45Q374,192.55,393,236.51c1.29,3,3.4,5.79,3.06,9.35-6.2,6.19-13,5.37-19.95,1.61-7.64-7.44-10.13-17.66-14.24-27C355.39,205.73,349,190.94,342.8,176c-9,19.76-16.47,40-25.39,59.57-1.67,3.66-3.42,7.18-6.49,9.9-9.05,7-15.79,6.61-21-1.24l33.61-79.53c-2.42-4.22-1.3-8.53.65-12.27,4.72-9,5.89-18.62,5.52-28.6C329.52,119.46,329.88,115.18,333.77,112.23Z"/><path class="cls-5" d="M198.53,245.88c3.25,26.31-12,44-38.42,44.14-16.22.09-32.49.85-48.62-1.8-13.88-10.71-23.08-23.59-19.63-42.33,6.45-.46,13.13,1.5,19.32-1.8,8.22-3.58,16.94-2.82,25.5-2.53,14.15.47,28.51-2.18,42.43,2.48C185.3,247.58,192.05,245.34,198.53,245.88Z"/><path class="cls-3" d="M217.5,325.68c8.48,4.23,17.51,1.41,26.27,2.07l.23.25c7.46,11.44,5.73,23.12.93,34.88-4.12,3.57-9.19,3.54-14.18,3.58-25.65.18-51.29.23-76.94,0-4.82-.05-10.24.87-13.57-4.29q7-14.89,14-29.8c2.35-4.35,6.11-5.21,10.81-5.13,13.92.24,27.85.11,41.78.06C210.46,327.24,214.2,327.87,217.5,325.68Z"/><path class="cls-4" d="M140.24,362.12l103.61,0q.79.51,1.62,1c4.2,6.09,3.57,11.8-1.38,17.15q-55.14.24-110.27.49c-4.64,0-9.27.17-13.91.27-2.78-3.06-1.28-6.83-1.74-10.27-.78-5.79,1.34-8.41,7.5-8.06C130.5,363,135.38,362.35,140.24,362.12Z"/><path class="cls-3" d="M289.9,244.18c6.78,2.15,13.53,3.94,19.54-1.89,17.56-1.42,35.15-.55,52.73-.8a37.91,37.91,0,0,1,14.58,2.59c6.2,3.19,12.86,1.33,19.31,1.78,2.8,27.47-11.88,44-39.24,44.19-10.31.06-20.61.17-30.91,0C300.61,289.51,284.74,269.21,289.9,244.18Z"/><path class="cls-6" d="M243.85,362.15,244,328l28.23-.51c17.24-.08,34.48,0,51.72-.33,5.14-.11,7.78,2,9.83,6.39,4.45,9.61,9.29,19,14,28.55-2.7,4.5-7.29,4.21-11.52,4.27q-40.33.5-80.67,0c-4.42,0-8.63-.62-11.71-4.31Z"/><path class="cls-6" d="M333.77,112.23c1.78,18.49-.08,36.27-10.26,52.42l-51.36-.36c-4.33-15.7-1.52-31.69-1.62-47.54,0-5.74,5.45-4.78,9.27-4.77C297.79,112,315.78,112.13,333.77,112.23Z"/><path class="cls-3" d="M243.86,362.1H347.75c4,.23,7.93.76,11.88.64,6.17-.19,10.47-.05,10.53,8.6s-3.66,9.56-10.68,9.5c-38.46-.37-76.93-.4-115.39-.55Q244,371.2,243.86,362.1Z"/></g></g></svg>