<svg xmlns="http://www.w3.org/2000/svg" viewBox="0 0 106.12 196.99"><defs><style>.cls-1{fill:#566368;}.cls-2{fill:#fe6d3a;}.cls-3{fill:#da7800;}.cls-4{fill:#222020;}</style></defs><title>battery</title><g id="Layer_2" data-name="Layer 2"><g id="battery"><path class="cls-1" d="M29.3,19.11c0-4.07.18-8.15,0-12.21A8.59,8.59,0,0,1,31.64,0H56.26c3.9.7,5.25,3.35,5,6.94-.34,4.24,1.23,8.68-1.27,12.7a8.15,8.15,0,0,1-4.42.83c-7.1,0-14.19,0-21.29,0C32.51,20.44,30.65,20.66,29.3,19.11Z"/><path class="cls-1" d="M60.09,19.11c0-3.79-.2-7.59.08-11.35.25-3.51-.71-6.12-3.91-7.76H73.19a8.59,8.59,0,0,1,2.39,6.89c-.19,4.06,0,8.14,0,12.22A19.19,19.19,0,0,1,60.09,19.11Z"/><path class="cls-2" d="M83.22,196.87c-24.71,0-49.43.14-74.14.08-5.69,0-9-4-9.06-10.15q0-35.55,0-71.09Q0,89.79.13,63.85c1.35-1.25,3.06-1.21,4.72-1.21q40-.06,80,0a7.24,7.24,0,0,1,4.43,1c1.39,1.45,1.28,3.31,1.28,5.08q0,58.06,0,116.14C90.59,190.33,88.37,196.13,83.22,196.87Z"/><path class="cls-3" d="M89.39,64,.13,63.85C.1,51.7-.06,39.56.1,27.41.16,22.59,4,19.31,9,19.25c6.78-.09,13.56-.1,20.34-.14H75.56l8.43.26a9.49,9.49,0,0,1,6.25,8.91c.55,11.22.37,22.47.09,33.71a3.47,3.47,0,0,1-.46,1.45Z"/><path class="cls-2" d="M83.22,196.87c4.53-2.88,6.2-7,6.19-12.32q-.14-60.28,0-120.58l-.09-.22a24.61,24.61,0,0,1,16.27.1q0,37.86.1,75.71,0,23.26,0,46.51c0,7.83-3.17,10.93-10.91,10.92C90.91,197,87.07,196.91,83.22,196.87Z"/><path class="cls-3" d="M105.57,63.85l-16.27-.1c0-11.27,0-22.53.08-33.8.05-4.56-2.58-7.57-5.39-10.58,4.34-.05,8.68-.14,13-.12a8.21,8.21,0,0,1,8.5,7.58c1.13,9.54.28,19.13.45,28.69C106,58.29,106.46,61.11,105.57,63.85Z"/><path class="cls-4" d="M55.75,137.24c-7.06,0-14.06-.07-21.06,0-3.53,0-6.68-.43-8.4-4s.05-6.33,2.32-9C38,113.29,47.94,102.82,57,91.58a67.94,67.94,0,0,1,6.1-6.26A6.74,6.74,0,0,1,72.51,85a6.56,6.56,0,0,1,1.08,9c-5,6.14-9.76,12.43-15.5,17.95-3.35,3.24-6.12,7.09-9.74,11.35,8,0,15.09.07,22.2,0a9.92,9.92,0,0,1,8.09,3.59,4.9,4.9,0,0,1,.13,6.9c-5.85,6.94-11.54,14-17.81,20.58s-11.86,13.7-17.91,20.44a7.72,7.72,0,0,1-10.69,1c-3-2.63-3.29-6.88-.28-10.26,7.32-8.19,14.74-16.29,21.65-24.83C54.49,139.74,55.73,139.07,55.75,137.24Z"/><path class="cls-4" d="M52.31,51.79c-2.27-.35-3.05-1.9-2.82-3.87.38-3.23-.51-4.81-4.09-4.27-2.1.32-4.07-.52-4.07-2.93s2-3.16,4.08-2.89c3.05.38,4.54-.49,4.08-3.86-.3-2.22.37-4.4,3-4.33,2.4.06,3.14,2.13,2.79,4.2-.63,3.77,1.31,4.29,4.35,4,2.16-.23,4.52.1,4.57,2.78.06,2.94-2.42,3.35-4.7,3.06-3.32-.42-4.71.66-4.22,4.14C55.62,49.91,54.78,51.58,52.31,51.79Z"/></g></g></svg>