<svg xmlns="http://www.w3.org/2000/svg" viewBox="0 0 126.74 183.68"><defs><style>.cls-1{fill:#da7800;}.cls-2{fill:#222020;}.cls-3{fill:#fe6d3a;}</style></defs><title>bluetooth</title><g id="Layer_2" data-name="Layer 2"><g id="bluetooth"><path class="cls-1" d="M.12,97.48C.07,69,0,40.58,0,12.13.06,5.38,6.42.4,14.93.07c4.33-.18,8.68,0,13,.08C30.31,2.87,29.22,6,29.3,9c.2,7.47,1.64,8.83,10.32,8.85q24,0,47.93,0c8.08,0,9.62-1.5,9.85-8.45C97.51,6.27,96.34,3,98.76.15c4.19,0,8.39-.21,12.57-.1,8.53.23,15.39,6.25,15.39,13.47q0,78.2,0,156.38c0,7.89-5.53,12.87-15,13.66a116.74,116.74,0,0,1-38.21-6.68c-1.53-.55-4.37-.42-3.22-3.1,4.5-1.45,9.18-.56,13.78-.74,4.32-.17,8.66.15,13-.18,1.35-.1,3.07-.26,3-1.83s-1.73-1.64-3.09-1.82a49.1,49.1,0,0,0-5.56-.14c-12.06-.16-24.13.34-36.18-.27a94.15,94.15,0,0,1-24-15.27C16.79,141.24,6.76,126.84,1.72,110,.5,105.86.75,101.64.12,97.48Z"/><path class="cls-1" d="M.12,97.48c1.62,8.23,2.87,16.65,7.25,24.14,5.42,9.27,10.1,19.06,19.58,26.21a39.37,39.37,0,0,1,3.87,3.88c6.56,6.56,15.26,10.87,23.15,16-1.67,1.62-4,1.27-6.08,1.31-6,.1-12.11-.1-18.16.11-1.59.06-4-.1-3.92,1.89s2.39,1.82,4,1.85c11.18.2,22.36,0,33.54.12,2.26,0,4.72-.41,6.55,1.3a133.32,133.32,0,0,0,30.6,7.79c3.73.54,7.48,1,11.22,1.44-32.41.05-64.82.17-97.22.09C6.38,183.63,0,178.26,0,171.77,0,147,.07,122.25.12,97.48Z"/><path class="cls-2" d="M98.76.15c0,3.82,0,7.64,0,11.46C98.7,16.58,96,19,90.34,19q-27,.08-54,0c-5.7,0-8.36-2.42-8.42-7.39,0-3.82,0-7.64,0-11.46Z"/><path class="cls-2" d="M106.23,91.73c0,7.38.06,14.77,0,22.16-.16,14.8-12.74,24.83-29.78,25.35-10.8.33-21.69.87-32.51-.62S19.37,126.87,19.51,115c.17-14.24.76-28.53-.17-42.73S31.61,46,45.89,44.85c12.15-1,24.56-1.65,36.61.39,15.2,2.57,23.71,12.28,23.73,25.51Z"/><path class="cls-2" d="M69.89,174.33l-38.12-.12H28.05c-2.63,0-4.76-.76-4.66-3.31.09-2.29,2.12-3,4.55-3,6.05,0,12.09,0,18.14,0,2.63,0,5.26-.08,7.89-.12l40.5.13c.93,0,1.86,0,2.79,0,2.81-.09,5.21.56,5.1,3.33-.1,2.5-2.4,3-5,3C88.2,174.22,79,174.29,69.89,174.33Z"/><path class="cls-3" d="M59.62,113.44c0-4,0-7.92,0-11.88,0-.82.63-2-.76-2.4-1-.29-1.62.58-2.31,1.07-3.84,2.68-7.65,5.39-11.49,8.07a15.36,15.36,0,0,1-3.86,2.09c-2.26.77-4,.51-5.23-1.2s-.42-3.08,1.19-4.16c4.95-3.35,10-6.61,14.94-10,4.6-3.13,4.6-3.22-.17-6.48-4.57-3.12-9.24-6.14-13.87-9.2-2.13-1.41-3.85-3-1.71-5.28s4.7-1.21,6.62,0c4.48,2.83,8.65,6,13,9,.9.61,1.66,2,3,1.41s.62-1.9.63-2.87q.09-11.48,0-23c0-1.94.08-3.81,2.59-4.61,2.33-.74,3.72.71,5.19,1.9,6.81,5.54,13.68,11,20.44,16.62,3.67,3,3.62,4.18-.38,7-4.77,3.33-9.24,7-14.55,9.77-3.93,2.07-3.9,3,.13,5.14,5.32,2.78,9.66,6.56,14.58,9.74,3.35,2.17,3.65,4.26.47,6.79-7.22,5.75-14.34,11.59-21.48,17.41-1.31,1.07-2.69,1.88-4.55,1.18s-2.47-2.16-2.44-3.89C59.67,121.62,59.63,117.53,59.62,113.44Z"/><path class="cls-2" d="M67.38,65.14c4.22,3.23,8,6.22,12,9.1,1.61,1.19,1.39,1.9-.14,3-3.62,2.63-8,4.35-11.81,7.9Z"/><path class="cls-2" d="M67.16,118.77V98.93c4.34,2.76,8.29,5.32,12.32,7.8,1.71,1.06,1.08,1.8-.13,2.71C75.47,112.37,71.63,115.34,67.16,118.77Z"/></g></g></svg>