<svg xmlns="http://www.w3.org/2000/svg" viewBox="0 0 185 174"><defs><style>.cls-1{fill:#da7800;}.cls-2{fill:#fe6d3a;}.cls-3{fill:#665d5d;}.cls-4{fill:#566368;}.cls-5{fill:#222020;}</style></defs><title>camera</title><g id="Layer_2" data-name="Layer 2"><g id="camera"><ellipse class="cls-1" cx="92.5" cy="87" rx="92.5" ry="87"/><path class="cls-2" d="M93.58,152.4c-18.15.17-34.61-6-48.07-19.32-18.38-18.18-26-40.5-16.7-69.25C34.89,45,48.28,32.48,64.74,25.07c20.39-9.18,41-8.86,61,1.82,15.3,8.19,27,20.4,32.95,39,3,9.34,4.6,18.55,3,28.13-3.32,19.37-12.72,34.53-27.39,45.24A67.09,67.09,0,0,1,93.58,152.4Z"/><path class="cls-3" d="M35.18,83.13C35.5,56.41,59,33.53,81.76,29.9c3.26-.52,6.54-.86,9.8-1.28,2,1.67,2.18,4.08,2.52,6.58,1,7.58,2.84,14.89,6.9,21.27,1.12,1.76,1.72,3.64.82,5.77-1.74,2.23-4,1.39-6.19,1.37-6.39-.06-12.37,1.37-17.52,5.9a20.83,20.83,0,0,0-7.35,15.81c-.06,2.64,0,5.43-2.23,7.28-2.14,1.4-4.38,1-6.35-.13-7-4-14.52-5.68-22.21-6.66A6.64,6.64,0,0,1,35.18,83.13Z"/><path class="cls-4" d="M152.16,89.08c-2.59,13.6-6.26,26.78-16.2,36-8.51,7.92-18.21,13.79-29.3,16-3.21.64-6.43,1.89-9.8,1.24-2.5-1.21-3.08-3.59-3.45-6.37-.89-6.66-2.3-13.14-6.06-18.69a7.11,7.11,0,0,1-.85-7.4c1.69-2.46,4.18-2.17,6.53-2.32,14.27-.89,21.76-8.42,23.77-24,.24-1.88.55-3.63,2-4.87,4.12-2.19,7.39,1.27,10.91,2.36,5.46,1.71,10.81,3.83,16.5,4.23C148.85,85.48,150.59,87,152.16,89.08Z"/><path class="cls-5" d="M87.07,110.32c.21,4.29,3.71,6.42,5.19,10,3,7,3.21,14.69,4.6,22.07-16.22,1.06-31-3.79-43.43-15.35-12-11.19-19.27-25.55-18.25-43.86A51.31,51.31,0,0,1,63.12,89.8a36.42,36.42,0,0,0,5.16,1.94C74.18,98.4,81.5,103.25,87.07,110.32Z"/><path class="cls-5" d="M152.16,89.08c-11.51-1.07-22.62-3.88-33-9.74-.37,0-.85.18-1.07,0-5.59-5.7-11.58-10.93-16.54-17.38-7.37-9.57-10.56-20.73-10-33.29,20.84-.23,38.1,8.24,51.35,26.46a18.57,18.57,0,0,1,2.45,4.08C149,68.73,152.76,78.29,152.16,89.08Z"/><path class="cls-5" d="M101.55,61.91c8.42,2.58,13.27,9.68,17.61,17.43,0,20.54-9.32,31-27.68,31l-4.41,0c-8.33-3.57-15.5-8.62-18.79-18.58C68.37,68.62,81.21,57.1,101.55,61.91Z"/></g></g></svg>