<svg xmlns="http://www.w3.org/2000/svg" viewBox="0 0 487 487"><defs><style>.cls-1{fill:#7ad1a9;}.cls-2{fill:#d88223;}.cls-3{fill:#dba161;}</style></defs><title>checked (2)</title><g id="Layer_2" data-name="Layer 2"><g id="checked"><path class="cls-1" d="M244.66,40.17c-1.06,1.3-2.11,1.48-3.17,0Z"/><path class="cls-1" d="M266.86,40.17c-1.06,1.48-2.12,1.3-3.18,0Z"/><path class="cls-1" d="M51.24,230.42c1.52,1.05,1.23,2.11,0,3.17Z"/><path class="cls-1" d="M51.24,252.61c1.23,1.06,1.52,2.12,0,3.17Z"/><circle class="cls-2" cx="243.5" cy="243.5" r="243.5"/><path class="cls-3" d="M388.64,176.9c1.41,10.26-2.47,18.17-9.75,25.41Q311.8,269,245.18,336.26c-8.33,8.41-17.3,12.62-29,9.85a55.85,55.85,0,0,1-13.6-10.65q-36.43-36.9-73-73.63C116,248.24,116,235.53,129.26,222c4.82-4.88,9.56-9.85,14.57-14.53,11.09-10.36,24.38-10.34,35.27.34,13.37,13.12,26.66,26.35,39.5,40,4.45,4.73,6.8,4,11-.18q48.27-48.58,97-96.74c14.18-14.11,26.9-14.25,40.82,0C375.17,159,384.85,165.55,388.64,176.9Z"/></g></g></svg>