<svg xmlns="http://www.w3.org/2000/svg" viewBox="0 0 376 193"><defs><style>.cls-1{fill:#282626;}.cls-2{fill:#808082;}.cls-3{fill:#fbfcfb;}.cls-4{fill:#79797a;}.cls-5{fill:#c32427;}.cls-6{fill:#cf2227;}.cls-7{fill:#777677;}.cls-8{fill:#781b1b;}.cls-9{fill:#b02325;}.cls-10{fill:#bd2427;}.cls-11{fill:#922;}.cls-12{fill:#757575;}.cls-13{fill:#717373;}.cls-14{fill:#727373;}.cls-15{fill:#747474;}.cls-16{fill:#737373;}.cls-17{fill:#a52b2e;}.cls-18{fill:#747575;}.cls-19{fill:#727473;}.cls-20{fill:#727372;}.cls-21{fill:#717372;}.cls-22{fill:#582020;}.cls-23{fill:#737474;}.cls-24{fill:#797979;}.cls-25{fill:#747574;}.cls-26{fill:#7e252a;}.cls-27{fill:#512125;}.cls-28{fill:#767777;}.cls-29{fill:#727272;}.cls-30{fill:#777;}.cls-31{fill:#757676;}.cls-32{fill:#797b7a;}.cls-33{fill:#707070;}.cls-34{fill:#8b8a8a;}.cls-35{fill:#7e7e7e;}.cls-36{fill:#868787;}.cls-37{fill:#959596;}.cls-38{fill:#aba9aa;}.cls-39{fill:#b8b5b6;}.cls-40{fill:#282622;}.cls-41{fill:#de2027;}.cls-42{fill:#975a5c;}.cls-43{fill:#c32026;}.cls-44{fill:#b21f25;}.cls-45{fill:#992025;}</style></defs><title>cherry</title><g id="Layer_2" data-name="Layer 2"><g id="cherry"><rect class="cls-1" width="376" height="193"/><path class="cls-2" d="M145.19,71.15c-.56-2.67-1.27-5.34-.45-8.05.9-1.39.72-3.18,2.57-4.2,1.87,1.89,5.32,1.86,7.29,3.69.51.48,1.22,0,1.62-.42a15,15,0,0,0,1.5-2.1,27.83,27.83,0,0,1,19.93-13,45.68,45.68,0,0,1,5.73-.66,3.59,3.59,0,0,1,2.42.48c-.17,1-1.27.67-2,.76-2,.27-2.57.8-1.93,2.29.35.82-.06,1.28-.72,1.78-1.1.83-1.21,1.64.11,2.44.68.42,1.41.87,1,1.7-15.7,3.24-20.46,19.12-11.37,29.45a22.86,22.86,0,0,0,8.74,6.32c0,1.7-1.75,2.83-4.1,2.33a23.89,23.89,0,0,1-9.3-4,33.34,33.34,0,0,1-10.53-12.49,6.52,6.52,0,0,0-4.8-3.9,7.42,7.42,0,0,1-3.5-2A1.72,1.72,0,0,0,145.19,71.15Z"/><path class="cls-3" d="M241,131.34c-2.3,0-4.32,0-6.34,0-.86,0-1.08-.41-1.4-.88-1.41-2.06-2.86-4.1-4.29-6.15-.71-1-3.65-1.74-4.89-1.2-.6.26-.38.7-.38,1.07,0,2-.07,4,0,6,0,.92-.37,1.13-1.5,1.15-4.69.09-4.69.12-4.69-3.62,0-6,0-12,0-18.08,0-1.06.24-1.53,1.77-1.46,4.9.23,9.84-.39,14.71.35,3.7.57,6.42,3,6.89,5.94a6.77,6.77,0,0,1-4.66,7.51c-1.39.52-1.63.91-.71,1.92a42.64,42.64,0,0,1,2.77,3.68C239.11,128.78,240,130,241,131.34Z"/><path class="cls-3" d="M204.25,108.52c5,.32,8.54,4.51,7.3,8.69A6.92,6.92,0,0,1,206.8,122c-1.27.42-1.15.79-.5,1.59,1.93,2.39,3.72,4.85,5.77,7.55-2.32,0-4.39,0-6.45.1-.89,0-1-.48-1.36-.92-1.47-2.08-3-4.16-4.45-6.23-.61-.84-3.85-1.45-4.83-.92-.53.28-.32.73-.31,1.11,0,2,0,3.9.09,5.84,0,.92-.22,1.37-1.54,1.3s-2.78,0-4.17,0a1.07,1.07,0,0,1-.23-.82q-.15-10.32-.29-20.65c0-.69-.2-1.4,1.22-1.39C194.58,108.62,199.42,108.29,204.25,108.52Z"/><path class="cls-3" d="M168.15,118.58a7.25,7.25,0,0,1,4.52-1.24c2.5,0,5,.06,7.49,0,1.44,0,2.08.2,2,1.49-.08,2.93,0,2.93-3.67,2.93-2.93,0-5.87,0-8.8,0-1.28,0-1.58.31-1.61,1.27-.11,4.07-.16,4.07,5.07,4.07,2.49,0,5,0,7.48,0,1.39,0,1.93.21,1.92,1.4,0,2.93.06,2.93-3.64,2.93-5.07,0-10.13,0-15.19,0-1.46,0-1.83-.31-1.82-1.43q.1-10.16,0-20.31c0-1.13.38-1.44,1.82-1.42,5.57.06,11.15.07,16.73,0,1.58,0,2.18.22,2.12,1.58-.11,2.85,0,2.85-3.55,2.86-3.16,0-6.32,0-9.47,0-1.17,0-1.52.28-1.47,1.18C168.21,115.29,168.15,116.79,168.15,118.58Z"/><path class="cls-3" d="M154.5,131.29c-5.69.24-5.69.24-5.69-4.14,0-1.44-.05-2.87,0-4.3,0-.84-.17-1.24-1.41-1.23-3.67.06-7.34,0-11,0-1.12,0-1.33.34-1.32,1.11.05,2.47,0,4.93.05,7.4,0,1-.4,1.21-1.61,1.22-4.58,0-4.58.08-4.57-3.54,0-6,0-11.92,0-17.89,0-1.27.28-1.78,2.11-1.73,4.08.1,4.08,0,4.08,3.23q0,3.27,0,6.54a1.55,1.55,0,0,0,.08.37c.77-.11,1.11-.86,2-.8,3.36-.31,6.73-.11,10.1-.11,1.34,0,1.8-.3,1.74-1.37-.1-1.83,0-3.67,0-5.5s.44-2.09,2.71-2.12h2c.76,0,1,.27,1,.84-.07,7.28.16,14.56-.12,21.84C154.59,131.18,154.53,131.23,154.5,131.29Z"/><path class="cls-3" d="M96.66,120.84c0-6,2.66-9.82,8.44-11.81,5.61-1.94,11.23-1.91,16.18,1.52,1.15.8,3,1.92,2.54,2.75-.57,1.13-2.83,1.38-4.36,2-.6.25-.78-.08-1-.34-3.31-3.48-7.19-3.2-10.24-2.16a7.39,7.39,0,0,0-5.18,7.52c.45,4.81,5.17,7.8,10.84,6.87a6.61,6.61,0,0,0,4.22-2.25c.71-.89,1.37-.74,2.27-.42l.19.09c4.07,1.61,4.15,2.2.46,4.62-5,3.26-10.52,3.25-16,1.26C99.24,128.45,96.64,124.66,96.66,120.84Z"/><path class="cls-4" d="M145.19,71.15c.1-1.21.85-1.55,1.83-.57a12.52,12.52,0,0,0,5.81,3.14,4.86,4.86,0,0,1,3.08,3A33.32,33.32,0,0,0,166.8,89.79a23.26,23.26,0,0,0,8.49,3.7c2.23.53,3.36,0,4.36-1.82,7.3,2.92,14.87,2.83,22.59,1.14a41.38,41.38,0,0,1-15.07,3.69c-17.29,1.17-33.41-6.71-39.85-19.27A20,20,0,0,1,145.19,71.15Z"/><path class="cls-5" d="M187.55,86.23a11,11,0,0,1-5.32-2.07c-.2-1-1.62-1.23-2.08-2.1-.26-.51-.65-1,0-1.39a1.28,1.28,0,0,1,1.7.27c.84.9,1.56.58,2.28-.07a12.73,12.73,0,0,1,2.35-1.78c1-.53.82-1.17-.06-1.68A15.27,15.27,0,0,1,183.32,75c-1.1-1.08-1.62-2.29-.65-3.63,1-.1,1.22.5,1.43,1,1.28,3.31,5.64,4,8.91,3.43a15,15,0,0,0,3.27-1c3.56-1.46,7.08-3,9.73-5.44a11.72,11.72,0,0,0,3.45-5.5,11.69,11.69,0,0,0,.95-3.49,1.67,1.67,0,0,1,1.28-1.81c1,.58.52,1.46.73,2.2a7.64,7.64,0,0,1,5.87-1c1.3.51,2.05,1.23,2,2.43s0,2.51,0,3.77a8.34,8.34,0,0,1-.17,2.17c-.42,1.29-.86,2.58-1.26,3.88A32.48,32.48,0,0,1,217,75.6c-.5.51-.58,1.37-1.76,1.33-.8-.9-.34-1.74.19-2.58a10.47,10.47,0,0,0,1.79-4.83,5.44,5.44,0,0,1-3,1.4,10.2,10.2,0,0,0-5.13,2.5A7.35,7.35,0,0,1,206,75c-2.38.78-4.16,2.49-7.1,2.46-1,0-1.83,1.1-2.3,1.94a5,5,0,0,1-3.24,2.42c-2.21.61-3.83,1.63-4.64,3.39C188.49,85.64,187.94,85.89,187.55,86.23Z"/><path class="cls-3" d="M256.91,117.42c2.19-2.78,4.33-5.36,6.26-8a2.75,2.75,0,0,1,2.75-1.17c1.58.08,3.17,0,5.18,0-2.29,2.83-4.1,5.58-6.52,8-3.94,3.85-5.41,8.07-4.71,12.9.11.7.65,1.94-.46,2.14a21.36,21.36,0,0,1-5.24,0c-.52,0-.33-.69-.33-1.07,0-2.06-.11-4.13,0-6.19a5.2,5.2,0,0,0-1.46-3.83c-3-3.57-5.92-7.2-8.86-10.81-.22-.28-.4-.58-.75-1.09,2.22,0,4.23,0,6.24,0,1,0,1.17.57,1.53,1Z"/><path class="cls-6" d="M187.55,86.23a7.16,7.16,0,0,1,5.8-4.87c2.46-.43,2.43-2.54,4-3.62.92-.64,1.57-1.35,3-.86a1.22,1.22,0,0,0,.85,0c2.25-1.85,5.88-2,7.93-4.12a9.33,9.33,0,0,1,5.08-2.26c1.57-.28,2.54-.67,2.67-2,1.54.62,1.48,1.72,1,2.45-.83,1.3-.87,2.85-2.13,4-.64.58-.27,1.32-.36,2,.29,1-.42,1.58-1.44,2a26.94,26.94,0,0,1-14.74,7.49c-.56.1-1.15.11-1.73.16a14.24,14.24,0,0,1-5.29-.09c-1.06-.28-1.94.49-2.91.09Z"/><path class="cls-7" d="M182.28,55.9A3.64,3.64,0,0,0,181,54.53c-2-1.1-2-1.87-.14-3.2.65-.46.87-.67.33-1.35-1-1.21.1-2.6,2-2.7.87-.05,1.76,0,2.64,0A2.79,2.79,0,0,1,187.9,47a51.64,51.64,0,0,1,9.49,2.13,1.17,1.17,0,0,1,.77.82c-.06,1.18.9,2,1.65,2.93,2.06,4,1.3,6.65-2.77,9.64-1,.29-1.89,1.22-3.21.59,1.7-2.94.12-5.67-4-6.84-.74-.21-1.53-.31-2.3-.47a16.14,16.14,0,0,0-4.39,0Z"/><path class="cls-6" d="M193.83,63.13c1.17.21,1.8-1,3-.71.61,1.12-.55,1.34-1.32,1.73.63.07,2,.2,1.42.85-1.17,1.42.85,2.61,0,4s-.37,2.68-1,4.44c4.64-2.34,9.5-3.72,12-7.54.45-.7.6-1.74,2.1-1.7C209,68,205.8,70.74,202,72.82a35.11,35.11,0,0,1-8,3.28c-3,.77-7.67.43-10-2.48-.57-.72.11-1.83-1.27-2.23-1.14-1.36-.3-2.48.8-3.51.5-.47,1.24-.79,1.35-1.48.82-1,2.18-1.28,3.57-1.57,1.61-.34,3.36-.33,4.83-1.06Z"/><path class="cls-8" d="M147.38,54.36c5.52-10.71,15.77-17.07,30.12-19,9.18-1.25,18.19-.28,26.19,4a2.3,2.3,0,0,0,.62.1c-.53.93-1.34.52-2.15.29-3.16-.91-6.32-1.83-9.78-1.65a5.71,5.71,0,0,1-1.08-.14,43.35,43.35,0,0,0-14.24.09,41.55,41.55,0,0,0-17.24,6.75,61.74,61.74,0,0,0-5.09,4A22.82,22.82,0,0,0,149.57,54c-.39.48-.61,1.05-1.36,1.28C147.57,55.18,147.19,54.93,147.38,54.36Z"/><path class="cls-9" d="M219.75,65.93a18.67,18.67,0,0,1,0-3.26c.23-1.38-.53-2.11-2-2.67-.69-.26-1.17-.43-1.66.16-.15.18-.55.45-.64.41-2.53-1.16-2.49.69-3.22,2-.78-1.44-.28-2.69-.45-3.88a1,1,0,0,1-.49-.74c.1-3.57-1.28-6.92-2.42-10.31,1.42-.69,1.67-.58,2.82,1.48a1.61,1.61,0,0,1,1.55-1.5,9.92,9.92,0,0,1,2.53.42c.43,0,.41.33.48.56,2.22,2.73,3.06,5.83,4,8.9.08,2,.67,4,.55,6C220.65,64.34,221.27,65.42,219.75,65.93Z"/><path class="cls-10" d="M185.35,66.56c0,.45.07,1-.54,1.19-2.19.71-2.11,2.18-2.1,3.64-.6,2.73,1.76,4.2,4,5.66,1.51,1,1.61,1.93-.14,2.54-1.34.46-1.71,1.51-2.73,2.16s-1.54.84-2.16-.2c-.22-.38-.5-1.06-1.2-.72-1,.47.16.81.34,1.22a1.67,1.67,0,0,0,1.25,1.09c.81.22.72.63.14,1a8.57,8.57,0,0,1-3.91-3.82c-.56-2.35-1.87-4.69-.42-7.08.72-1.19,1-2.61,2.62-3.36.66-.31.52-.73.6-1.17C181.36,67.4,183.68,66.22,185.35,66.56Z"/><path class="cls-11" d="M215.78,48c-.44,1-.75-.24-1.26-.05-.82.29-2.7-.59-2,1.24.14.37-.18.69-.68.7a.76.76,0,0,1-.88-.8c0-1-.44-1.66-1.79-1.82a2,2,0,0,1-1.43-1c-2.13-2.89-5.39-4.75-9.16-6.13-1.64-.6-3.14-1.46-5.06-1.54-.62,0-1.32-.29-1.09-1,2,.19,3.92.33,5.84.61s3.81,1.7,6.05,1.19A30,30,0,0,1,215.78,48Z"/><path class="cls-12" d="M85,140.08c.91,0,1.65,0,2.38,0s.93.29.93.76-.33.74-1,.74h-2.2c-.6,0-1.22,0-1.24.68s.5.74,1.16.74h2c.55,0,1,.06,1,.62s-.37.71-1,.72c-.81,0-1.62,0-2.42,0s-.81.39-.79.84.3.62.81.63h2.43c.63,0,1.18,0,1.15.72s-.43.67-1,.67h-4.4c-.75,0-1-.26-1-.84a38.8,38.8,0,0,1,.08-5.5C82.16,139.3,84.08,140.45,85,140.08Z"/><path class="cls-13" d="M141,146.84c-1.7.42-3.11.66-4.16-.31a2.41,2.41,0,0,1-.56-3.05,2.64,2.64,0,0,1,2.85-1.46,6.32,6.32,0,0,0,2.5.09c.84-.27,1.09.29,1.08.89,0,1.19,0,2.39,0,3.59-.07,2.22-2.54,3.43-5.2,2.56-.43-.14-1.11-.25-.94-.78s.76-.53,1.39-.34C139.2,148.41,140.31,148.35,141,146.84Z"/><path class="cls-14" d="M152.61,144.89c.89-.69.9-1.42,1.21-2,.18-.36.31-.75,1-.78a1.14,1.14,0,0,1,1.24.77l.88,2.23a3.23,3.23,0,0,0,1.11-2.22c.21-.82.85-.9,1.59-.75,1,.22.24.74.13,1.09-.32,1-.71,2-1.12,2.94-.22.52-.28,1.11-1.33,1.14s-1.19-.51-1.43-1-.46-1.08-.72-1.71c-.94.44-.9,1.22-1.15,1.87a1.21,1.21,0,0,1-1.35.88c-.8,0-1.16-.25-1.35-.85-.38-1.16-.87-2.3-1.3-3.45-.11-.29-.53-.68.11-.84s1.18-.21,1.44.42S152.21,144,152.61,144.89Z"/><path class="cls-15" d="M191.62,146.74c-1.46.31-2.91.94-3.93-.16s-.4-2.67-.49-4c0-.47.49-.49,1-.49s.81.22.82.63c0,.74,0,1.49.06,2.23s.44,1,1.27.91,1.3-.26,1.33-.91,0-1.38.05-2.07c0-.43.1-.79.82-.8s.89.28.88.75c0,1.54,0,3.1-.08,4.64-.08,1-1,1.52-2.13,1.76a5.56,5.56,0,0,1-3.6-.38c-.27-.13-.4-.32-.19-.56a1.07,1.07,0,0,1,1.31-.28C190.14,148.48,191.19,148.26,191.62,146.74Z"/><path class="cls-16" d="M269.17,146.64c-1.63.48-3.17,1.07-4-.15s-.54-2.78-.23-4.19c.06-.31.61-.23,1-.21a.54.54,0,0,1,.58.6c0,.69.05,1.38,0,2.06s.2,1.13,1.2,1.11,1.49-.35,1.46-1.15c0-.63,0-1.27,0-1.9,0-.47.21-.74.89-.74s.88.29.88.75a35,35,0,0,1-.09,4.47c-.26,1.77-2.95,2.64-5.17,1.79-.43-.17-1.07-.26-.71-.84s.73-.42,1.28-.23C267.67,148.49,268.7,148.23,269.17,146.64Z"/><path class="cls-17" d="M185.35,66.56c-1.45-.39-1.64,1-2.6,1.15-1.57.29-1,1.08-.94,1.82,0,.32.15.72-.25,1-1.89,1.1-3.92,3.46-4.08,5.08s1.39,3.09.84,4.78c-4-6,1-15,10.68-15.87,1.44-.13,2.84-.46,4.26-.7-1.09,1.25-3,.94-4.5,1.36C187.48,65.48,186.19,65.64,185.35,66.56Z"/><path class="cls-18" d="M175,142.28c.78-.09,1.48-.21,2.19-.25,1.33-.06,2.09.4,2.1,1.49,0,.92,0,1.83,0,2.75,0,.45.07.95-.82,1s-.94-.53-.95-1,0-1.26,0-1.89-.18-1.06-1.05-1.08-1.41.34-1.5,1,0,1.25-.06,1.88c0,.46.26,1.11-.81,1.14s-.94-.54-.94-1.06c0-1.55,0-3.09,0-4.64,0-.56-.33-1.42.95-1.41s.69.82.81,1.32A7.45,7.45,0,0,1,175,142.28Z"/><path class="cls-19" d="M243.54,145.15c.66,1.28,1.68,1.11,2.58,1,.6-.09,1.21-.33,1.36.33s-.62.72-1.16.77c-1.54.14-3.1.26-4.14-1a2.2,2.2,0,0,1-.05-3.06,3.66,3.66,0,0,1,3.39-1.18,3,3,0,0,1,2.16,1c.46.52.81,1.18.46,1.77s-1.18.27-1.8.3C245.49,145.18,244.63,145.15,243.54,145.15Z"/><path class="cls-16" d="M199.58,147.32c-2.11,0-3.52-1-3.55-2.61s1.36-2.68,3.43-2.7,3.47,1,3.52,2.62S201.69,147.31,199.58,147.32Z"/><path class="cls-20" d="M282.68,147.3c-2.32,0-3.59-.79-3.7-2.36-.11-1.41.66-2.51,2.49-2.85s3.19.15,3.88,1.56c.44.9.42,1.61-1.22,1.5a6.46,6.46,0,0,0-1.32,0c-.58.08-1.59-.31-1.64.36s1,.62,1.7.7,1.87-.77,1.92.28S283.41,147.2,282.68,147.3Z"/><path class="cls-20" d="M102.46,147.31c-2.14,0-3.48-1-3.48-2.64s1.49-2.67,3.51-2.66,3.49,1.13,3.48,2.67S104.54,147.32,102.46,147.31Z"/><path class="cls-21" d="M127.15,144.57c0-.46,0-.92,0-1.37-.1-1,.4-1.39,1.67-1,.19,0,.41.19.56.15,1.19-.3,2.52-.75,3.4.23,1.11,1.26.45,2.77.5,4.17,0,.46-.49.49-.94.49s-.74-.27-.75-.66c0-.74,0-1.49,0-2.23s-.38-1.14-1.29-1.11-1.34.39-1.32,1.11,0,1.25,0,1.88.09,1.06-1,1c-.89,0-.82-.49-.83-.95S127.15,145.14,127.15,144.57Z"/><path class="cls-22" d="M154.5,131.29c0-7,0-14,0-21,0-1,.07-1.83-1.76-1.74-1.65.08-3.41-.07-3.51,1.74a56.24,56.24,0,0,0,0,5.66c.06,1.16-.36,1.65-2,1.61-3.36-.09-6.73,0-10.1-.06,3.09-.64,6.25-.26,9.37-.25,1.82,0,2.41-.34,2.29-1.79-.17-2.06,0-4.13,0-6.19,0-.82.31-1.06,1.36-1.1C155,108,155,108,155,111.73c0,6,0,12,0,18.08C155,130.29,155.48,131,154.5,131.29Z"/><path class="cls-12" d="M211.8,144.75a9.59,9.59,0,0,0,0,1.2c.14,1-.21,1.58-1.68,1.16a.89.89,0,0,0-.2-.06c-1.33.12-2.89.8-3.85-.3s-.32-2.67-.46-4c0-.38.18-.66.75-.67s1,.14,1,.66c0,.8,0,1.6,0,2.4a1,1,0,0,0,1.16,1c.83,0,1.42-.3,1.47-1s0-1.49,0-2.23c0-.52.13-.89,1-.86s.79.37.79.8v1.88Z"/><path class="cls-23" d="M254.38,146c-.42-.93-1.36-.77-2.07-.93-1.11-.24-1.9-.72-1.71-1.69s1-1.35,2.17-1.38a7.17,7.17,0,0,1,1.31,0c.7.09,1.69.19,1.57.88-.16,1-1,.36-1.62.24s-1.36-.31-1.49.28.72.57,1.27.65c1.17.16,2.11.52,2.18,1.59a1.3,1.3,0,0,1-1.18,1.46,6,6,0,0,1-4-.31c-.37-.2-.27-.51-.06-.76a.79.79,0,0,1,1-.15A3.74,3.74,0,0,0,254.38,146Z"/><path class="cls-16" d="M90.11,142.1c3.22-.19,2.12,2.27,3.75,3,.41-.78.85-1.53,1.21-2.31a1.27,1.27,0,0,1,1.69-.69c.88.3.09.79-.06,1.13-.46,1.08-1.08,2.12-1.6,3.18a1.59,1.59,0,0,1-2.82-.06C91.59,145,90.89,143.63,90.11,142.1Z"/><path class="cls-24" d="M169.38,147.3c-1.43,0-1.92-.61-2-1.64s.16-1.79-.76-2.7.76-1.53,1.32-2.14,1.08.16,1.56.77c.62.78,1.89,1.09.11,2a1.5,1.5,0,0,0,.46,2.5c.43.21.77.39.58.77S169.84,147.27,169.38,147.3Z"/><path class="cls-25" d="M116.72,145.25a23.73,23.73,0,0,0,1.2-2.32,1.22,1.22,0,0,1,1.57-.84c1.18.28.25.88.11,1.22-.43,1.09-1.1,2.11-1.59,3.19a1.18,1.18,0,0,1-1.24.76c-.74,0-1.21-.15-1.48-.76-.5-1.12-1.15-2.21-1.69-3.33-.16-.34-1-.81.07-1.07a1.24,1.24,0,0,1,1.58.57A6.21,6.21,0,0,0,116.72,145.25Z"/><path class="cls-12" d="M240,140.5c0,.33-.22.54-.59.66-1.08.36-1.4.68,0,1,.13,0,.22.72.1.76-1.82.74-1,2.06-1.18,3.15-.08.47.23,1.12-.85,1.12s-.82-.61-.89-1.11c-.14-1.08.19-2.11-.81-3.21-.68-.74,1.17-1.55,1.67-2.43.31-.55,1.23-.53,2-.43C239.74,140.08,239.92,140.24,240,140.5Z"/><path class="cls-18" d="M261.09,147.32a2.52,2.52,0,0,1-1.48-.32,1.68,1.68,0,0,1-.56-1.62c.16-1.48-1.56-3,.16-4.46a1.07,1.07,0,0,1,.55-.22c1.44-.07.85,1.59,2.27,1.65.16,0,.05.63-.45,1-1.22.8-1.13,2.06.12,2.87.38.24.71.47.52.83S261.46,147.24,261.09,147.32Z"/><path class="cls-26" d="M147.38,54.36a1.53,1.53,0,0,0,1,.83c.63-.18,1.12-.89,1.94-.28-.05,1.74-1.43,2.92-2.8,4.1s-1.31,2.93-2.73,4.09A18.15,18.15,0,0,1,147.38,54.36Z"/><path class="cls-27" d="M204.41,108.58c-4.46,0-8.92.09-13.38,0-1.81,0-2.19.46-2.18,1.77.07,7,0,14,0,20.93-.86-.28-.44-.88-.44-1.31,0-6.78,0-13.55-.06-20.33,0-1.1.34-1.47,1.81-1.43,4,.08,7.93,0,11.89,0A3.91,3.91,0,0,1,204.41,108.58Z"/><path class="cls-28" d="M227.71,143.17c.39,1-1,2.52,1.3,3.26a.37.37,0,0,1,0,.71,2.72,2.72,0,0,1-2.47-.14,1.38,1.38,0,0,1-.53-1.26c0-1.54,0-3.09,0-4.63,0-.57.1-1.06,1-1s.69.62.71,1C227.74,141.75,227.71,142.38,227.71,143.17Z"/><path class="cls-29" d="M275.57,147.3c-1,0-1.64-.44-1.64-1.29,0-1.67,0-3.33,0-5,0-.47,0-.94.88-.94s.91.44.91.93c0,1.21,0,2.42,0,3.62,0,.63-.37,1.43,1,1.63a.47.47,0,0,1,.28.74C276.66,147.4,276.07,147.28,275.57,147.3Z"/><path class="cls-30" d="M108.6,143.43c0-.79,0-1.59,0-2.39,0-.45,0-1,.83-1s.95.42,1,.92c0,1.08,0,2.16,0,3.24,0,.77-.51,1.77,1.06,2.11.14,0,.3.43.22.58-.28.55-1,.39-1.5.38s-1.42-.15-1.47-.79c-.09-1,0-2,0-3.07Z"/><path class="cls-31" d="M214.87,144.58c0-.4,0-.79,0-1.19,0-1,.09-1.85,1.75-1,.72.34,1.66-1,2.08.11s-1.19.76-1.69,1.25c-.72.71-.2,1.53-.38,2.29-.12.49.35,1.25-.9,1.22s-.77-.78-.84-1.28a10.27,10.27,0,0,1,0-1.36Z"/><path class="cls-32" d="M124.06,144.71c0,.63,0,1.25,0,1.88,0,.4-.26.61-.79.64s-1-.18-1-.69c0-1.25,0-2.5,0-3.76,0-.46.21-.74.9-.72s.85.32.84.77v1.88Z"/><path class="cls-23" d="M164.16,144.6c0,.63,0,1.26,0,1.89,0,.48-.22.74-.9.75s-.9-.26-.9-.74v-3.6c0-.42,0-.81.78-.84s1.05.26,1,.83S164.16,144,164.16,144.6Z"/><path class="cls-33" d="M231.52,144.65c0-.63,0-1.26,0-1.88,0-.37.15-.67.72-.69s.82.2.83.61q0,2,0,3.93c0,.41-.31.6-.84.59s-.71-.31-.72-.68C231.51,145.9,231.52,145.28,231.52,144.65Z"/><path class="cls-10" d="M189.21,86.58c2.73-1.27,5.46.51,8.2,0A21.54,21.54,0,0,1,189.21,86.58Z"/><path class="cls-34" d="M164.23,140.73a.84.84,0,0,1-.87.84c-.69,0-1.13-.31-1.17-.82s.44-.83,1.13-.82A.81.81,0,0,1,164.23,140.73Z"/><path class="cls-35" d="M232.29,139.91c.57.06,1,.32,1,.75s-.3.9-1,.92-1-.41-1-.9S231.69,140,232.29,139.91Z"/><path class="cls-36" d="M123.22,139.94c.68.05,1,.37.94.82s-.4.9-1.13.81a.8.8,0,0,1-.76-.92C122.3,140.16,122.67,140,123.22,139.94Z"/><path class="cls-2" d="M183.15,55.83c1.46-.88,2.93-.22,4.39,0Z"/><path class="cls-37" d="M147.47,59c.54-1.54,2.11-2.66,2.81-4.13,0-1.3,1.34-2,2.22-2.8,1.61-1.48,3-3.18,5.54-3.92,1.38.27,1.85,1.36,2.93,2,1.48.8,3,1.54,4.52,2.3-3.92,2.84-6.43,6.42-8.84,10.08-.76,1.15-1.68,1.15-2.93.24s-2.29-2.11-4.58-1.79C148.13,61.08,147.88,59.76,147.47,59Z"/><path class="cls-38" d="M165.49,52.41c-2.76-.18-4.37-1.82-6.31-3a9.07,9.07,0,0,1-1.14-1,.35.35,0,0,1-.11-.49A31.58,31.58,0,0,1,173.7,42.6c-.29,1.72,1.06,2.72,2.59,3.66.53.33,1.31.59,1.14,1.31A29.64,29.64,0,0,0,165.49,52.41Z"/><path class="cls-39" d="M177.43,47.57c-1.18-.83-2.31-1.72-3.55-2.5s-1.23-1.44,0-2.17c.49-.69,1.47-.52,2.21-.78,8.2-.38,15.55,1,21,6.28.24.33.53.65.18,1-3.79-.79-7.44-2-11.42-2.19-2.34-.8-4.63,0-6.93.14C178.4,47.42,177.92,47.51,177.43,47.57Z"/><path class="cls-40" d="M223.67,120c0-2.25,0-4.19,0-6.13,0-.85.23-1.24,1.44-1.18,1.67.07,3.36,0,5,0,2.85.06,4.25,1.06,4.26,3,0,1.79-1.68,3.08-4.22,3.2-1.09,0-2.19.06-3.28,0A4.2,4.2,0,0,0,223.67,120Z"/><path class="cls-1" d="M194.59,120c0-2.24,0-4.19,0-6.13,0-.87.25-1.24,1.44-1.19,1.68.07,3.37,0,5.05,0,2.78.07,4.16,1,4.23,2.85s-1.55,3.23-4.22,3.36c-1.09.06-2.2,0-3.29,0A4.18,4.18,0,0,0,194.59,120Z"/><path class="cls-41" d="M197.25,49.44l-.43-.78c-.77-1.42-2.44-2.38-3.2-3.83-.27-.53-1.1-.45-1.76-.51-1.1-.11-2-.54-2.24-1.41s1.17-.69,1.59-1.19c-2-1.12-1.8-3.31.33-4.11h.88c.25.2.46.53.75.58,7.05,1.18,12.44,4.13,16,9.07,1.83,3.66,3,7.41,2.63,11.38A1.57,1.57,0,0,0,211,60a10.21,10.21,0,0,1-1,4.13c-.27.19-.66.34-.77.57-2.11,4.56-7.37,6.38-12.16,8.61-.51.24-1.15.72-1.77.26s.17-.8.31-1.2c.54-1.47.16-3.06,1.07-4.49.24-.37-.31-.58-.65-.79-.53-.33-.78-.8-.3-1.19,2.11-1.72-.16-1.32-1.39-1.51.76-.81,2.48-.79,2.44-2,.49-1.29,2.28-1.82,2.79-3.27.7-2,1-3.79-.08-5.68a1.69,1.69,0,0,1-.11-.67c-.59-.92-1.14-1.85-1.72-2.77C197.62,49.8,197.7,49.5,197.25,49.44Z"/><path class="cls-42" d="M197.69,50a2.88,2.88,0,0,1,1.72,2.77A2.51,2.51,0,0,1,197.69,50Z"/><path class="cls-43" d="M191.54,37.61c-1.69.59-.09,2.21-1.48,2.94-.16.08.33.47.71.47.68,0,1.62-.36,1.56.61-.05.75-.87.8-1.64.82a5.63,5.63,0,0,0-.77.17c.46.7,1,1.5,2,1.3,1.87-.38,2.49.54,2.79,1.53.38,1.24,2.54,1.7,2.12,3.21-5.43-5-12.63-6.41-20.62-6.2-1.27.36-2.6,0-3.88.23a1,1,0,0,1-1.11-.36c-.25-.38.07-.63.41-.85s.74-.32.73-.6c-.08-2.26,2.16-2.68,4.19-3.26C181.54,36.77,186.54,36.34,191.54,37.61Z"/><path class="cls-44" d="M176.54,37.62c-.06.38-.28.63-.81.68-2,.19-3.06.87-2.43,2.64.43,1.19-1.3.53-2,1.3,1.7.38,3.33.08,4.88.22-.68.46-1.57.23-2.32.44a35.58,35.58,0,0,0-14.58,4.59c-.35.19-.74.33-1.11.49a8.89,8.89,0,0,0-2.38,1.21c-.93.51-1,.47-1.31-.55a19.91,19.91,0,0,1,5.16-4.33A41.72,41.72,0,0,1,176.54,37.62Z"/><path class="cls-45" d="M154.5,48.64c.18.77.59.61,1.09.17a2.91,2.91,0,0,1,2.6-.83l-.15.39c-3.18,1.73-5.31,4.23-7.76,6.51-.78-.39-1.08,1-1.95.31C149.79,52.66,151.44,50.24,154.5,48.64Z"/><path class="cls-1" d="M140.85,144.63c.19.88-.42,1.31-1.42,1.33-1.15,0-1.7-.54-1.66-1.41a1.4,1.4,0,0,1,1.55-1.35C140.48,143.18,141,143.73,140.85,144.63Z"/><path class="cls-1" d="M246.4,144a6.33,6.33,0,0,1-2.74,0C244.68,142.73,245.3,142.72,246.4,144Z"/><path class="cls-1" d="M201.2,144.55a1.5,1.5,0,0,1-1.61,1.6,1.47,1.47,0,0,1-1.75-1.41c-.08-.86.59-1.48,1.62-1.54A1.53,1.53,0,0,1,201.2,144.55Z"/><path class="cls-1" d="M283.84,144c-1,.13-2,.36-2.76-.14-.23-.14.1-.56.46-.67C282.55,142.93,283.37,143.06,283.84,144Z"/><path class="cls-1" d="M104.09,144.8c-.2.69-.47,1.38-1.6,1.36s-1.7-.67-1.68-1.49a1.47,1.47,0,0,1,1.7-1.47C103.7,143.23,104,144,104.09,144.8Z"/></g></g></svg>