<svg xmlns="http://www.w3.org/2000/svg" viewBox="0 0 194.35 178.63"><defs><style>.cls-1{fill:#da7800;}.cls-2{fill:#fde87d;}.cls-3{fill:#75ccd4;}.cls-4{fill:#c1a0d4;}.cls-5{fill:#6cf4c1;}.cls-6{fill:#89c8fd;}.cls-7{fill:#ed6161;}.cls-8{fill:#fd7d43;}.cls-9{fill:#fdde30;}.cls-10{fill:#00f1a5;}.cls-11{fill:#2abbc7;}.cls-12{fill:#a174be;}.cls-13{fill:#26a5fd;}.cls-14{fill:#e84444;}.cls-15{fill:#fc6930;}.cls-16{fill:#222020;}</style></defs><title>color</title><g id="Layer_2" data-name="Layer 2"><g id="color"><path class="cls-1" d="M136.59,11.7c1.69-3.08,3.45-6.13,5.06-9.26,1.34-2.62,3-3.09,5.6-1.6C166.3,12,180.94,27.11,190,47.4c1.27,2.82,2.88,5.48,4.34,8.21V57.8c-2.41,2.08-5.61,2.12-8.38,3.23-2.11.84-4.58.81-6.29,2.6a153.4,153.4,0,0,1-22.11,6.58,3.74,3.74,0,0,1-2.95-2.43c-3.73-8.13-9.24-15.07-14.93-21.83-3.87-4.59-9.05-7.65-14.14-10.73a9.85,9.85,0,0,1-2.14-1.37c-.48-1.18.19-2.11.7-3.06,3.11-5.79,6.67-11.3,10.12-16.88A11.44,11.44,0,0,1,136.59,11.7Z"/><path class="cls-2" d="M136.59,11.7c-4.28,7.38-9.17,14.4-13,22-.24,3.43-1.41,6.26-4.8,7.73-3-.52-5.73-1.94-8.62-2.84a57.9,57.9,0,0,0-42.51,2.57,1.53,1.53,0,0,1-1.55-.54C61.43,31.93,57.7,22.79,53.18,14c-.6-1.17-1.23-2.42-.67-3.83,9.74-5.33,20.35-7.68,31.24-8.57a96,96,0,0,1,51.78,9.89A3.56,3.56,0,0,0,136.59,11.7Z"/><path class="cls-3" d="M6.87,124.24A88.8,88.8,0,0,1,.1,86.33C.55,77,2,67.85,5.78,59.21c1.14-.87,2.29-.44,3.47-.08,9,2.73,17.47,6.73,26.4,9.56,1.25.4,2.55.94,3,2.42a6.16,6.16,0,0,1-.31,3.21,54.93,54.93,0,0,0,.87,33.9,7.6,7.6,0,0,1,.57,3.2c-.44,1.61-1.79,2.24-3.16,2.73-8.1,2.92-16,6.4-23.94,9.65C10.89,124.54,8.93,125.81,6.87,124.24Z"/><path class="cls-4" d="M124.27,173a84.06,84.06,0,0,1-25.81,5.38,93.08,93.08,0,0,1-37.85-5.12c-1.48-.54-2.94-1.14-4.4-1.72-.82-1.5,0-2.84.53-4.15,3.4-7.77,6.83-15.54,10.21-23.32.62-1.44,1.24-2.94,2.88-3.58,1.64-.39,3.11.26,4.59.75a53.64,53.64,0,0,0,34.17.4,6.32,6.32,0,0,1,3.54-.43c1.54.57,2.15,1.91,2.64,3.29,3,8.34,6,16.64,9.08,25A5.28,5.28,0,0,1,124.27,173Z"/><path class="cls-5" d="M38,70.94C27.39,66.75,16.83,62.32,5.78,59.21c2.72-9.69,9-17.3,14.85-25.12,7.23-9.69,17.19-16.22,27.49-22.22a28.2,28.2,0,0,1,4.39-1.67Q58.84,23.58,65.16,37c.5,1.08.86,2.22,1.29,3.33a4.36,4.36,0,0,1-2.24,2.31C52.86,49.44,44,58.46,39,71A.74.74,0,0,1,38,70.94Z"/><path class="cls-6" d="M69.47,141.11c-4.66,10-9.22,20.15-13.26,30.48C33.33,162.51,17.55,146,6.86,124.24c4-.09,7.33-2.13,10.88-3.57l21.69-8.82.51.14c2.41,2.45,3.4,5.79,5.36,8.55,5.8,8.19,13.62,13.89,22.31,18.57a7.85,7.85,0,0,1,1.9,1A.78.78,0,0,1,69.47,141.11Z"/><path class="cls-7" d="M124.27,173q-5-13.44-10-26.89c-.55-1.46-1.21-2.89-1.83-4.33a.81.81,0,0,1,0-1,58.55,58.55,0,0,0,30.56-27,2.41,2.41,0,0,1,1.06-.27c7.37,2.69,14.28,6.42,21.44,9.57,2.32,1,4.53,2.27,6.86,3.27,1,.43,2.5.58,2.23,2.31-6.44,10.77-13.09,21.38-23.5,28.93-2.36,1.7-4.57,3.59-6.91,5.32A73.59,73.59,0,0,1,124.27,173Z"/><path class="cls-8" d="M174.68,128.71l-22.86-11L143.94,114c-.87-1.19-.26-2.34.17-3.44a55.84,55.84,0,0,0,2.22-34.64,5.54,5.54,0,0,1-.12-2.53c2.74-3.78,7-3.35,10.89-3.87,6-1.72,12-3.42,18-5.2a11.81,11.81,0,0,1,4.59-.71C186.34,86,185,107.68,174.68,128.71Z"/><path class="cls-1" d="M157.1,69.54c-3.12,2-7.21,1.28-10.24,3.58-4.51,3-10,3.45-14.93,5.27-2.7,1-5.62,1.4-8.16,2.89-1.75.23-1.88-1.25-2.29-2.3a28.82,28.82,0,0,0-12.32-14.41,4.34,4.34,0,0,1-2.24-2.3c-.31-1.59.48-2.86,1.33-4,3.58-4.92,6.39-10.31,9.41-15.57a4.32,4.32,0,0,1,1.45-1.61c2-2.1,3-4.87,4.43-7.34,4,.56,7,3.31,9.93,5.46,7,5,11.86,12.12,16.79,19.16C152.8,62,154.12,66.25,157.1,69.54Z"/><path class="cls-9" d="M119.11,41.06c-2.57,6.38-6.33,12.07-10.15,17.72a7.84,7.84,0,0,0-1.61,3.57,2.92,2.92,0,0,1-2.78-.13,32,32,0,0,0-25,0,3.71,3.71,0,0,1-1.78.23,2.57,2.57,0,0,1-1.5-1.51A132.41,132.41,0,0,0,67.5,44.2c-.59-1-1.19-2.18-.32-3.4,4.73-3.52,10.44-4.59,15.95-5.45C95.63,33.4,107.68,35.59,119.11,41.06Z"/><path class="cls-10" d="M67.18,40.8c3,7.3,7.76,13.76,10.56,21.18-.82,2.13-2.95,2.79-4.57,4A27.83,27.83,0,0,0,63.82,76.8c-.56,1.19-1.13,2.45-2.65,2.76a167.32,167.32,0,0,1-21.34-7.32,1.9,1.9,0,0,1-1.12-1.36A43.36,43.36,0,0,1,51,51.62,87.8,87.8,0,0,1,66.45,40.3Z"/><path class="cls-11" d="M38.71,70.88l22.85,8.21a3.08,3.08,0,0,1,.32,2.76A32.5,32.5,0,0,0,63,101.33a3.24,3.24,0,0,1,.14,1.42c-2.36,2.42-5.71,2.87-8.61,4.19-3.82,1.75-7.95,2.77-11.76,4.6a3.81,3.81,0,0,1-3.15.29l-.17,0C34.32,99,33.43,86,37.82,72.73A8.77,8.77,0,0,0,38,70.94C38.27,70.93,38.49,70.91,38.71,70.88Z"/><path class="cls-12" d="M112.59,141.08c0,.24-.07.49-.11.74a89.19,89.19,0,0,1-16.86,3.47c-7.29.61-14.35-.82-21.3-2.9-1.6-.49-3.09-1.39-4.85-1.28,0-.21-.07-.42-.1-.63-.65-2.57,1.84-3.76,2.56-5.76,1.51-4.23,3.48-8.29,5.31-12.4.64-1.44,1.11-3,2.75-3.68.49,0-.11-.19.35-.07a49.32,49.32,0,0,0,23.14.19c1.31.65,1.75,1.94,2.25,3.15,2.34,5.66,3.79,11.68,6.81,17.08A2.18,2.18,0,0,1,112.59,141.08Z"/><path class="cls-13" d="M79.71,119c-2,4.55-4.07,9.06-5.95,13.65a38.84,38.84,0,0,1-4.38,7.84c-5.24-1.26-9.3-4.65-13.43-7.76A47.91,47.91,0,0,1,39.6,111.83c7.57-3.16,15.17-6.24,23-8.8a2.08,2.08,0,0,1,1.64,1.28c3.14,5.77,8.19,9.44,13.68,12.65C78.69,117.44,79.69,117.79,79.71,119Z"/><path class="cls-14" d="M112.59,141.08c-4-6.85-5.93-14.55-8.82-21.85a2.55,2.55,0,0,1,1.64-1.8,32.8,32.8,0,0,0,14.4-12.76,3.37,3.37,0,0,1,1.67-1.34,3.64,3.64,0,0,1,2.82.32c5.62,2.84,11.54,5,17,8.11.88.49,2.14.8,1.88,2.29-3,7.8-8.29,13.76-14.87,18.68a62.93,62.93,0,0,1-11.61,7.36A7.9,7.9,0,0,1,112.59,141.08Z"/><path class="cls-15" d="M143.23,114.05a126.47,126.47,0,0,0-21.84-10.27,3.1,3.1,0,0,1,0-2.78,35.63,35.63,0,0,0,1.43-17.41,2.85,2.85,0,0,1,.56-2.38,2.08,2.08,0,0,1,1.6-1.78l21.93-6.31c.81,5,2.1,9.82,2.29,14.92.34,9.14-1.94,17.63-5.21,26C143.71,114,143.47,114.05,143.23,114.05Z"/><path class="cls-16" d="M123.33,81.21a35.09,35.09,0,0,1-1.94,22.57c-3.84,7.47-10.08,12.2-17.62,15.45A35.69,35.69,0,0,1,79.71,119c-7.13-3.79-13.72-8.17-17.15-16a33.57,33.57,0,0,1-1-23.94c3.07-7.9,8.83-13.25,16.17-17.11,9.94-4.58,19.81-4.34,29.62.37C115.31,66.4,120.48,72.83,123.33,81.21Z"/></g></g></svg>