<svg xmlns="http://www.w3.org/2000/svg" viewBox="0 0 168.74 157.7"><defs><style>.cls-1{fill:#fe6d3a;}.cls-2{fill:#da7800;}.cls-3{fill:#222020;}.cls-4{fill:#646f5c;}.cls-5{fill:#68715b;}</style></defs><title>cpu</title><g id="Layer_2" data-name="Layer 2"><g id="cpu"><path class="cls-1" d="M29.42,17a71.85,71.85,0,0,0,0-7.34C28.93,5,30.41,1.78,34.45,0h9.68C48.33,1.54,50,3.65,50,8.5c0,3.05,1,6.33-1,9.15-3.69,1.13-7.47.36-11.2.55a52.87,52.87,0,0,1-5.63,0C31.14,18.11,30.05,18.15,29.42,17Z"/><path class="cls-1" d="M64.61,0h9.67c4.62,1.66,5.85,3.25,5.87,8.71,0,3,.94,6.14-.94,8.9-1.81.91-3.73.64-5.6.57-4.62-.18-9.26.62-13.85-.51-1.1-.81-1-2.1-1.07-3.3-.08-1.82,0-3.66,0-5.49C58.76,3.35,59.87,1.7,64.61,0Z"/><path class="cls-1" d="M95.34,0h9.1c4.7,1.58,6,3.22,5.89,8.75,0,2.95.9,6.1-1,8.85-1.6.87-3.34.65-5,.58-4.8-.21-9.64.64-14.42-.51-2.1-3.15-1.54-13.5,1.74-16.27C92.79.45,94.17.62,95.34,0Z"/><path class="cls-1" d="M134.6,0c4.09,1.41,5.25,4.69,5,9-.12,2.63,0,5.28.05,7.93-1.76,2.21-4.13.81-6.2,1.24-4.3-.19-8.64.63-12.91-.54-1.81-3.31-1.33-12.62.66-15.52C122.35.48,124.13.81,125.49,0Z"/><path class="cls-2" d="M49.05,17h71.52l12.87.17c4.38,1.43,5.51,4.92,5.5,9.49q-.09,52.13,0,104.25c0,4.63-1.44,7.93-5.37,9.85-4.34.67-8.67,1.05-13-.2H109.42a3.6,3.6,0,0,1-2.42.69q-7.38.09-14.76,0a3.61,3.61,0,0,1-2.42-.69H79.23a3.62,3.62,0,0,1-2.43.69q-7.36.09-14.75,0a3.6,3.6,0,0,1-2.42-.69H49a3.74,3.74,0,0,1-2.43.69q-7.37.09-14.73,0a3.68,3.68,0,0,1-2.43-.69c-.94-.05-1.88-.11-2.82-.14-5.55-.2-7.84-3-8.31-10.06a6,6,0,0,1-.65-3.84c.28-4.76-.75-9.58.65-14.27V102a6.06,6.06,0,0,1-.65-3.85c.28-4.75-.75-9.58.65-14.28V73.66a6.06,6.06,0,0,1-.65-3.85c.28-4.76-.76-9.58.65-14.28V45.3C17,42,17.75,38.44,17.68,35c-.05-2.6-.59-5.32.62-7.83C18.21,19,22.32,16.6,29.42,17Z"/><path class="cls-2" d="M133.45,140.38c.28-1,1.18-1.29,1.87-1.78a6.47,6.47,0,0,0,2.7-5.71q0-54.12,0-108.24a6.47,6.47,0,0,0-2.71-5.71c-.69-.49-1.58-.78-1.87-1.77l6.25-.25c2.22.27,4.54-.27,6.66.83,2.7,1.4,4.58,3.44,4.39,7a19.54,19.54,0,0,0,.18,2.41,66.14,66.14,0,0,1,0,18.16,59.79,59.79,0,0,0,0,10.19,66.46,66.46,0,0,1,0,18.15,57.91,57.91,0,0,0,0,10.2,66.46,66.46,0,0,1,0,18.15,59.9,59.9,0,0,0,0,10.2,66.07,66.07,0,0,1,0,18.15,1,1,0,0,0-.08.29c.49,7.42-3.65,10.17-9.83,9.9a7.5,7.5,0,0,0-1.4.2C137.52,141.4,135.44,141.7,133.45,140.38Z"/><path class="cls-1" d="M59.63,140.56q9.79-.37,19.6,0c0,3.17.06,6.34,0,9.51-.11,4.36-2.64,7.35-6.68,7.37-3.49,0-7.14,1.07-10.39-1.64a6.57,6.57,0,0,1-2.52-5.43C59.61,147.1,59.63,143.83,59.63,140.56Z"/><path class="cls-1" d="M29.43,140.56q9.8-.39,19.59,0c0,3.06-.17,6.14.06,9.19.28,3.7-3,7.46-6,7.59-3.44.17-6.93.92-10.28-.86-2.42-1.28-3.41-3.33-3.41-6.11C29.44,147.1,29.43,143.83,29.43,140.56Z"/><path class="cls-1" d="M89.82,140.56q9.8-.37,19.6,0c0,3.18,0,6.36,0,9.54-.09,4.31-1.72,6.62-5.54,7.27a27.62,27.62,0,0,1-8.22,0c-3.69-.5-5.62-4.26-5.81-7.87C89.69,146.51,89.82,143.53,89.82,140.56Z"/><path class="cls-1" d="M150.92,73.67a152.65,152.65,0,0,1,0-18.15c3.49,0,7-.07,10.47,0,5.22.15,7.33,2.54,7.34,8.14,0,.61,0,1.23,0,1.84,0,5.59-2.11,8-7.35,8.13C157.9,73.75,154.41,73.67,150.92,73.67Z"/><path class="cls-1" d="M150.92,102a152.65,152.65,0,0,1,0-18.15c3.49,0,7-.08,10.46,0,5.24.16,7.34,2.54,7.35,8.13,0,.61,0,1.22,0,1.84,0,5.59-2.12,8-7.34,8.14C157.9,102.09,154.41,102,150.92,102Z"/><path class="cls-1" d="M150.91,45.33a155,155,0,0,1,0-18.16c3.49,0,7-.06,10.47,0,5.2.13,7.33,2.54,7.34,8.14,0,.82,0,1.63,0,2.45,0,4.54-1.69,6.85-5.95,7.28C158.85,45.47,154.87,45.26,150.91,45.33Z"/><path class="cls-1" d="M150.92,130.37a155,155,0,0,1,0-18.16c3.4,0,6.79-.06,10.18,0,5.63.16,7.64,2.42,7.64,8.43,0,.51,0,1,0,1.53,0,5.59-2.14,8-7.34,8.14C157.9,130.43,154.41,130.36,150.92,130.37Z"/><path class="cls-1" d="M18.3,27.18V45.3c-3.41,0-6.83.08-10.24,0-2.8-.09-5.82-.55-7-3.66a13.74,13.74,0,0,1,.28-11.28c1.2-2.27,3.66-3.1,6.13-3.13C11.09,27.16,14.7,27.19,18.3,27.18Z"/><path class="cls-1" d="M18.3,112.25v18.11c-3.41,0-6.83.08-10.24,0-5.21-.16-7.81-2.91-7.88-8.43-.07-6.88,2-9.61,9-9.68C12.23,112.2,15.27,112.24,18.3,112.25Z"/><path class="cls-1" d="M18.3,55.53V73.66c-3.41,0-6.83.08-10.24,0-2.8-.08-5.82-.58-7-3.66-1.37-3.64-1.61-7.73.29-11.27,1.28-2.39,3.84-3.15,6.41-3.16C11.28,55.51,14.79,55.53,18.3,55.53Z"/><path class="cls-1" d="M18.3,83.88V102c-3.41,0-6.83.09-10.24,0C2.83,101.84.26,99,.18,93.56c-.09-6.91,2.11-9.61,9-9.68C12.23,83.84,15.27,83.88,18.3,83.88Z"/><path class="cls-1" d="M133.45,140.38l6.16.38c0,3.27.07,6.55,0,9.81s-1.37,5.68-4.55,6.5a19.67,19.67,0,0,1-9.52.09c-3.53-.84-4.77-2.77-4.9-6.79-.11-3.27,0-6.54,0-9.81Z"/><path class="cls-3" d="M43.5,43.61a4.76,4.76,0,0,1,3.4-3,5.15,5.15,0,0,1,2.52-.23h60.82c3.25,0,3.58.26,3.6,3.81q.07,19.83,0,39.65a7.8,7.8,0,0,1-2.45,6c-6.43,6.21-13,12.19-19.54,18.31A11,11,0,0,1,84,111.13c-12.31,0-24.63,0-36.94,0-3.63,0-3.81-.29-3.81-4.21q0-30.12,0-60.24A7.8,7.8,0,0,1,43.5,43.61Z"/><path class="cls-3" d="M43.5,43.61c0,20.91.1,41.83,0,62.73,0,3.19.8,3.93,3.64,3.89,12.42-.18,24.83-.13,37.25,0a9.63,9.63,0,0,0,6.77-2.66c6.9-6.32,13.7-12.79,20.54-19.21C113,87.13,113,85.5,113,83.82c0-13.32-.07-26.65,0-40,0-2.53-.62-3.31-3-3.3-19.62.1-39.24.06-58.86.06-1.42,0-2.84,0-4.26,0,.93-.78,2-.45,3-.45Q84.62,40,119.29,40c5.39,0,6.76,1.48,6.77,7.2,0,14.45,0,28.9,0,43.36a7.37,7.37,0,0,1-2.76,6.22c-5.07,4.37-9.81,9.18-14.67,13.81-1.77,1.69-3.43,3.52-5.31,5a8.57,8.57,0,0,1-5.53,2c-16.11-.09-32.22,0-48.33,0-4.68,0-6.49-2.07-6.48-7,0-21.11,0-42.23.09-63.35C43.08,46,42.74,44.71,43.5,43.61Z"/><path class="cls-1" d="M104.54,76.76c0-2.56.11-5.13,0-7.68-.11-2.23,1.12-2.18,2.54-2.15s2.64-.27,2.57,2.06c-.13,5,0,10-.11,15.06s-2.38,7-7.14,7-6.92-1.88-7.11-7,0-10-.15-15.06c-.06-2.25,1.14-2.09,2.54-2.14s2.48.19,2.42,2.27c-.13,4.09,0,8.2,0,12.3a24,24,0,0,0,.11,3.06c.18,1.43.33,2.91,2.26,2.85s2.07-1.44,2.09-3c0-2.56,0-5.12,0-7.69Z"/><path class="cls-1" d="M68.68,72.59c-.24-1.25-.54-2.69-2.05-2.32a2.63,2.63,0,0,0-2.1,2.81c.06,3.79.06,7.59,0,11.38a2.63,2.63,0,0,0,2.11,2.81c1.49.37,1.81-1,2-2.31.92-1.07,0-2.72,1-3.76,1.48-.65,3.23-.84,4.27.28s0,3-.39,4.32c-1.3,4.38-3.91,5.91-8.4,5.22-3.39-.52-5.63-3.4-5.7-7.5-.05-3.28.07-6.56,0-9.84-.13-4.62,3.67-7.5,8.3-7.29,4.45.21,5.94,4.46,6.49,8.19.16,1.11-.26,1.78-1.38,1.74l-3.11-.11C68.67,75.26,69.62,73.59,68.68,72.59Z"/><path class="cls-1" d="M78.72,78.77c0-3.17,0-6.34,0-9.51,0-.76-.26-1.66.59-2.19C81,66,88,67.41,89.51,69c2.09,2.13,2,4.74,1.28,7.3-.63,2.1-2.11,3.72-4.26,3.86-2.38.15-3.07,1.35-2.79,3.72.15,1.2-.1,2.47.05,3.67.35,2.69-.81,3.28-3.06,3.16-1.66-.08-2.08-.72-2-2.38C78.78,85.12,78.72,81.94,78.72,78.77Z"/><path class="cls-4" d="M68.68,72.59c1.85.68.72,2.41,1.09,3.62C67.46,75.68,69,73.8,68.68,72.59Z"/><path class="cls-5" d="M69.71,81.2c-.33,1.26.89,3-1,3.76C69,83.71,67.51,81.85,69.71,81.2Z"/><path class="cls-3" d="M85.73,73.64c0,.51,0,1,0,1.51,0,.85-.26,1.72-1.23,1.65s-.66-1-.7-1.68a12.13,12.13,0,0,1,0-2.41c.1-.77-.52-2.12.83-2.09,1,0,1.1,1.18,1.13,2.11v.91Z"/></g></g></svg>