<svg xmlns="http://www.w3.org/2000/svg" viewBox="0 0 207.56 180.08"><defs><style>.cls-1{fill:#ed8d2e;}.cls-2{fill:#fe6d3a;}.cls-3{fill:#da7800;}.cls-4{fill:#9feff1;}</style></defs><title>dimensions</title><g id="Layer_2" data-name="Layer 2"><g id="dimensions"><path class="cls-1" d="M0,47.92c2.78-6.3,9.1-7.85,14.45-10.57,9.38-4.76,18.86-9.31,28.37-13.8C57,16.88,70.66,9.2,85.25,3.56a49.07,49.07,0,0,1,39.37,1.16Q144.06,13.65,163.31,23c9.35,4.5,18.59,9.24,27.9,13.84,2.8,1.38,5.7,2.58,8.51,3.94,3.55,1.71,5.62,4.85,7.45,8.14,1.25,2.24-2.22,8.21-4.81,9.85-5.74,3.62-12.15,5.88-18.22,8.85-1.89.93-4,1.48-5.53,3a1.57,1.57,0,0,1-1.14.17c-11.23-5-22.11-10.73-33.28-15.86-9.77-4.48-19-10.48-29.72-12.57A54.16,54.16,0,0,0,79.3,47Q54.61,59.06,29.78,70.89a3.43,3.43,0,0,1-1.15.1,261.48,261.48,0,0,1-25-11.62C1.15,58.07.57,55.63,0,53.2Z"/><path class="cls-2" d="M178.76,110.46c6.87,3.33,13.68,6.77,20.62,9.94,3.68,1.68,5.76,4.71,7.57,8,1.32,2.36-1.35,8.5-4.94,10.53-5.33,3-10.91,5.59-16.45,8.21-9.27,4.39-18.6,8.67-27.91,13-11.92,5.51-23.68,11.42-35.82,16.4-11.64,4.77-23.71,4.63-35.64.41-9.34-3.3-18-8-27-12.16-17.86-8.21-35.5-16.9-53.32-25.18-3.07-1.42-4.35-3.92-5.87-6.46v-5.27c.51-3.82,2.8-6,6.21-7.62,6.08-2.84,12.14-5.72,18-8.94,1.41-.77,2.84-1.6,4.56-1.42C38,113.74,47,118.34,56.13,122.37c10.44,4.59,20.37,10.34,31.2,14,12.91,4.35,25.63,3.51,38.06-2.18,16.42-7.51,32.69-15.32,49.15-22.71C175.87,110.87,177.11,109.77,178.76,110.46Z"/><path class="cls-3" d="M178.76,110.46c-18.62,8.67-37.07,17.75-55.92,25.89-13.61,5.87-27.74,5.11-41.21-1-17.81-8-35.4-16.59-53.08-24.92-5.78-.91-10.41-4.63-15.8-6.54-2-.7-3.76-2-5.74-2.77-3.78-1.46-6.29-3.91-7-8V87.88c.77-3.94,3.48-6.11,6.84-7.9,5.87-3.14,12.25-5.23,17.9-8.82,1.11-.7,2.44-1.34,3.87-.64l.77.13c5.22,1,9.69,3.93,14.41,6.11C53,81,62.23,85.17,71.37,89.54c4.69,2.09,9.09,4.78,14,6.4,13.41,4.38,26.59,4.5,39.56-1.55,3.41-1.59,6.94-2.94,10.24-4.76,13.18-5.76,26-12.21,39.19-18,1.14-.5,2.24-1.16,3.56-1,.23,0,.45,0,.67,0l21.26,10.53c2.87,1.43,5.2,3.37,6,6.69,1.23,1.64.6,3.51.66,5.3-2.7,5.15-7.29,7.75-12.49,9.89S183.83,108,178.76,110.46Z"/><path class="cls-4" d="M206.49,93.15c-1.32-1.63-.44-3.53-.66-5.3C208.55,89.31,207.48,91.23,206.49,93.15Z"/><path class="cls-1" d="M177.94,70.65c-8.59,4.75-17.66,8.53-26.57,12.62-5.18,2.38-10.07,5.46-15.67,6.89-3.57-.44-6.58-2.38-9.72-3.84-15.61-7.25-31-6.65-46.42.58-2.8,1.32-5.34,3.38-8.69,3.26-7.6-3.41-15.3-6.61-22.76-10.31-6.23-3.09-12.9-5.3-18.73-9.2,6-4.08,12.79-6.82,19.27-10,9.65-4.79,19.6-9,29.13-14,13.09-6.87,26.7-7.91,40.74-4.45,4.32,1.06,8.37,3.31,12.42,5.27C144,53.77,157,60.2,170,66.59,172.68,67.9,175.77,68.39,177.94,70.65Z"/><path class="cls-1" d="M70.87,90.16c8-4.11,15.85-8.48,25-9.46,9.54-1,19-.7,27.84,3.5,4,1.91,8.49,3,12,6-20,12.3-40.43,13.68-61.22,1.85C73.31,91.34,72.07,90.78,70.87,90.16Z"/></g></g></svg>