<svg xmlns="http://www.w3.org/2000/svg" viewBox="0 0 376 193"><defs><style>.cls-1{fill:#282626;}.cls-2{fill:#fefefe;}.cls-3{fill:#fe0000;}.cls-4{fill:#fc0000;}.cls-5{fill:#e90001;}.cls-6{fill:#fe2b20;}.cls-7{fill:#c40101;}.cls-8{fill:#fe9c75;}.cls-9{fill:#ff261d;}.cls-10{fill:#9a0000;}.cls-11{fill:#9b0000;}.cls-12{fill:#fe8463;}.cls-13{fill:#ff6d52;}.cls-14{fill:#d50101;}.cls-15{fill:#ff533e;}.cls-16{fill:#ff3a2b;}.cls-17{fill:#ff3729;}.cls-18{fill:#ff4937;}.cls-19{fill:#fe1a14;}.cls-20{fill:#d00101;}.cls-21{fill:#ffb78a;}</style></defs><title>huawei</title><g id="Layer_2" data-name="Layer 2"><g id="huawei"><rect class="cls-1" width="376" height="193"/><path class="cls-2" d="M228.73,89.49c1.94,0,3.79,0,5.65,0,.34,0,.37.26.44.52.6,2.25,1.21,4.51,1.81,6.77q2,7.32,3.94,14.63a.83.83,0,0,0,.2.47c.07-.24.14-.45.19-.67l4.74-21c0-.12.07-.25.09-.37,0-.27.14-.4.38-.38s.56,0,.84,0h4.86c.55,0,.55,0,.73.67q2.72,10.49,5.45,21a2,2,0,0,0,.3.82c.39-1.58.78-3.12,1.17-4.67l4.26-17c.19-.74.19-.75.82-.75h5a.88.88,0,0,1-.08.69q-3.89,14.08-7.78,28.17c-.21.76-.13.61-.7.61h-5.69c-.58,0-.58,0-.74-.65l-5.15-20.18a2.91,2.91,0,0,0-.32-.94c-.29,1.29-.57,2.48-.83,3.68q-2,8.7-3.88,17.41c-.15.67-.15.67-.71.68H238c-.52,0-.53,0-.71-.61l-8.4-28.25C228.84,89.93,228.8,89.76,228.73,89.49Z"/><path class="cls-3" d="M73,73.74l.87,1.31A222.61,222.61,0,0,1,92.26,110.7c.51,1.24,1,2.51,1.49,3.77,0,.09.07.18.1.28s.19.38,0,.57-.35.1-.53,0c-1-.61-2-1.21-3-1.83a144.56,144.56,0,0,1-13.69-9.64,49.19,49.19,0,0,1-6.39-6,14.41,14.41,0,0,1-3.4-7.38,15.63,15.63,0,0,1,.74-7.51,29.74,29.74,0,0,1,5.14-9.08A1.13,1.13,0,0,1,73,73.74Z"/><path class="cls-2" d="M152,104.19V90.55a4.86,4.86,0,0,0,0-.54c0-.39.07-.53.42-.53,1.32,0,2.64,0,4,0,.38,0,.85-.2,1.1.11s.07.84.07,1.27c0,3.23,0,6.46,0,9.68,0,.19,0,.37,0,.55s.08.33.26.32h11.38c.13,0,.26,0,.39,0s.26-.1.26-.32,0-.37,0-.55V90.18c0-.71-.06-.69.54-.69H175c.5,0,.5,0,.5.64V118a4.87,4.87,0,0,0,0,.54c0,.33-.12.39-.35.39-.77,0-1.53,0-2.3,0h-2.43c-.51,0-.51,0-.51-.64V107.63c0-1,0-1-.82-1H158.44c-.13,0-.26,0-.38,0-.48,0-.48,0-.48.6,0,3.62,0,7.23,0,10.85,0,1,.1.84-.72.84h-4.28c-.58,0-.55.06-.55-.68Z"/><path class="cls-2" d="M277.18,101.39a1.41,1.41,0,0,0,.7.06H292c.5,0,.49,0,.48.59v4c0,.68,0,.61-.53.61H280.52c-1,0-2,0-2.94,0-.5,0-.52,0-.48.6a15.06,15.06,0,0,0,.34,2.59,4.64,4.64,0,0,0,3,3.59,8.45,8.45,0,0,0,2.72.43h8.69c.69,0,.6-.1.6.75,0,1.29,0,2.59,0,3.88,0,.39-.07.53-.42.53-3.48,0-6.95,0-10.42,0a9.88,9.88,0,0,1-4.67-1.11,11.06,11.06,0,0,1-5.61-8.11,27.26,27.26,0,0,1,.17-11.27c1-4.7,3.64-7.43,7.52-8.45a15.5,15.5,0,0,1,4-.5c3,0,5.92,0,8.88,0,.59,0,.54-.07.54.68V94c0,.68,0,.59-.54.59-2.83,0-5.67,0-8.5,0a8.35,8.35,0,0,0-2.22.29c-2.11.58-3.36,2.2-3.83,4.73A6,6,0,0,0,277.18,101.39Z"/><path class="cls-2" d="M232.15,119c-2,0-3.89,0-5.79,0-.32,0-.44-.17-.55-.49-.64-1.91-1.3-3.81-2-5.72a2.06,2.06,0,0,1-.12-.35.51.51,0,0,0-.56-.47H212.56c-.34,0-.48.16-.6.51-.64,2-1.3,3.92-2,5.88-.21.62-.21.62-.78.63H204c-.09-.34.09-.56.18-.8q4-10.67,8.05-21.31c.86-2.28,1.74-4.54,2.58-6.83.15-.42.34-.55.71-.55q2.46,0,4.92,0c.35,0,.52.12.67.52q5.41,14.27,10.85,28.52C232,118.64,232.08,118.75,232.15,119Z"/><path class="cls-2" d="M202.85,99.71v8.14a29.7,29.7,0,0,1-.24,3.77,7.6,7.6,0,0,1-2.5,4.95,9.89,9.89,0,0,1-4.87,2.37,19.54,19.54,0,0,1-8.2-.12,9.87,9.87,0,0,1-4.77-2.64,7.38,7.38,0,0,1-2.06-4.41,27.44,27.44,0,0,1-.24-3.63q0-9,0-17.9c0-.16,0-.31,0-.47s.09-.27.24-.27h4.73c.6,0,.55-.07.55.67v17.21a17.06,17.06,0,0,0,.22,2.77c.36,2.2,1.41,3.6,3.24,4.06a9.54,9.54,0,0,0,5.14,0,4.23,4.23,0,0,0,2.9-3.45,16.81,16.81,0,0,0,.33-3.68q0-8.3,0-16.59a4.87,4.87,0,0,0,0-.54c0-.31.09-.41.33-.4.49,0,1,0,1.47,0,1.09,0,2.18,0,3.27,0,.51,0,.48,0,.48.61Q202.84,94.9,202.85,99.71Z"/><path class="cls-3" d="M98,96.53c0,1.21,0,2.42-.06,3.64-.12,2.86-.26,5.72-.47,8.58-.08,1.23-.18,2.47-.27,3.7,0,.25,0,.56-.26.64s-.36-.22-.48-.42c-1.55-2.75-3.06-5.54-4.5-8.37-2.33-4.57-4.55-9.22-6.47-14.07a63.85,63.85,0,0,1-3-9.15,23.77,23.77,0,0,1-.68-7c.38-5.06,2.51-8.66,6.27-10.87a.28.28,0,0,1,.12,0c.54.2.66.47.5,1.22a25.26,25.26,0,0,0-.56,5.82,30.64,30.64,0,0,0,2.07,10.77,25.3,25.3,0,0,0,7,9.93A2,2,0,0,1,98,92.66C97.94,94,98.06,95.24,98,96.53Z"/><path class="cls-3" d="M129.16,79.59a19.06,19.06,0,0,1,2.19,6.59,14.62,14.62,0,0,1-2,9.58,21.19,21.19,0,0,1-3.48,4.18A72.65,72.65,0,0,1,117,107.3c-3.87,2.82-7.83,5.41-11.87,7.85-.22.13-.46.44-.7.19s0-.62.09-.91A209.05,209.05,0,0,1,113.12,95a1.94,1.94,0,0,1,.15-.24,1.27,1.27,0,0,1,.87-.57,18.63,18.63,0,0,0,8-4.88,25.48,25.48,0,0,0,5.46-8.4c.22-.53.39-1.09.6-1.62.11-.28.19-.68.59-.48l.16.26A2.17,2.17,0,0,0,129.16,79.59Z"/><path class="cls-4" d="M115.49,118.84h-8.57c-.25,0-.63.19-.73-.23s.29-.57.53-.76c3.79-3,7.7-5.9,11.64-8.68,5.7-4,11.46-7.94,17.26-11.75l.23-.15c.38-.23.38-.23.51.27a19.2,19.2,0,0,1,.45,6.59,17,17,0,0,1-6.26,12.13,11.25,11.25,0,0,1-7,2.56c-2.68,0-5.37,0-8.06,0Z"/><path class="cls-2" d="M297.3,104.15V90.45a5,5,0,0,0,0-.55c0-.29.07-.41.33-.41,1.72,0,3.45,0,5.17,0,.25,0,.36.11.33.41,0,.15,0,.31,0,.46v27.73c0,1,.09.87-.71.87-1.53,0-3.06,0-4.6,0-.51,0-.51,0-.51-.63C297.29,113.6,297.3,108.88,297.3,104.15Z"/><path class="cls-5" d="M67.62,100.85c.14,0,.24.08.35.15,6.69,4.49,13.34,9,19.83,13.94,1.3,1,2.58,2,3.87,3a2.75,2.75,0,0,1,.26.22.41.41,0,0,1,.13.47c-.06.18-.2.18-.32.18-.84,0-1.67,0-2.5,0-1.34,0-2.68,0-4,0a36.29,36.29,0,0,1-3.76.06,1,1,0,0,1-.7-.36c-.57-.57-1.17-1.11-1.76-1.65a73.8,73.8,0,0,1-7-8.1,28.94,28.94,0,0,1-3.14-4.84,19,19,0,0,1-1.32-2.44C67.46,101.24,67.33,101,67.62,100.85Z"/><path class="cls-6" d="M128.76,78.82a.35.35,0,0,0-.35.28c-.11.56-.47,1-.55,1.55a3.55,3.55,0,0,1-.43.95,26.76,26.76,0,0,1-2.92,5.12A22.66,22.66,0,0,1,121,90.64a14.34,14.34,0,0,1-2.25,1.59c-.66.37-1.28.81-1.94,1.16a11.73,11.73,0,0,1-2.8,1,3.45,3.45,0,0,0-.7.33,29.34,29.34,0,0,1,1.48-3c3.13-6,6.46-11.78,10.07-17.34.54-.83.42-.91,1.09-.07a31.12,31.12,0,0,1,2.55,3.77A1.34,1.34,0,0,1,128.76,78.82Z"/><path class="cls-7" d="M67.62,100.85c0,.1-.1.24-.08.29a10.38,10.38,0,0,0,1.25,2.27.88.88,0,0,1,.2.3,12.58,12.58,0,0,0,1.53,2.62,37.37,37.37,0,0,0,2.54,3.51c1.46,1.69,2.87,3.46,4.3,5.19a2.73,2.73,0,0,0,.7.66,4.27,4.27,0,0,1,1,1,14.83,14.83,0,0,0,2,1.88,1.08,1.08,0,0,0,.77.26h3.33a.91.91,0,0,1-.62.09H75.43a4.26,4.26,0,0,1-1-.08,50.74,50.74,0,0,1-6-7.36,66.77,66.77,0,0,1-4-6.56,35.09,35.09,0,0,1-2.53-5.36.7.7,0,0,0-.27-.41A12,12,0,0,1,62,97.07C63.91,98.35,65.82,99.48,67.62,100.85Z"/><path class="cls-8" d="M101.93,70.44a27.51,27.51,0,0,1,.87-4,28.87,28.87,0,0,1,1.5-4.34c.2-.45.45-.65.87-.54a19,19,0,0,1,5.22,1.69A12.49,12.49,0,0,1,116,71a1.64,1.64,0,0,1,0,.23c-.32.87-.52,1.78-.89,2.65a7,7,0,0,1-4.35,4.22,5.42,5.42,0,0,1-5.84-1.39,10.75,10.75,0,0,1-2.29-3.37,14.66,14.66,0,0,1-.54-2.38C102,70.77,102.05,70.57,101.93,70.44Z"/><path class="cls-9" d="M98,96.53c0-1.37,0-2.74,0-4.11a1.18,1.18,0,0,0-.45-1.08c-.53-.42-1-.91-1.53-1.37a26.61,26.61,0,0,1-2.41-2.76,21.06,21.06,0,0,1-2.47-3.91,36.88,36.88,0,0,1-1.67-4,24.34,24.34,0,0,1-.8-3.16c-.16-.74-.25-1.51-.39-2.26a5.69,5.69,0,0,1-.13-1.37c.06-1-.23-1.94-.12-2.92a33.67,33.67,0,0,1,.32-3.75c.13-.56.12-1.15.29-1.72a.79.79,0,0,0-.37-1,8.64,8.64,0,0,1,3.18-1.08c.12-.09.28,0,.41-.11l.24,0c.36-.16.39.17.42.45a2.29,2.29,0,0,1-.17.9,20.57,20.57,0,0,0-.84,5.6,35.84,35.84,0,0,0,.18,4.86,24.88,24.88,0,0,0,2.17,7.14,18.84,18.84,0,0,0,3,4.46,4.38,4.38,0,0,1,1.11,2c.16,2.32.12,4.64.11,7A11.11,11.11,0,0,1,98,96.53Z"/><path class="cls-3" d="M109.84,96.93a34.78,34.78,0,0,1-1.72,3.77q-2.93,6-6.19,11.74c-.15.27-.23.79-.63.62s-.22-.58-.24-.89c-.23-3-.44-6-.59-9-.13-2.76-.23-5.52-.25-8.28,0-.23,0-.47,0-.7.18-.17.36-.11.54,0a16.4,16.4,0,0,0,7.55,2,4.4,4.4,0,0,1,1.13.2C109.71,96.38,110,96.49,109.84,96.93Z"/><path class="cls-10" d="M85.16,126.7a22.84,22.84,0,0,1-5.38,3.44,4.92,4.92,0,0,1-1.24.32,6.62,6.62,0,0,1-4.6-1.2,14.86,14.86,0,0,1-4.18-4.48,20.22,20.22,0,0,1-1.54-2.86c.54,0,1-.08,1.49-.1l6.89-.28a1.06,1.06,0,0,1,.19,0,3.33,3.33,0,0,1,2.89.76,48.65,48.65,0,0,0,4.86,3.55C84.79,126,85.24,126.1,85.16,126.7Z"/><path class="cls-5" d="M114.82,128a18,18,0,0,1-2.26-1.58c-1.9-1.43-3.74-3-5.56-4.53-.2-.17-.59-.3-.43-.73s.45-.2.69-.19l14.54.6,5.68.23a1.51,1.51,0,0,1,.63.06c.06,1.07-.52,1.4-1.22,1.71a17.76,17.76,0,0,0-3.08,1.48.4.4,0,0,1-.17.09c-1.7.2-3.27,1-5,1.38-1.23.25-2.46.52-3.69.8C114.48,127.42,115,127.83,114.82,128Z"/><path class="cls-11" d="M61.62,99.13c.25-.18.35,0,.41.26a18,18,0,0,0,1.71,3.76c.26.47.41,1,.68,1.48.44.72.86,1.46,1.3,2.18a4.84,4.84,0,0,1,.38.71,4.22,4.22,0,0,0,.59,1.09,22.15,22.15,0,0,1,2,3c.38.63.87,1.11,1.25,1.74a12.88,12.88,0,0,0,1.49,2,30.39,30.39,0,0,0,2.34,2.58,1.53,1.53,0,0,1,.63.95,10.64,10.64,0,0,1-6-2c-3.79-2.67-6.12-6.62-6.88-11.88a20.6,20.6,0,0,1,0-5.32A2.18,2.18,0,0,1,61.62,99.13Z"/><path class="cls-12" d="M101.93,70.44c.09,0,.21-.11.23.09.06.54.24,1,.29,1.57a6,6,0,0,0,1.09,2.67,7.13,7.13,0,0,0,4.14,3.31,3.18,3.18,0,0,0,1.14.1,6.63,6.63,0,0,0,2.85-.65,13.44,13.44,0,0,0,1.6-1.24c1.09-.83,1.52-2.24,2.11-3.5a5.46,5.46,0,0,0,.23-1c0-.25.11-.5.38-.54h0c.1.13,0,.34.12.47h0c.13.18,0,.44.12.62a.22.22,0,0,1,0,.14c.11.19,0,.45.11.64a22.1,22.1,0,0,1-.14,5.39,2.42,2.42,0,0,1-.1.36c-.21-.6-.4-.53-.79-.14-2.43,2.5-5.19,3.51-8.37,2.64a9.63,9.63,0,0,1-5.68-4.49.52.52,0,0,0-.27-.2,21.53,21.53,0,0,1,.39-3.1c.13-.19,0-.45.12-.64l0-.29c.1-.14,0-.34.1-.48a.32.32,0,0,1,0-.14c.13-.19,0-.45.11-.64a.28.28,0,0,1,0-.13c.12-.14,0-.35.12-.5Z"/><path class="cls-13" d="M101,76.64c.14-.06.09-.28.21-.35A9.1,9.1,0,0,0,104.56,80c.2.14.43.23.62.38a5.94,5.94,0,0,0,2.42.87,5.83,5.83,0,0,0,1.32.18A8.26,8.26,0,0,0,113,80.37a8.46,8.46,0,0,0,2.36-1.94c.08-.09.15-.19.23-.27s.23-.34.43-.21.09.32.11.49,0,.26,0,.39a22.7,22.7,0,0,1-1,4.65.6.6,0,0,0-.72,0,13,13,0,0,1-5,1.56A5.49,5.49,0,0,1,108,85a12.52,12.52,0,0,1-6.54-3,3.16,3.16,0,0,1-.83-.94A33.17,33.17,0,0,1,101,76.64Z"/><path class="cls-14" d="M114.82,128c-.06-.34-.4-.46-.47-.83.24-.28.48,0,.72,0a6.31,6.31,0,0,1,2.31-.43.35.35,0,0,0,.24-.06c.61-.43,1.32-.33,2-.56a10.33,10.33,0,0,0,2.61-.89,1.36,1.36,0,0,1,.8-.19c.23,0,.49.07.69-.1a5.08,5.08,0,0,1,1.18-.66c.71-.32,1.42-.63,2.13-1a3.49,3.49,0,0,0,.58-.29c.48-.38.49-.37.14-1,.09-.19.28,0,.4-.17a16,16,0,0,1,1.83.07c.06.26-.09.41-.17.58a21.19,21.19,0,0,1-3.38,5,9.44,9.44,0,0,1-4.34,2.8,5.38,5.38,0,0,1-4-.33A17.5,17.5,0,0,1,114.82,128Z"/><path class="cls-15" d="M100.62,81a.45.45,0,0,1,.3.13,14.72,14.72,0,0,0,2.72,2.11,12,12,0,0,0,4.23,1.51,7.15,7.15,0,0,0,3.47-.24,8.67,8.67,0,0,0,3.22-1.37c.32-.24.41-.16.53.36a33.29,33.29,0,0,1-1.53,4.65,1.14,1.14,0,0,0-.93-.14,9.72,9.72,0,0,1-2.71.44,12.45,12.45,0,0,1-7.83-1.94,10.66,10.66,0,0,1-1.72-1.17,24.66,24.66,0,0,1,.14-3.1c.15-.4,0-.84.11-1.24Z"/><path class="cls-16" d="M100.37,85.32a4.27,4.27,0,0,1,1.68.89,10.09,10.09,0,0,0,3.06,1.45c.27.07.53.21.8.28a4.19,4.19,0,0,0,1.45.18,17.35,17.35,0,0,1,1.77.14,14.1,14.1,0,0,0,3.7-.55c.46-.14.52-.09.73.42-.41,1.32-1,2.56-1.45,3.82,0,.12-.07.3-.23.33a21.12,21.12,0,0,1-7.55-.49,16.86,16.86,0,0,1-4.08-2,8,8,0,0,1,0-1.55c.15-.88,0-1.78.1-2.66Z"/><path class="cls-17" d="M97.94,87.34a12.17,12.17,0,0,0-1.85-2.63,13.55,13.55,0,0,1-1.84-2.56c-.45-.84-.86-1.72-1.23-2.61A22.5,22.5,0,0,1,91.64,75a15.55,15.55,0,0,1-.35-3.35,3.81,3.81,0,0,0-.09-1.3.62.62,0,0,1,0-.38,5.11,5.11,0,0,0,.09-1.46,18.29,18.29,0,0,1,.9-5.48,2.15,2.15,0,0,0,.12-.83c0-.19-.14-.24-.27-.28a.85.85,0,0,1,.48-.15c1.24-.26,1.24-.26,1.73,1.22a1.68,1.68,0,0,1-.07,1A22.4,22.4,0,0,0,94,75.52a17.14,17.14,0,0,0,3.51,7.27c.27.31.11.68.25,1A26.64,26.64,0,0,1,97.94,87.34Z"/><path class="cls-18" d="M97.8,83.77a2.27,2.27,0,0,0-.66-1.08,13.64,13.64,0,0,1-1.47-2.3,21.62,21.62,0,0,1-2.17-6.54c-.17-1.28-.27-2.58-.32-3.89A24,24,0,0,1,94,63.78c.06-.28.14-.54.21-.81a18.38,18.38,0,0,1,1.23,3.62,70.8,70.8,0,0,1,1.83,10.49c.2,1.79.33,3.59.46,5.38A7.17,7.17,0,0,1,97.8,83.77Z"/><path class="cls-19" d="M100.25,89.82c.61,0,1.08.42,1.6.68a16.73,16.73,0,0,0,3.75,1.37,28.77,28.77,0,0,0,5.4.28c.3,0,.63-.27.88.13-.58,1.34-1,2.75-1.69,4-.1.21-.14.48-.35.6,0-.23-.11-.43-.31-.42-.43,0-.83-.2-1.26-.18A11,11,0,0,1,105,96a22.87,22.87,0,0,1-2.38-.79,6.09,6.09,0,0,1-2.12-1s-.16,0-.25,0C100.18,92.72,100.19,91.27,100.25,89.82Z"/><path class="cls-20" d="M85.16,126.7a4.82,4.82,0,0,0-.84-.75,4.85,4.85,0,0,1-1.53-1.08l-.21-.17a48.48,48.48,0,0,1-3.92-2.87,1.15,1.15,0,0,0-.72-.22l-1.15,0a1,1,0,0,1,.56-.09l13.72-.56c.1,0,.21,0,.31,0s.27,0,.31.22a.43.43,0,0,1-.11.41l-.26.24c-1.92,1.65-3.87,3.26-5.88,4.77C85.36,126.63,85.28,126.74,85.16,126.7Z"/><path class="cls-15" d="M100.36,85.61c0,.74,0,1.49,0,2.24a.56.56,0,0,1-.11.42A13.9,13.9,0,0,1,100.36,85.61Z"/><path class="cls-13" d="M100.62,81c0,.41.12.85-.11,1.24A3.24,3.24,0,0,1,100.62,81Z"/><path class="cls-6" d="M129.16,79.59a.45.45,0,0,1-.24-.51A.63.63,0,0,1,129.16,79.59Z"/><path class="cls-8" d="M101.52,72.9c0,.22.07.47-.12.64A1,1,0,0,1,101.52,72.9Z"/><path class="cls-8" d="M116.36,73.08c-.18-.18-.12-.42-.11-.64A1,1,0,0,1,116.36,73.08Z"/><path class="cls-8" d="M116.23,72.3c-.18-.16-.11-.4-.12-.62A.84.84,0,0,1,116.23,72.3Z"/><path class="cls-8" d="M101.77,71.35c0,.22.07.46-.11.64A.93.93,0,0,1,101.77,71.35Z"/><path class="cls-8" d="M101.64,72.13a.52.52,0,0,1-.1.48A.61.61,0,0,1,101.64,72.13Z"/><path class="cls-8" d="M116.11,71.68c-.15-.11-.13-.29-.12-.47A.6.6,0,0,1,116.11,71.68Z"/><path class="cls-8" d="M101.9,70.72c0,.19,0,.37-.12.5A.67.67,0,0,1,101.9,70.72Z"/><path class="cls-17" d="M91.8,61.94c-.11.17-.26.14-.41.11A.48.48,0,0,1,91.8,61.94Z"/><path class="cls-1" d="M217.78,95.4c1.35,3.81,2.64,7.49,4,11.24H214C215.23,102.92,216.48,99.24,217.78,95.4Z"/><path class="cls-21" d="M112.78,69.91c.29,2.58-2.1,5.09-4,4.72-1.65.29-3.75-2.16-3.65-4.44.13-3,1.68-4.78,3.87-4.82S113,67.54,112.78,69.91Z"/></g></g></svg>