<svg xmlns="http://www.w3.org/2000/svg" viewBox="0 0 376 193"><defs><style>.cls-1{fill:#282626;}.cls-2{fill:#fbfbfb;}.cls-3{fill:#fcfcfc;}.cls-4{fill:#fdfdfd;}.cls-5{fill:#f3f3f3;}</style></defs><title>infinix</title><g id="Layer_2" data-name="Layer 2"><g id="infinix"><rect class="cls-1" width="376" height="193"/><path class="cls-2" d="M98,105.11c0-3.55.13-7.12,0-10.67-.12-2.36.81-3.33,4-3.28,8.85.13,17.7-.06,26.55.09,7.12.13,11,3.17,11.26,8.89.24,5.07-.12,10.17.12,15.24.13,2.69-1.46,2.94-4.23,3-3.14.06-4.69-.44-4.49-3.3.29-4.06-.14-8.14.13-12.19.29-4.27-2.14-5.67-7.26-5.63-19.63.18-17.22-1.47-17.33,13.43a31.65,31.65,0,0,0,0,4.57c.35,2.52-1,3.2-4,3.11-2.79-.08-5,.06-4.76-3.09C98.24,111.9,98,108.5,98,105.11Z"/><path class="cls-2" d="M193.15,104.51c0-3.22.22-6.45-.07-9.65-.27-3,1.16-3.79,4.76-3.71,8.17.18,16.35,0,24.53.08,8.52.08,12.11,2.89,12.27,9.59.11,4.74-.17,9.49.09,14.22.16,2.8-1.25,3.29-4.44,3.36-3.62.08-4.27-1.07-4.13-3.57.22-4-.18-8.13.12-12.18s-2.07-5.41-6.83-5.38c-20.71.14-17.51-1.51-17.74,13.52a32.34,32.34,0,0,0,0,4.06c.27,2.4-.34,3.6-4,3.57s-4.85-.89-4.62-3.75C193.36,111.3,193.15,107.9,193.15,104.51Z"/><path class="cls-3" d="M299.71,117.7c-8,1.81-13.12,0-16.78-4.36-3.84-4.59-7.28-3.8-10.71.19-3.79,4.4-8.94,5.78-16.65,4.22,3.19-2.38,5.84-4.48,8.65-6.43s5.92-3.86,10.49-6.81L256.35,91.84c6.91-1.84,11.26.18,15.44,3.89,5.63,5,6.16,5,11.6.16,4.16-3.72,8.65-5.76,15.42-4.33-2.86,3.54-6.79,6.31-10.66,9-4.43,3-5.31,5.37-.11,8.49C292.06,111.43,295.45,114.48,299.71,117.7Z"/><path class="cls-3" d="M140.63,91.22c2.58,0,4.51-.11,6.4,0,2.43.18,3.16-.44,3.38-2.47.72-6.62,11.07-10.93,18.57-8,2.1.83,1.14,2.33,1.28,3.56s-.6,2-2.49,2.32c-3.23.55-9.22-2.17-9,2.73.2,3.75,5.53,1.38,8.48,1.67,3.29.33,2.9,1.85,3.05,3.54.17,2-.83,2.84-3.32,2.66-.85-.06-1.74.1-2.56,0-5.43-.83-6.43,1.34-6.11,5.08.36,4.22-.13,8.47.16,12.69.18,2.79-1.15,3.35-4.4,3.36s-4-.8-3.85-3.17c.21-4.91.13-9.82,0-14.73,0-1.15.89-2.59-1.69-3.25C144.15,96.13,144.22,96,140.63,91.22Z"/><path class="cls-4" d="M90.49,101.29c0,4.73-.19,9.47.07,14.19.15,2.78-1.65,2.87-4.29,2.87s-4.35-.07-4.29-2.87q.3-14.45,0-28.89c0-2.75,1.61-2.91,4.3-2.91s4.4.19,4.27,2.91C90.32,91.49,90.49,96.39,90.49,101.29Z"/><path class="cls-4" d="M177,104.27c0-3.2.16-6.41-.06-9.61-.17-2.54.75-3.53,4.23-3.55,3.64,0,4.18,1.21,4.13,3.64-.15,6.74-.2,13.49,0,20.23.08,2.64-.87,3.4-4.25,3.43-3.56,0-4.29-1-4.13-3.52C177.2,111.36,177,107.81,177,104.27Z"/><path class="cls-4" d="M250.78,105.12c0,3.2-.11,6.41,0,9.61.1,2.26,0,3.7-3.9,3.69s-4.55-1-4.46-3.78c.22-6.74.17-13.49,0-20.23,0-2.32.72-3.28,3.91-3.28s4.66.59,4.46,3.37C250.58,98,250.78,101.58,250.78,105.12Z"/><path class="cls-5" d="M181.17,80.76c2.7-.35,4.21,0,4.26,2.75,0,2.93-1.62,3.16-4.61,3.22-3.21.06-3.81-1-3.92-3.24C176.76,80.72,178.51,80.44,181.17,80.76Z"/><path class="cls-5" d="M247,86.62c-2.56.2-4.67.21-4.53-2.67.1-2.1.21-3.56,3.67-3.29,2.5.2,5.07-.4,4.82,2.9C250.74,85.88,250.09,87.1,247,86.62Z"/></g></g></svg>