<svg xmlns="http://www.w3.org/2000/svg" viewBox="0 0 193.51 229.45"><defs><style>.cls-1{fill:#222020;}.cls-2{fill:#da7800;}.cls-3{fill:#fe6d3a;}</style></defs><title>log-in</title><g id="Layer_2" data-name="Layer 2"><g id="log-in"><path class="cls-1" d="M13.53,229.45c-7.66-3-10.38-8.54-10.17-16.47.37-13.55.09-27.11.11-40.67,0-9.55,5.15-14.49,14.89-14.65,2.64,0,5.45.93,7.94-.78,1.39-.84,2.94-.64,4.45-.64,17.78.07,35.57,0,53.35,0,2.41,0,4.9-.3,7.08,1.14a4.8,4.8,0,0,1,1.38,3.66c0,8,.61,16-.33,24-.46,1.58-1.9,2.14-3.16,2.95-4.7,3-4.76,7.2-.15,10.18,1.25.81,2.73,1.31,3.26,2.9,1,8.37.4,16.77.37,25.15a4.76,4.76,0,0,1-1.3,3.22Z"/><path class="cls-1" d="M91.25,229.45l0-29.4c.1-.18.19-.37.28-.55.86-.82,2-1.28,2.85-2.09,3.51-3.31,2.73-6.66-2.4-10.21a2.18,2.18,0,0,1-.73-1V157.9l.6-.67c1.94-1.13,4.11-.94,6.22-.95q25.29,0,50.59,0c2.23,0,4.61-.35,6.48,1.4,3.19,0,6.38,0,9.57,0,7.69.06,14.11,5.81,14.21,13.37.21,15,.17,30.06,0,45.1-.06,6.61-4.81,10.18-10,13.27Z"/><path class="cls-2" d="M91.28,157.9l-59.69-.19c-1.8,0-3.66.29-5.29-.83-5.47-6.09-11-12.1-14.54-19.6,2.11-6.29,6.61-11,11-15.7A88.5,88.5,0,0,1,49.3,102.11c4.6-2.19,4.58-2.34,2.23-6.63C36.75,68.42,55,34.88,86.15,31.9c2-.19,3.88-.77,5.87-.87,1.55.37,4.1-.5,3.44,2.64-3,1.78-2.73,4.73-2.74,7.55q0,37.32,0,74.66c0,11.77,0,23.54,0,35.32,0,2.19.32,4.52-1.48,6.34Z"/><path class="cls-2" d="M91.21,157.54c0-39.92.08-79.85-.06-119.77C91.14,34,92.32,32.61,96,33c6.92-1.85,12.3,1.4,17.55,5.1a8.1,8.1,0,0,1,.84,3.87c1,11.6,6,21.06,15.58,28.05,1.69,1.23,3.58,2.27,4.75,4.1,2,7.78-.66,14.79-4.26,21.4-1.9,3.5-1,4.87,2.19,6.46a92.33,92.33,0,0,1,35.3,30.26c1.19,1.69,2.74,3.29,2.33,5.64-3.92,7.42-9.52,13.62-15.07,19.86Z"/><path class="cls-1" d="M91.23,32.13c-2.8,1.59-6,.63-8.92,1.23-29.13,6-43.78,38-28.71,63.14,2,3.33,1.46,4.29-2,5.85a87.8,87.8,0,0,0-35.29,28.83c-1.49,2-3,4.07-4.56,6.1C2.84,122.78-.7,106.86.11,90.19c1.13-23.09,10-43.12,27-59.43C44.88,13.67,66.2,4.91,91.19,5.05A2.82,2.82,0,0,1,92.31,6.9a133.54,133.54,0,0,1,0,23.32A3.52,3.52,0,0,1,91.23,32.13Z"/><path class="cls-3" d="M134.42,74.36C120.53,66.24,113,54.5,113.06,38.41a7.57,7.57,0,0,1-.75-5.63,43.57,43.57,0,0,1,8.68-19,7.9,7.9,0,0,1,4-2.8C133.17,4.05,142.36-.29,153.41,0a5.31,5.31,0,0,1,1.39,4.1c0,10.36.3,20.71-.15,31.05a5.05,5.05,0,0,1-.33,1.42c-1.43,2.38-2.84.68-4-.2-2.8-2.08-5.6-3.15-8.47-.31-2.44,2.41-1.95,5.62,1.26,9s6.53,6.55,10.8,8.64a4.48,4.48,0,0,1,.6,1.36c.3,7.78,1,15.56-.43,23.3a2.27,2.27,0,0,1-1.79,1.21C145.74,79.79,139.45,79.1,134.42,74.36Z"/><path class="cls-3" d="M153.43,36.57q0-18.27,0-36.54c18.21-.81,36,13.46,39.32,31.45C195.6,46.94,190.47,59.57,178.9,70c-6.21,7-14.38,9.51-23.5,9.74a2.32,2.32,0,0,1-1.93-1l-.07-24.85c6.07-4.05,11-9.32,16.14-14.37a16.1,16.1,0,0,0,2.65-3.06c1.7-2.84,1.44-6.7-.75-8.22-2.79-1.94-5.5-1.23-7.95.74-2.12,1.71-3.87,3.81-5.92,5.58C156.41,35.53,155.51,37.27,153.43,36.57Z"/><path class="cls-1" d="M153.47,78.7c9.69.51,17.79-3.44,25.43-8.7,5.76,22.73,3.86,44.65-7.24,65.58-.41.78-.94,1.5-1.42,2.25A90,90,0,0,0,130,102c-2.82-1.27-3.56-2.21-1.67-5.1a38.43,38.43,0,0,0,6.12-22.55C140.53,76.84,146.67,79.18,153.47,78.7Z"/><path class="cls-1" d="M125,11c-7.34,7.75-11.78,16.7-11.94,27.45C107.77,35.35,102.19,33.18,96,33c-1.43-1.08-3.17-.43-4.73-.82q0-13.55,0-27.08c10.06-.82,19.63,1.44,29.1,4.37C121.87,9.9,123.43,10.45,125,11Z"/><path class="cls-2" d="M32.46,186.42a6.71,6.71,0,1,1,0,13.42,6.71,6.71,0,1,1,0-13.42Z"/><path class="cls-2" d="M61.77,186.42a6.71,6.71,0,1,1-.07,13.42,6.71,6.71,0,1,1,.07-13.42Z"/><path class="cls-2" d="M91.28,200.05c-4.23-.6-7.16-2.76-7-7.14.11-4.14,3-6.17,7-6.7l-.07.36a14.06,14.06,0,0,1,0,13.12Z"/><path class="cls-2" d="M120.42,186.42a6.71,6.71,0,1,1-.33,13.42,6.71,6.71,0,1,1,.33-13.42Z"/><path class="cls-2" d="M156.25,193.17a6.69,6.69,0,0,1-6.55,6.67,6.71,6.71,0,1,1-.37-13.42A6.71,6.71,0,0,1,156.25,193.17Z"/><path class="cls-2" d="M91.22,199.69V186.57c4.22.09,6.31,2.44,6.57,6.34S95.77,199,91.22,199.69Z"/><path class="cls-1" d="M153.43,36.57c3-2.74,5.9-5.49,8.88-8.22,3.45-3.16,7.65-3.37,10.48-.55,2.61,2.62,2.61,7-.35,10-4.5,4.63-9.17,9.1-13.83,13.57a7.78,7.78,0,0,1-5.21,2.44v-.33a21.36,21.36,0,0,1-.1-16.32A3.34,3.34,0,0,1,153.43,36.57Z"/><path class="cls-1" d="M153.31,37.2q.06,8.16.1,16.32c-4.31-.56-13.36-8.43-14.22-12.44a6.26,6.26,0,0,1,2.65-6.64,6.35,6.35,0,0,1,7.63-.28A41.31,41.31,0,0,1,153.31,37.2Z"/></g></g></svg>