<svg xmlns="http://www.w3.org/2000/svg" viewBox="0 0 376 193"><defs><style>.cls-1{fill:#282626;}.cls-2{fill:#fcfcfc;}.cls-3{fill:#da7800;}.cls-4{fill:#fff;}</style></defs><title>motorola</title><g id="Layer_2" data-name="Layer 2"><g id="motorola"><rect class="cls-1" width="376" height="193"/><path class="cls-2" d="M74.11,140c1.34,0,2.68,0,4,0,.46,0,.47,0,.47.48,0,.31,0,.61,0,.92a1,1,0,0,0,.6-.22,16.78,16.78,0,0,1,11.89-1.11,7.52,7.52,0,0,1,3.63,2.23c.22.26.38.21.61,0a14.78,14.78,0,0,1,9.63-2.87,15,15,0,0,1,4.26.67,7.55,7.55,0,0,1,3.29,2,6.17,6.17,0,0,1,1.67,4.26c0,2.8,0,5.61,0,8.41V159c0,.56,0,.56-.53.56-1.07,0-2.14,0-3.22,0-.53,0-.54,0-.54-.55V147.24a6.74,6.74,0,0,0-.09-1.42,4,4,0,0,0-2.59-3,8.45,8.45,0,0,0-3.51-.58,12.52,12.52,0,0,0-7.18,2.49.71.71,0,0,0-.35.82,8.28,8.28,0,0,1,.08,1.41v11.94c0,.68.08.69-.65.68h-3c-.59,0-.59,0-.59-.63v-7.35c0-1.61,0-3.22,0-4.82a4.06,4.06,0,0,0-1.29-3.1,5.19,5.19,0,0,0-2.48-1.2,11.27,11.27,0,0,0-6.14.42,15,15,0,0,0-2.93,1.44,1,1,0,0,0-.56,1c0,3.36,0,6.72,0,10.08,0,1.21,0,2.43,0,3.65,0,.54,0,.55-.54.55l-4,0Z"/><path class="cls-2" d="M289.36,160.15c-.68-.13-1.37-.23-2.05-.38a10.82,10.82,0,0,1-4.41-2,5.92,5.92,0,0,1-2.25-3.23,4.94,4.94,0,0,1,1.25-4.84,8.75,8.75,0,0,1,4.16-2.3,19,19,0,0,1,5.25-.72h9c.47,0,.46,0,.44-.48a3.28,3.28,0,0,0-2.63-3.29,11.56,11.56,0,0,0-2.87-.34l-9.08,0c-.7,0-.69.08-.69-.65,0-.53,0-1.07,0-1.61,0-.26.1-.38.36-.36a.56.56,0,0,0,.13,0c3.4,0,6.79,0,10.19.05a12.27,12.27,0,0,1,5.59,1.36,6.86,6.86,0,0,1,2.18,1.79,5,5,0,0,1,1.12,2.68.46.46,0,0,0,.12.34v13.48s-.07.07-.1.07a19,19,0,0,1-4,.05c-.37,0-.39-.37-.41-.66,0-.53,0-1.06,0-1.57a.3.3,0,0,0-.32.08,12.09,12.09,0,0,1-7.29,2.46c-.12,0-.25,0-.35.07Z"/><path class="cls-2" d="M134.44,160.15a6.34,6.34,0,0,0-1.57-.23,18,18,0,0,1-6.71-2.34,10.45,10.45,0,0,1-3.44-3.24,7.83,7.83,0,0,1-.58-8,10.14,10.14,0,0,1,4-4.26,17.3,17.3,0,0,1,7.38-2.44A22.18,22.18,0,0,1,141,140a15.29,15.29,0,0,1,6.59,3.09,9,9,0,0,1,3.09,4.51,7.83,7.83,0,0,1-.06,4.62,9.68,9.68,0,0,1-4.33,5.27,17.45,17.45,0,0,1-6.82,2.43,8.2,8.2,0,0,0-1.7.24Z"/><path class="cls-2" d="M188,160.15a8.24,8.24,0,0,0-1.63-.25,17.64,17.64,0,0,1-6.6-2.31,10.51,10.51,0,0,1-3.37-3.13,7.84,7.84,0,0,1-.59-8.29A10.34,10.34,0,0,1,180,141.9a17.22,17.22,0,0,1,7.17-2.29,22.16,22.16,0,0,1,7.91.49,14.94,14.94,0,0,1,6.35,3.17,8.73,8.73,0,0,1,3.1,5.39,7.57,7.57,0,0,1-.4,3.88,9.83,9.83,0,0,1-4,4.77,17.22,17.22,0,0,1-7.07,2.59,8.24,8.24,0,0,0-1.63.25Z"/><path class="cls-2" d="M246.21,160.15a6.92,6.92,0,0,0-1.57-.23,17.88,17.88,0,0,1-6.61-2.28,10.48,10.48,0,0,1-3.57-3.34,7.86,7.86,0,0,1-1.27-5.7,8.65,8.65,0,0,1,2.53-4.82,13.88,13.88,0,0,1,6.64-3.62,21.58,21.58,0,0,1,12.53.44,13.2,13.2,0,0,1,5.62,3.57,8.24,8.24,0,0,1,2.27,5.58,8,8,0,0,1-2,5.37,13.15,13.15,0,0,1-5.91,3.89,19,19,0,0,1-4.88,1c-.12,0-.25,0-.34.11Z"/><path class="cls-1" d="M292.7,160.15a7.46,7.46,0,0,1,1.56-.25,13.49,13.49,0,0,0,5.39-2c.37-.25.72-.53,1.17-.88v1.24c0,.26,0,.53,0,.8,0,.55,0,.55.53.55h3.21c.21,0,.41,0,.62,0v.5Z"/><path class="cls-2" d="M164.13,149.28v5.93a1.61,1.61,0,0,0,1.56,1.85,18.28,18.28,0,0,0,3,.12c.93,0,.81-.15.82.81,0,.47,0,.95,0,1.42,0,.22-.07.34-.32.34a25.52,25.52,0,0,1-5.66-.23,6.12,6.12,0,0,1-2.11-.83,3.35,3.35,0,0,1-1.59-2.91c0-4.12,0-8.24,0-12.36,0-.86,0-.86-.9-.86h-3.34c-.53,0-.53,0-.53-.56s0-1,0-1.55,0-.46.49-.46h3.71c.56,0,.57,0,.57-.57v-6.86c0-.14,0-.29,0-.43s.1-.29.3-.28h3.4c.71,0,.65-.07.65.68v6.79c0,.73-.08.67.66.68,1.4,0,2.8,0,4.2,0,.47,0,.47,0,.48.47s0,1.07,0,1.61,0,.48-.48.49h-4.32c-.54,0-.54,0-.54.54Z"/><path class="cls-2" d="M216.21,142.36a.2.2,0,0,0,.27-.05,9.34,9.34,0,0,1,4.73-2.27,18.46,18.46,0,0,1,5.84-.3,14.35,14.35,0,0,1,2.52.56c.39.11.4.15.21.51-.36.69-.76,1.36-1.11,2.06-.15.3-.35.2-.57.15a14.28,14.28,0,0,0-3.73-.41,11.4,11.4,0,0,0-6.31,2,6,6,0,0,0-1.34,1.36,2.58,2.58,0,0,0-.51,1.61c0,3.75,0,7.5,0,11.25,0,.85,0,.75-.78.75h-3c-.58,0-.58,0-.58-.56,0-.37,0-.74,0-1.11V140.59c0-.66,0-.6.6-.6,1.11,0,2.22,0,3.33,0,.44,0,.45,0,.46.45C216.22,141.09,216.21,141.74,216.21,142.36Z"/><path class="cls-2" d="M269.69,145.75V132.53c0-.75-.05-.67.65-.67h3.28c.32,0,.45.1.41.42,0,.1,0,.21,0,.31V158.9c0,.82.08.73-.72.73h-3.15c-.46,0-.47,0-.47-.48,0-1.62,0-3.25,0-4.88Z"/><path class="cls-1" d="M295.31,149.49h5c.5,0,.48,0,.51.52a6.3,6.3,0,0,1-3.24,5.79,10.89,10.89,0,0,1-7,1.67,10.06,10.06,0,0,1-3.06-.68,4.89,4.89,0,0,1-2.21-1.71,3.16,3.16,0,0,1,1-4.55,7.47,7.47,0,0,1,3-.9,50.44,50.44,0,0,1,5.5-.14Z"/><path class="cls-1" d="M136.31,157.49a13.36,13.36,0,0,1-6.49-1.46,7.52,7.52,0,0,1-3.52-3.67,6.21,6.21,0,0,1,.28-5.64,8,8,0,0,1,4.09-3.51,14.47,14.47,0,0,1,7.56-.91,11.6,11.6,0,0,1,4.71,1.58,7.09,7.09,0,0,1,3.34,4.1,6.23,6.23,0,0,1-1,5.67,9.35,9.35,0,0,1-5.38,3.38A14.28,14.28,0,0,1,136.31,157.49Z"/><path class="cls-1" d="M189.71,157.49a13.23,13.23,0,0,1-6.16-1.38,7.28,7.28,0,0,1-4-4.57A6.19,6.19,0,0,1,180,147a8.19,8.19,0,0,1,4.55-3.95,14.2,14.2,0,0,1,5.88-.9,13.22,13.22,0,0,1,5,1.13,8.2,8.2,0,0,1,3.29,2.53,6.28,6.28,0,0,1,.85,6.52,7.62,7.62,0,0,1-4.07,3.94A13.57,13.57,0,0,1,189.71,157.49Z"/><path class="cls-1" d="M247.85,157.51a13.49,13.49,0,0,1-6.2-1.45,7.69,7.69,0,0,1-3.42-3.35,6.2,6.2,0,0,1,.23-6.19,8,8,0,0,1,3.95-3.3,14.4,14.4,0,0,1,7.57-.92,11.58,11.58,0,0,1,4.87,1.66,7,7,0,0,1,3.38,4.72,6.33,6.33,0,0,1-.38,3.57,7.25,7.25,0,0,1-2.88,3.36,12.19,12.19,0,0,1-5.52,1.81C248.92,157.47,248.38,157.48,247.85,157.51Z"/><circle class="cls-3" cx="189" cy="76" r="51"/><path class="cls-4" d="M225.48,96.47h-3.57c-.24,0-.3-.14-.37-.33-.3-.81-.6-1.61-.92-2.41a43.36,43.36,0,0,0-4.23-8.14,16.74,16.74,0,0,0-4.24-4.52,13.46,13.46,0,0,0-5.8-2.31,12.48,12.48,0,0,0-6,.48,15.22,15.22,0,0,0-4,2.21,25.39,25.39,0,0,0-5.79,6.35c-.62.92-1.25,1.83-1.88,2.75a.52.52,0,0,1-.31.26c-.44-.67-.88-1.36-1.34-2a41.71,41.71,0,0,0-3.14-4.2,17.54,17.54,0,0,0-7.77-5.48,12.37,12.37,0,0,0-6.53-.16,13.83,13.83,0,0,0-8.1,5.28,37.13,37.13,0,0,0-4.32,7.38,44.11,44.11,0,0,0-1.72,4.29c-.2.57-.2.58-.83.58h-3.16a3.31,3.31,0,0,1,.43-1.25c1.35-3.06,2.72-6.12,4.08-9.18q1.65-3.72,3.28-7.44c1.12-2.52,2.23-5,3.34-7.55l3.35-7.55c1.11-2.52,2.23-5,3.34-7.55.86-2,1.71-3.92,2.57-5.87a1.48,1.48,0,0,1,.35-.6c.24.18.28.47.39.72.78,1.79,1.57,3.57,2.35,5.36l3.39,7.73c1.1,2.52,2.2,5,3.31,7.57S183.86,76,185,78.54s2.13,4.85,3.19,7.28c0,.07,0,.16.09.23s.23.18.34,0a1.71,1.71,0,0,0,.17-.33q1.44-3.27,2.87-6.54L195,71.55l3.33-7.62c1.11-2.56,2.24-5.12,3.35-7.68,1-2.2,1.92-4.41,2.88-6.61,0-.06.05-.11.12-.13s.11.05.14.1C205,49.92,225.34,96,225.48,96.47Z"/></g></g></svg>