<svg xmlns="http://www.w3.org/2000/svg" viewBox="0 0 376 193"><defs><style>.cls-1{fill:#282626;}.cls-2{fill:#fefefe;}.cls-3{fill:#222020;}</style></defs><title>oppo</title><g id="Layer_2" data-name="Layer 2"><g id="oppo"><rect class="cls-1" width="376" height="193"/><path class="cls-2" d="M196.22,108.12c0,4.75,0,9.34,0,13.93,0,1.22-.23,1.55-1.13,1.51-2.08-.09-4.16-.08-6.24,0-.81,0-1.09-.23-1.09-1.41q0-19.37,0-38.74c0-1.09.26-1.35,1-1.33,2.16.06,4.33.08,6.48,0,.88,0,1.06.38,1.05,1.47,0,5.46,0,10.92,0,16.37a3.6,3.6,0,0,0,1,2.86,15.59,15.59,0,0,0,8.53,4.38A19.41,19.41,0,0,0,219,105.33a12.23,12.23,0,0,0,4.32-3.7,8.39,8.39,0,0,0,0-10.31,14.53,14.53,0,0,0-8.69-5.38A20.6,20.6,0,0,0,201,87.29c0-1.28,0-2.43,0-3.58,0-.71.36-.77.69-.86,9.1-2.59,18-2.36,26.62,3.06a15.82,15.82,0,0,1,4.46,4.31,11.06,11.06,0,0,1,0,13,18,18,0,0,1-8.66,6.61c-9.19,3.52-18.31,3.33-27.27-1.46C196.71,108.31,196.56,108.26,196.22,108.12Z"/><path class="cls-2" d="M137.4,102.74c0-6.38,0-12.75,0-19.12,0-1.19.19-1.59,1.11-1.55,2.12.1,4.24.09,6.36,0,.85,0,1.08.32,1.07,1.44,0,5.51,0,11,0,16.53a3.38,3.38,0,0,0,.93,2.6,15.39,15.39,0,0,0,8.73,4.51,19.25,19.25,0,0,0,13.53-2.08,12,12,0,0,0,4.05-3.66,8.4,8.4,0,0,0,0-10A14.13,14.13,0,0,0,164.46,86a19.15,19.15,0,0,0-12.56,1c-.69.3-.89.16-.85-.85.12-3.61-.59-3,2.26-3.7,7.76-2,15.43-1.53,22.88,2.35a17.2,17.2,0,0,1,6.23,5.33,10.94,10.94,0,0,1,.09,13.11,19.42,19.42,0,0,1-10.86,7.41c-8.47,2.59-16.82,2.18-25-2.26-.86-.47-.81,0-.81.86,0,4.32,0,8.64,0,13,0,1.15-.24,1.46-1.07,1.43q-3.24-.12-6.48,0c-.81,0-1-.35-1-1.38C137.42,115.7,137.4,109.22,137.4,102.74Z"/><path class="cls-2" d="M111.07,112.15A29.84,29.84,0,0,1,95.69,108a17,17,0,0,1-5.13-4.7,11,11,0,0,1,0-13.24,17.59,17.59,0,0,1,7.91-6.15c9.37-3.86,18.66-3.71,27.83,1.15a16.34,16.34,0,0,1,5.76,5.14,11,11,0,0,1,0,13c-2.94,4.13-6.76,6-10.75,7.37A32.35,32.35,0,0,1,111.07,112.15Z"/><path class="cls-2" d="M260.43,112.15c-5.45-.14-11.07-1.22-16.29-4.8a16.49,16.49,0,0,1-4.15-4.07,11,11,0,0,1,0-13.23,19,19,0,0,1,9.4-6.77,31.65,31.65,0,0,1,25,1.07,17.61,17.61,0,0,1,6.66,5.29,11.06,11.06,0,0,1,0,14c-2.88,3.76-6.51,5.56-10.3,6.86A33.22,33.22,0,0,1,260.43,112.15Z"/><path class="cls-3" d="M109,107.58a18.86,18.86,0,0,1-10.55-3.17,11.78,11.78,0,0,1-3-3,8.41,8.41,0,0,1,.07-10.08,13.79,13.79,0,0,1,7.84-5.19A19.31,19.31,0,0,1,118.87,88a11.79,11.79,0,0,1,3.59,3.18,8.48,8.48,0,0,1,0,10.56,14.15,14.15,0,0,1-7.31,4.92A21,21,0,0,1,109,107.58Z"/><path class="cls-3" d="M258.54,107.59a18.67,18.67,0,0,1-11.14-3.53,11.59,11.59,0,0,1-2.79-3,8.32,8.32,0,0,1,0-9.12,12.26,12.26,0,0,1,5.73-4.81,19.6,19.6,0,0,1,16.95.27,12.38,12.38,0,0,1,4.59,3.72,8.46,8.46,0,0,1-.06,10.77,14.81,14.81,0,0,1-8.41,5.1A22.53,22.53,0,0,1,258.54,107.59Z"/></g></g></svg>