<svg xmlns="http://www.w3.org/2000/svg" viewBox="0 0 188.57 196.13"><defs><style>.cls-1{fill:#da7800;}.cls-2{fill:#b55610;}.cls-3{fill:#f4a130;}.cls-4{fill:#ef912e;}.cls-5{fill:#f8ac31;}.cls-6{fill:#02314e;}.cls-7{fill:#bd6315;}.cls-8{fill:#c5701a;}.cls-9{fill:#222020;}.cls-10{fill:#02324e;}.cls-11{fill:#01273d;}</style></defs><title>price</title><g id="Layer_2" data-name="Layer 2"><g id="price"><path class="cls-1" d="M188.42,71.18v62.48a2.34,2.34,0,0,1-1.4.86c-9.06.42-18.13,1.34-27.13-.56-1.46-.76-2.08-2.2-2.82-3.55-2.29-4.19-5.66-6.88-10.49-7.52-2-.37-2.81-1.68-2.93-3.56a53.41,53.41,0,0,1,0-8c.33-3.64,2.62-4.71,5.87-2.91,1.8,1,2.68,2.82,4,4.29a2.39,2.39,0,0,0,3,.74c1.38-.73.8-2,.39-3a11.4,11.4,0,0,0-8.21-7.21c-3.3-.73-5.43-2-5.18-5.8.1-1.48-.33-2.93-2.24-2.92s-2.19,1.54-2.14,3c.1,3.18-1.33,4.72-4.45,5.56-6.43,1.72-9.9,6.17-9.9,12s3.48,10.09,9.82,12.08c4.86,1.52,5.59,3.64,2.52,7.32-4.7,1.19-9.45.23-14.17.42-9.34.37-18.69.14-28,.1a6.87,6.87,0,0,1-4.38-1.09,6.5,6.5,0,0,1-1.16-4.37c0-16.52-.19-33,.07-49.54,0-3-.15-6.06,0-9.09.09-1.93.18-3.91,2.14-5.07,2.79-.6,5.6-.14,8.4-.15q38.78-.06,77.55,0c1.69,0,3.38,0,5.06,0C186.16,65.79,188.54,67.14,188.42,71.18Z"/><path class="cls-1" d="M159.14,132.8c5.91,1.68,12,.57,17.94.82,3.78.16,7.56,0,11.34,0,.05,15.46.26,30.92.07,46.37a16.31,16.31,0,0,1-16,16c-21.92.2-43.85.08-65.78,0-4.62,0-8.29-3.1-12.62-4.09-3.66-5.43-4.91-11.4-4.75-17.94.29-11.5,0-23,.11-34.52,0-2.05-.43-4.22,1.32-5.9l47,0a1.62,1.62,0,0,1,.8.93c.49,2.73,1.6,6.09-1.18,7.71-3.11,1.82-5.43-.74-7.23-3.24a7.59,7.59,0,0,0-1.29-1.64,2.4,2.4,0,0,0-2.73-.43c-1.17.6-.9,1.67-.57,2.58a11,11,0,0,0,7.92,7.45c3.57.86,5.94,2.22,5.65,6.35a2.11,2.11,0,0,0,2.16,2.54c1.69,0,2-1.19,2.17-2.53.22-2.34-.09-5,3.15-5.6,7.25-1.68,10-4.64,11.3-12C158.13,134.7,158.08,133.53,159.14,132.8Z"/><path class="cls-1" d="M188.42,71.18c-.65-3.72-3.15-4.25-6.46-4.24-28.36.09-56.72,0-85.08,0-1.81,0-3.66.23-5.31-.85-1.74-3.15.35-5.69,1.55-8.21,2.25-4.73,5.86-8.55,9.47-12.28C110,38,117.92,30.82,124.66,22.39c-7.86,2.59-15.81,4.8-23.78,6.94-6.64,1.79-11.69,5.91-16.65,10.3-5.66,2.6-8.15,1.74-11.2-3.83C81.89,26,91.53,18,106,18.73c8,.38,16-.29,24-.55a12.4,12.4,0,0,0,3.68-.67c6.75-2.36,12.66-.93,17.89,3.79.49.89,0,1.59-.46,2.29-2.87,3.15-6,5.34-10.69,4.15-3.06-.77-5.15,1-6,3.91s.78,4.85,3,6.28c2.55,1.61,4.8.53,6.27-1.53,2.36-3.33,6-5,8.82-7.76,1.27-.87,2.06-2.68,4.06-2.12,8.07,8.4,16.22,16.71,24.16,25.23A27.9,27.9,0,0,1,188.42,71.18Z"/><path class="cls-2" d="M90.59,139.58c0,12.07.18,24.13,0,36.2-.06,5.2.75,10,3.91,14.26.69.92,1.22,1.63-.44,1.94-6.51-1.93-12-6-17.85-9.14-13.9-7.53-27.41-15.8-41.17-23.6-4.64-2.63-7.91-6.14-9.43-11.26-2.56-3.33-2-7-.4-10.3a156.7,156.7,0,0,1,14.19-24.05c3-2,5.62-.7,8.23.83,10,5.81,19.83,11.76,29.78,17.58C81.82,134.58,86.61,136.37,90.59,139.58Z"/><path class="cls-3" d="M14,94.86q15.16-16,31.21-31.22c2.29-1.33,3.66.54,5.19,1.58C54.51,68,57.88,72,62.89,73.54c.7,1.69-.3,3-1,4.29-6.09,10.7-12.4,21.26-18.49,32a7.2,7.2,0,0,1-3.06,3.35,6.5,6.5,0,0,1-6.34-1.2C27.6,107.1,21.42,102,15.2,97A3.1,3.1,0,0,1,14,94.86Z"/><path class="cls-4" d="M14,94.86,32.9,110c2.12,1.69,4.36,3,7.24,2.59a1.12,1.12,0,0,1-.11,1.64c-4.48,7.58-9,15.12-13.39,22.77-1.94,3.42-1.9,7.21-1,11-7-6.92-14-13.73-20.86-20.8a16.65,16.65,0,0,1-.44-22.93C7.34,100.93,10.75,98,14,94.86Z"/><path class="cls-5" d="M62.83,73.74c-4.53.88-6.53-3.11-9.61-5-2.7-1.67-4.61-4.57-8-5.09Q58.68,49.29,73,35.8a8.85,8.85,0,0,1,1.88,1.53c2.43,3.52,5.55,3.27,9,1.8.85,1.93-.47,3.31-1.44,4.55C76.35,51.49,72.23,60.48,67,68.77,65.69,70.51,65.35,73,62.83,73.74Z"/><path class="cls-6" d="M156.5,26.52l-3.33,2.65c-1.47-1.79-1.38-4.27-2.74-6.11l1.07-1.76c5-5,7.49-11.28,9.3-17.92A4.43,4.43,0,0,1,167.35.6c1.49.81.64,1.89.43,2.9C166,12.15,162,19.68,156.5,26.52Z"/><path class="cls-7" d="M62.83,73.74l3.39-5.06a3.32,3.32,0,0,1,3.93-.6c6.91,3.7,14.25,6.64,20.45,11.59q.09,27,.19,54c-.07,2-.14,4-.2,6-4.7-.79-8.41-3.79-12.39-6-10.41-5.76-20.51-12.08-30.78-18.11-2.25-1.33-4.55-3.07-7.39-1.24,0-.55.08-1.09.11-1.64C48.16,99.91,55.55,86.86,62.83,73.74Z"/><path class="cls-8" d="M90.6,79.67c-6.28-2.34-11.83-6.1-17.73-9.18-2.19-1.14-4.21-2-6.65-1.81a200.41,200.41,0,0,1,16-26.63,24.92,24.92,0,0,0,1.6-2.92C89.45,32.32,97,29.06,105.32,27c7.29-1.78,14.43-4.17,22.68-6.59-3.66,4.09-6.59,7.48-9.64,10.76C111.6,38.46,104,45,97.75,52.7c-3.22,4-5.63,8.26-6.18,13.44C89.71,70.54,91.22,75.18,90.6,79.67Z"/><path class="cls-9" d="M147.25,148.62c-3.1-.12-2.56,2.08-2.58,4,0,2.23.86,4.65-3.23,4.66-3.79,0-3.78-1.93-3.46-4.42.36-2.88-.51-3.93-3.63-4.41a12.27,12.27,0,0,1-10.14-9c-.41-1.3-1.75-3.45.33-3.84,1.83-.33,4.74-1.88,6,1.56a8.76,8.76,0,0,0,1.71,2.84c1.28,1.39,3,2.55,4.84,1.92s.69-2.68.85-4.07a28.13,28.13,0,0,0-.1-4.2c.51-3,.42-4.91-3.69-5.51-6.5-.95-10.65-6.8-10.58-13.28.07-6.28,4.26-11.92,10.62-12.82,3.75-.53,4.18-2.17,3.79-5.1-.32-2.48.21-3.83,3.28-3.74,2.72.07,3.9.75,3.48,3.55-.46,3.09.1,4.92,4,5.34,4.41.49,7.58,3.6,9.28,7.74.64,1.57,2.54,4.1.07,5-1.85.67-5.39,2-6.26-2.27a5,5,0,0,0-2.65-3.16c-1.22-.69-2.64-1.54-4-.78-1,.6-.46,2.06-.48,3.13-.07,2.53.15,5.08-.08,7.58-.19,2.17.85,2.68,2.62,2.72,2.62,1.73,2.06,4.07,1.26,6.46a9.53,9.53,0,0,0,0,13.66C149.32,144.55,149.9,146.9,147.25,148.62Z"/><path class="cls-10" d="M148,128.78c-.09-2.27.59-4.62-.75-6.75,6.53.75,9.93,5,11.88,10.77-.26,9.81-3.5,14.13-11.89,15.82,1.36-2.12.66-4.48.76-6.75-.07-1,.67-1.46,1.17-2.1,2.73-3.45,2.72-5.41,0-8.88C148.66,130.24,147.93,129.74,148,128.78Z"/><path class="cls-11" d="M150.43,23.06c4.06.63,2.24,3.89,2.74,6.11-2.83,3.15-6.81,4.95-9.29,8.7-1.75,2.62-5.16,2.53-7.94.67a6.24,6.24,0,0,1-2.72-7.65c1.06-3.09,3.75-5.56,6.66-4.34C144.89,28.64,147.3,25.3,150.43,23.06Z"/><path class="cls-1" d="M137.94,115.13a12.36,12.36,0,0,1,0,2.51c-.28,1.37,1,3.4-.89,4s-3.52-.57-4.83-1.92a6.29,6.29,0,0,1-1.33-7.33c1.08-2.53,3.22-4.4,5.84-3.88s.77,3.24,1.22,4.93A6.64,6.64,0,0,1,137.94,115.13Z"/><path class="cls-1" d="M148,128.78c6,4.34,6,8.77,0,13.09-2.39.6-3.67.1-3.37-2.78a37,37,0,0,0,0-7.51C144.33,128.68,145.64,128.21,148,128.78Z"/></g></g></svg>