<svg xmlns="http://www.w3.org/2000/svg" viewBox="0 0 213.19 153.65"><defs><style>.cls-1{fill:#da7800;}.cls-2{fill:#fe6d3a;}.cls-3{fill:#222020;}</style></defs><title>ram</title><g id="Layer_2" data-name="Layer 2"><g id="ram"><path class="cls-1" d="M78.67,25.37a173,173,0,0,0,17.93,0,5.5,5.5,0,0,1,3.25-1.07q6.77-.14,13.53,0a5.5,5.5,0,0,1,3.25,1.07,170.21,170.21,0,0,0,17.93,0c1.26-1.06,2.78-1.08,4.29-1.1,3.59,0,7.17,0,10.76,0,4-.05,4.23-.3,4.28-4.55,0-2.63,0-5.26,0-7.88,0-1.41-.06-2.91,1.18-4,.7,4.79.28,9.61.27,14.41,0,2.42.53,3.45,3.09,3.33,4.89-.23,9.79-.17,14.69-.22,2.06-1.61,4.46-1,6.74-1.1,2.91-.09,5.81-.05,8.72,0,2.2,0,3.14-1,3.14-3.25,0-4,0-7.92,0-11.88,0-1.64-.22-3.4,1.11-4.74,1.16,5.45.3,11,.48,16.45.16,4.7,0,4.7,4.42,4.71,1.17,0,2.33.07,3.49,0,5-.39,9,1.31,11.91,5.66v77.44a9.74,9.74,0,0,1-7.77,6.47,31.54,31.54,0,0,1-6.28.48H13.43c-3,0-6.07-.12-8.94-1.39-2.13-.94-3.86-2.26-4.34-4.79,0-25.31,0-50.61-.15-75.91,0-3.8,3.43-6.8,6.77-7.55,3.12-.71,6.29-.44,9.42-.34,2.27.07,3-.66,3-3,0-5.87-.56-11.77.35-17.63,1.35,1.15,1.17,2.79,1.21,4.31.08,3.71.13,7.42,0,11.12-.11,3,1.13,4,3.92,3.93,3.81-.13,7.64-.06,11.46,0a5.66,5.66,0,0,1,3.94,1.1c5.13.05,10.27.05,15.4.19,1.89.06,2.32-.8,2.36-2.58.1-5-.44-10.1.29-15.13,1.66,1.64,1,3.78,1.21,5.75.29,3.29-1.34,7.42.84,9.69,2.32,2.43,6.4.63,9.7,1C72.81,24.55,75.91,23.5,78.67,25.37Z"/><path class="cls-1" d="M.15,109.4c2.87,3.9,6.88,5,11.37,5H174.83c8.18,0,16.37-.24,24.53.08,5.64.22,10.2-1.45,13.83-5.87v14.48c-4,5-9.49,5.44-15.22,5-1.49-.1-3,0-4.49,0a3.5,3.5,0,0,1-2.52,1.06q-7.64.27-15.28,0a4.37,4.37,0,0,1-2.56-1l-17.82.05a6.52,6.52,0,0,1-3.63,1c-4.52.05-9,.06-13.55,0a5.65,5.65,0,0,1-3.6-1.08l-17.85,0a5.19,5.19,0,0,1-3.28,1c-5.61-.36-11.32,1.15-16.83-1l-17.85,0a5.28,5.28,0,0,1-3.26,1.06q-7.11.13-14.23,0a6.26,6.26,0,0,1-3.29-1l-17.82-.05a4.72,4.72,0,0,1-2.91,1q-7.64.19-15.28,0a3.88,3.88,0,0,1-2.87-1.09c-3.25,0-6.49,0-9.74-.06C3.19,128,0,124.6,0,118.37.05,115.38.12,112.39.15,109.4Z"/><path class="cls-2" d="M19.05,128.17l21.06.06c0,6.13,0,12.26,0,18.39,0,4.51-1.6,6.37-6,6.69a61.9,61.9,0,0,1-8.72,0c-3.81-.26-6.11-2.83-6.17-6.74C19.09,140.43,19.09,134.3,19.05,128.17Z"/><path class="cls-2" d="M78.67,25.37c-5.72,0-11.44-.11-17.15.09-2.68.1-3.4-.87-3.32-3.52.15-4.69,0-9.38-.08-14.08C57.86,2.27,59.5.35,64.83.22a74.53,74.53,0,0,1,8,.09c3.61.3,5.78,2.89,5.8,6.62C78.7,13.08,78.67,19.22,78.67,25.37Z"/><path class="cls-2" d="M57.93,128.28l20.78,0c0,6.27-.11,12.54,0,18.8a5.53,5.53,0,0,1-4.53,5.9,28.48,28.48,0,0,1-11.81.05c-3.06-.57-4.47-2.58-4.42-5.9C58.05,140.82,58,134.55,57.93,128.28Z"/><path class="cls-2" d="M155.11,7.86c-.05,4.7-.23,9.39-.08,14.08.08,2.65-.64,3.62-3.32,3.52-5.71-.2-11.43-.08-17.15-.09,0-6.15.26-12.3-.1-18.42-.25-4.2,2.69-6.36,6.13-6.67a63.42,63.42,0,0,1,8-.05C153.15.38,155.34,3,155.11,7.86Z"/><path class="cls-2" d="M134.52,128.24l20.78,0c0,6.15-.18,12.3,0,18.43.1,3.19-1.46,5.26-3.92,6a23.14,23.14,0,0,1-13.09,0c-2.48-.71-3.89-2.59-3.8-5.67C134.68,140.78,134.53,134.51,134.52,128.24Z"/><path class="cls-2" d="M40.07,25.38c-5.6,0-11.21-.16-16.8.09-3,.14-3.73-1-3.65-3.93.16-5.53,0-11.07-.08-16.61.18-2.62,2.24-3.8,4.1-4.22A27,27,0,0,1,36.1.75c2.88.7,4.07,2.74,4,5.85C40,12.85,40.07,19.12,40.07,25.38Z"/><path class="cls-2" d="M173.12,128.23l20.36-.06c0,6,0,12.06-.13,18.09-.07,5.07-1.84,7-6.79,7.07-3,0-6,.35-9.07-.32s-4.34-2.53-4.34-5.6Q173.15,137.83,173.12,128.23Z"/><path class="cls-2" d="M116.63,25.34h-20c0-6.27,0-12.53,0-18.8,0-4.09,1.43-5.87,5.27-6.21A40.34,40.34,0,0,1,112,.46c3.12.52,4.64,2.42,4.62,5.72C116.6,12.57,116.63,19,116.63,25.34Z"/><path class="cls-2" d="M96.56,128.27h20.11c0,6.26-.1,12.52,0,18.78,0,3.63-1.56,5.75-5,6.13a41.93,41.93,0,0,1-10.44-.07c-3.21-.45-4.61-2.47-4.61-5.7Q96.6,137.84,96.56,128.27Z"/><path class="cls-2" d="M192.89,4.39c0,6-.12,12,0,18,.05,2.37-.74,3.13-3,3.07-5.57-.14-11.14-.05-16.72-.06,0-6.27.06-12.53,0-18.8-.06-3.64,1.55-5.77,5-6.16a38.7,38.7,0,0,1,10.8.13C191.09.92,192.56,2,192.89,4.39Z"/><path class="cls-3" d="M27.5,87.67c0-11,0-21.92-.14-32.88,0-3.47,2.34-4.4,4.81-5.2a10.49,10.49,0,0,1,3.13-.14H177.45a13.89,13.89,0,0,1,3.48.15c2.76.71,4.91,2.21,4.9,5.53,0,10.84-.06,21.67-.1,32.51-1.5,2.64-3.88,3.69-6.7,3.94-1.28.12-2.57.12-3.85.12H37.26C33.51,91.69,29.65,91.86,27.5,87.67Z"/><path class="cls-3" d="M27.5,87.67c3.15,2.8,6.89,2.92,10.83,2.91q67.25-.1,134.51,0c4.52,0,9.1.44,12.89-2.91,0,3.49.11,7,.11,10.47a5.85,5.85,0,0,1-5.4,6.09c-.93.08-1.87,0-2.8,0H35.18c-6.54,0-7.81-1.29-7.79-7.91C27.39,93.44,27.46,90.56,27.5,87.67Z"/><path class="cls-2" d="M125.67,79.39c2.24-4.08,2.56-8.4,3.21-12.59.5-3.18,2.69-1.92,4.31-2.15,2-.27,2.23,1,2.22,2.69,0,6.27,0,12.54,0,18.81,0,1.31.26,2.8-1.76,2.77s-2.56-1-2.48-3a57,57,0,0,0-.51-10.81c-.58,3.63-1.14,7.27-1.74,10.9-.26,1.59-.52,3-2.72,2.94-2,0-2.25-1.35-2.5-2.79-.64-3.71-2.31-7.14-3.12-10.91,0,3.67,0,7.34,0,11,0,1.77-.43,2.69-2.35,2.67s-1.89-1.28-1.89-2.67q0-9.4,0-18.8c0-1.5-.14-3.18,2-2.83,1.9.31,4.7-1.38,5.29,2.27C124.3,71,125,75,125.67,79.39Z"/><path class="cls-2" d="M83.31,78.23c0,2.47,0,5,0,7.43s-1.25,3.18-3.23,3.25-3.07-.8-3-3.22q.24-8.84,0-17.67c-.06-2.33.74-3.4,2.88-3.36,3.78.06,7.72-.59,10.92,2.46,1.76,1.67,2.64,6.5.74,7.72C87,77.83,89.92,81,91.06,84c.53,1.4,1.79,2.62,1,4.13-.6,1.19-2.09.89-3.21.77a3.13,3.13,0,0,1-2.91-3c-.47-2.63-1.29-5.2-2-7.8Z"/><path class="cls-2" d="M109.2,88.89c-2,.39-2.63-.85-2.85-2.64-.18-1.5-.59-2.68-2.57-2.54-1.83.13-1.88,1.26-2.14,2.62A3.72,3.72,0,0,1,96,88.42a1.4,1.4,0,0,1-.36-1.9c2.33-4.26,2.3-9.16,3.54-13.71.62-2.25,1.41-4.45,2.1-6.68.46-1.48,1.59-1.54,2.81-1.5s2.3,0,2.69,1.59c1.58,6.69,3.23,13.36,4.87,20C112.15,88.47,111.13,89.11,109.2,88.89Z"/><path class="cls-3" d="M83.14,71.69c.57-1.24-.7-3.18,1.23-3.35s2,1.59,2,3.07,0,3.2-1.87,3.17C82.27,74.55,83.93,72.47,83.14,71.69Z"/><path class="cls-3" d="M103.39,73.55c1.19,2,1.09,4,1.24,5.85.08.92-.44,1.26-1.28,1.17s-.89-.64-.8-1.28C102.79,77.52,103.06,75.75,103.39,73.55Z"/></g></g></svg>