<svg xmlns="http://www.w3.org/2000/svg" viewBox="0 0 376 193"><defs><style>.cls-1{fill:#282626;}.cls-2{fill:#fcfcfc;}.cls-3{fill:#da7800;}</style></defs><title>realme</title><g id="Layer_2" data-name="Layer 2"><g id="realme"><rect class="cls-1" width="376" height="193"/><path class="cls-2" d="M241.52,94.62a28.73,28.73,0,0,1,2.73-2.85A10.34,10.34,0,0,1,247.34,90a10.71,10.71,0,0,1,5.66-.69,9.21,9.21,0,0,1,6.45,3.74,16.39,16.39,0,0,1,1.3,2.62,9.31,9.31,0,0,0,1.33-1.75,12.36,12.36,0,0,1,5.08-3.87,10.76,10.76,0,0,1,6.5-.65,8.86,8.86,0,0,1,6.79,5.64,17,17,0,0,1,1,6.08c.06,5.24,0,10.47,0,15.71,0,.46-.15.65-.78.61a15,15,0,0,0-2,0c-.83.07-1.09-.12-1.08-.78.05-3.66,0-7.31,0-11a67.31,67.31,0,0,0-.16-6.81,6.66,6.66,0,0,0-1.81-4.45c-1.85-1.82-5.12-2.25-7.74-1.27-4.06,1.51-5.47,4.27-6,7.43a42.06,42.06,0,0,0-.39,7.6c0,2.86,0,5.71,0,8.56,0,.51-.15.74-.87.69a12.56,12.56,0,0,0-1.84,0c-.85.07-1.13-.11-1.13-.82q.08-7.62,0-15.24a11.22,11.22,0,0,0-.9-5.4c-1.48-2.81-4.4-4-8.18-3a8.45,8.45,0,0,0-5.48,4.26,13.37,13.37,0,0,0-1.49,6.46c-.08,4.32-.07,8.65,0,13,0,.67-.25.86-1.08.79a11.36,11.36,0,0,0-1.75,0c-.75.06-1.06-.12-1-.73s0-1.38,0-2.07c0-8,0-16,0-23.94,0-.65.25-.86,1.08-.8a15,15,0,0,0,2,0c.6,0,.74.16.73.58C241.5,91.81,241.52,93.12,241.52,94.62Z"/><path class="cls-2" d="M175,104c-4.08,0-8.17,0-12.26,0-.81,0-.92.19-.87.78a10.71,10.71,0,0,0,2.17,5.91c2.86,3.61,6.62,5,12.25,3.79a10.46,10.46,0,0,0,6.56-4.45c.31-.45.66-.89.92-1.35.18-.31.38-.29.67-.14.76.39,1.5.8,2.28,1.17.34.16.44.29.27.58a15.26,15.26,0,0,1-6.38,6.3,17,17,0,0,1-9.67,1.51,13.67,13.67,0,0,1-9.67-5.13,14.43,14.43,0,0,1,.75-19.21,13.61,13.61,0,0,1,7.32-4.09,17.08,17.08,0,0,1,6.2-.23,14.7,14.7,0,0,1,7.14,3,14.12,14.12,0,0,1,5.42,10.87c0,.57-.2.7-.92.7C183.16,104,179.1,104,175,104Z"/><path class="cls-2" d="M302.85,104c-4.09,0-8.18,0-12.26,0-.71,0-.91.15-.86.68a10.94,10.94,0,0,0,3.65,7.6c2.91,2.58,6.54,3.2,11,2.15a10.44,10.44,0,0,0,6.37-4.42c.31-.45.63-.89.91-1.35s.41-.25.69-.11c.76.39,1.51.79,2.29,1.16.36.17.36.34.21.61a14.46,14.46,0,0,1-9.19,7.32,18.6,18.6,0,0,1-8.06.28,12.88,12.88,0,0,1-7.16-3.56,14.55,14.55,0,0,1-4.57-11.09A14.31,14.31,0,0,1,290.68,93a13.6,13.6,0,0,1,6.6-3.35,16.83,16.83,0,0,1,6.2-.21,14.61,14.61,0,0,1,7,2.94A14.24,14.24,0,0,1,316,103.19c0,.59-.12.8-1,.79C311,104,306.91,104,302.85,104Z"/><path class="cls-2" d="M218.1,112.89c-.86.72-1.49,1.4-2.24,2a15.5,15.5,0,0,1-5.07,2.66,16,16,0,0,1-7,.42,13.49,13.49,0,0,1-4.72-1.66,15.27,15.27,0,0,1-5.56-5.23,12.28,12.28,0,0,1-1.87-5A13.64,13.64,0,0,1,193,97.24a14.88,14.88,0,0,1,6-6.09,15.23,15.23,0,0,1,9.93-1.76,13.29,13.29,0,0,1,6.64,2.91,15.71,15.71,0,0,1,2.37,2.46c.27-.14.17-.33.17-.49,0-1.27,0-2.54,0-3.81,0-.39.14-.57.7-.55.81,0,1.63,0,2.45,0,.45,0,.65.11.62.46a2.67,2.67,0,0,0,0,.4v25.8c0,.86,0,.86-1.15.86h-1.49c-1.12,0-1.12,0-1.12-.88Z"/><path class="cls-2" d="M140.27,104c0-4.5,0-9,0-13.5,0-.54.15-.71.9-.71,5.31,0,10.62,0,15.94,0,.71,0,1,.12.93.7a9.58,9.58,0,0,0,0,1.93c.07.64-.14.88-1.08.87-4,0-8,0-12,0-.78,0-1,.13-1,.76,0,7.8,0,15.6,0,23.4,0,.6-.19.84-1,.77a9.3,9.3,0,0,0-1.75,0c-.82.08-.94-.19-.94-.75C140.28,112.92,140.27,108.44,140.27,104Z"/><path class="cls-2" d="M227.92,98.4c0-6.11,0-12.21,0-18.31,0-.61.2-.84,1-.78a20,20,0,0,0,2.19,0c.44,0,.66.11.61.46a2.67,2.67,0,0,0,0,.4q0,18.21,0,36.42c0,.66-.17.94-1.1.85a15,15,0,0,0-2,0c-.53,0-.73-.13-.71-.54,0-.78,0-1.56,0-2.34Z"/><path class="cls-3" d="M81.55,72.25H67.36c-1.15,0-1.24-.07-1.25-1V68.34c0-.59.32-.88,1.16-.87H94.68a21.74,21.74,0,0,1,7.54,1.38,16.94,16.94,0,0,1,8.09,5.86c4.14,5.72,4.31,11.68,1.52,17.72a14,14,0,0,1-7.25,6.8,23.84,23.84,0,0,1-4.18,1.39c-3.42.83-6.92.54-10.39.61-.76,0-1.52,0-2.28,0-.22,0-.5-.07-.62.15s0,.33.17.49c.9.92,1.78,1.84,2.67,2.76,2,2,3.89,4.06,5.85,6.08s3.91,4,5.86,6,3.84,4,5.78,6c1.47,1.53,3,3,4.47,4.56.48.5,1,1,1.43,1.5s.27.86-.6.86c-1.37,0-2.75-.08-4.11,0a3.27,3.27,0,0,1-3-1.18c-1.86-2.07-3.83-4.09-5.75-6.13-2.62-2.77-5.23-5.54-7.87-8.31-2.32-2.44-4.68-4.87-7-7.31-.88-.92-1.75-1.86-2.63-2.78a.75.75,0,0,1-.21-.57c0-2,0-4-.06-6,0-.72.29-.92,1.27-.92,3.56,0,7.12,0,10.69,0a23.24,23.24,0,0,0,4.26-.3c3.9-.72,6.89-2.38,8.45-5.25a12.48,12.48,0,0,0-.39-13.32,10.86,10.86,0,0,0-5.07-4,16.88,16.88,0,0,0-7.06-1.31C90,72.27,85.78,72.25,81.55,72.25Z"/><path class="cls-3" d="M66,106V83.32c0-1.22.08-1.28,1.67-1.28h26.8c1.3,0,1.44.11,1.45,1.11v2.61c0,1-.15,1.09-1.39,1.09-7.33,0-14.65,0-22,0-.77,0-1,.15-1,.74q0,20.58,0,41.18c0,1.19-.06,1.24-1.62,1.24-1,0-1.93,0-2.89,0-.74,0-1-.3-1.08-.76a3,3,0,0,1,0-.6Z"/><path class="cls-1" d="M173.06,101h-9.63c-1.19,0-1.2,0-.9-.85a10.66,10.66,0,0,1,3.5-5.2,11.15,11.15,0,0,1,9.12-2.13,10.31,10.31,0,0,1,7.72,5.12,11.22,11.22,0,0,1,.9,2.16c.27.9.27.9-.9.9Z"/><path class="cls-1" d="M301,101c-3.3,0-6.6,0-9.9,0-.77,0-1-.08-.81-.74a10.74,10.74,0,0,1,4.31-5.87,11.17,11.17,0,0,1,6.91-1.74c4.9.25,8.64,3.11,9.87,6.8.51,1.54.51,1.54-1.54,1.54Z"/><path class="cls-1" d="M206.94,92.68a10.54,10.54,0,0,1,8.73,3.87c3.55,4.3,3.61,8.86.88,13.42a10.28,10.28,0,0,1-5.42,4.12,12.7,12.7,0,0,1-7,.49,10,10,0,0,1-5.7-3.15c-3.57-4-4.21-8.2-2-12.66a10.58,10.58,0,0,1,6.56-5.52A10.21,10.21,0,0,1,206.94,92.68Z"/></g></g></svg>