<svg xmlns="http://www.w3.org/2000/svg" viewBox="0 0 210.91 201.46"><defs><style>.cls-1{fill:#222020;}.cls-2{fill:#fe6d3a;}.cls-3{fill:#da7800;}.cls-4{fill:#fedcb9;}</style></defs><title>register</title><g id="Layer_2" data-name="Layer 2"><g id="register"><path class="cls-1" d="M13.35,201.46c-1-1.3-2.77-1-4.14-1.5-2.62-1-5-2.19-6.7-4.43s-3-4.69-2-6.89c.79-1.74,3.79-.69,5.78-.7,20.72,0,41.43,0,62.15,0A16,16,0,0,1,75,187q30.48,0,61,0a16.08,16.08,0,0,1,6.53,1c21.68,0,43.36,0,65-.12,2.92,0,3.57.79,2.89,3.39a11,11,0,0,1-6.78,7.88c-2.24.91-4.59,1.56-6.89,2.33Z"/><path class="cls-1" d="M198.47,44.77c7.71,1.5,12.33,6.27,12.36,13.63q.16,47.46,0,94.92c0,7.43-4.77,12.35-12.31,13.59-1.48.59-3,.3-4.55.3-16.58,0-33.17-.35-49.73.11-19.06.54-38.14,1.19-57.17.49-24.22-.88-48.43-.26-72.64-.58a4.56,4.56,0,0,1-2-.32C4.42,165.6.06,160.47,0,152.14c0-19.61,0-39.22,0-58.83C0,81.94,0,70.56,0,59.19c.06-8,4.36-12.85,12.39-14.42,14.49-.54,29-.08,43.48-.25a2.58,2.58,0,0,1,2.86,2.26A11.5,11.5,0,0,1,59,48.34c1,9.23,0,10.27-9.72,10.27q-13.8,0-27.6,0c-1.79,0-3.67-.3-5.13,1.08-1.18,1.35-1,3-1,4.52q0,38.11,0,76.22c0,5,.45,5.44,5.7,5.45q84.26,0,168.53,0c5.06,0,5.56-.48,5.57-5.16q.06-38.31,0-76.62c0-1.54.17-3.17-1.06-4.47-1.51-1.32-3.39-1-5.18-1-10.3,0-20.61,0-30.91,0-5.38,0-6.2-.87-6.36-6,0-.4,0-.79,0-1.18,0-6.78.09-6.94,7.4-6.88C172.31,44.65,185.39,44.23,198.47,44.77Z"/><path class="cls-2" d="M15,58.08c1.37-1,3-.54,4.44-.55,11.54,0,23.09-.1,34.63,0,2.95,0,3.76-.87,3.77-3.58,0-9.08.13-9.06-9.53-9.08q-17.94,0-35.87-.14c1.52-1,3.24-.6,4.88-.6,12.4,0,24.81-.12,37.21,0,3.19,0,4-.89,4-3.78-.16-12.18,0-24.36-.12-36.53,0-2.72.44-3.92,3.82-3.91q43.28.2,86.55,0c3.37,0,3.84,1.18,3.82,3.91-.13,12.17,0,24.35-.13,36.53,0,2.89.77,3.82,4,3.78,12.4-.17,24.81-.09,37.22,0,1.63,0,3.36-.38,4.87.6-13.48,0-27,.2-40.45.07-3.64,0-5.12.64-5,4.45.3,8.21.07,8.22,8.81,8.22,9.88,0,19.75,0,29.63,0,1.48,0,3.07-.43,4.44.55-1.57,1.82-3.8,1.35-5.81,1.37-10.29.06-20.59,0-30.88,0-5.31,0-5.57.3-5.61,5.38,0,2.49,0,5,0,7.45,0,5,.28,5.18,5.76,5.22,4.45,0,8.9-.09,13.35.08,1.46.06,3.45-.16,3.82,1.6.3,1.4-1.36,2.1-2.48,2.85-1.7,1.14-3.62,1.94-5.39,3-19.46,10.71-38.73,21.72-58,32.68-3.7,2.1-6.66,2.12-10.37,0C81,106.73,61.69,95.76,42.23,85a56.16,56.16,0,0,1-6.42-3.64c-.76-.57-1.69-1.2-1.5-2.19.24-1.26,1.56-1.39,2.64-1.47,4.85-.36,9.72-.11,14.59-.17,5.46-.07,5.7-.27,5.75-5.24,0-2.61,0-5.23,0-7.84-.06-4.58-.41-4.95-5.21-5-10.43-.05-20.85,0-31.28,0C18.79,59.43,16.56,59.9,15,58.08Z"/><path class="cls-1" d="M132.42,170.72l8.38,15.62c0,1.71-1.4,1.32-2.41,1.32q-32.94,0-65.88,0c-1,0-2.41.39-2.4-1.33l8.37-15.61c1.79-1.28,3.89-1.22,6-1.22q21,0,42,0C128.53,169.5,130.64,169.44,132.42,170.72Z"/><path class="cls-1" d="M132.42,170.72H78.48c.35-.76.71-1.53,1.06-2.3.82-1.51,2.33-1.16,3.67-1.16q22.25,0,44.49,0c1.34,0,2.85-.34,3.66,1.16C131.72,169.19,132.07,170,132.42,170.72Z"/><path class="cls-1" d="M131.36,168.42a7.23,7.23,0,0,0-4-.8q-21.9,0-43.81,0a7.29,7.29,0,0,0-4,.8c-1.1-1.56-2.79-.84-4.2-.85-19.22,0-38.43,0-57.65,0-1.77,0-3.63.37-5.3-.61l71.1-.06,110.43,0c1.53,0,3.06.07,4.6.1-1.67,1-3.53.61-5.31.61-19.21,0-38.43,0-57.64,0C134.16,167.58,132.46,166.86,131.36,168.42Z"/><path class="cls-1" d="M70.11,186.33c1.13,1.43,2.78.95,4.24.95q31.11,0,62.2,0c1.46,0,3.12.48,4.25-.94l1.66,1.64h-74Z"/><path class="cls-3" d="M167.1,85l10-6.25c-7.53,0-14-.19-20.39.07-3.51.15-4.63-.89-4.4-4.16a110,110,0,0,0,0-13c-.15-2.82,1-3.53,3.81-3.51,13.25.08,26.51,0,39.76-.08,1.1,1.11.65,2.49.65,3.75,0,27,0,54,.1,80.94,0,3.44-.92,4.42-4.65,4.41q-86.57-.17-173.14,0c-3.21,0-4.67-.46-4.65-4,.15-27.24.08-54.48.1-81.72,0-1.14-.37-2.38.66-3.36,13.11,0,26.22.18,39.33.07,3.24,0,4.46.72,4.25,3.91a124.22,124.22,0,0,0,0,13.37c.11,2.57-.78,3.42-3.55,3.35-6.66-.16-13.33,0-21.13,0L43.8,85c-2.1,1.84-4.79.56-7.45,1.24,14.83,8.42,29.5,16.65,44.15,24.91L102,123.27c1.86,1,3.61,1.83,5.82.59,22.19-12.49,44.36-25,66.75-37.64C171.89,85.54,169.21,86.82,167.1,85Z"/><path class="cls-1" d="M109.51,54.31c3.87.47,7.75.07,11.66.51A14.74,14.74,0,0,1,134.67,69c.19,3.4,0,6.81.08,10.21.07,2.06-.78,2.75-2.94,2.75-17.57,0-35.14,0-52.72,0-1.44,0-2.91,0-2.88-1.93.07-4.18-.36-8.44.31-12.54,1.36-8.43,7-12.63,16.51-13,2.79-.1,5.58-.08,8.37-.12A7.53,7.53,0,0,1,109.51,54.31Z"/><path class="cls-3" d="M167.1,85h10.39c-3.85,3.6-8.06,5.29-11.85,7.45-19.25,11-38.62,21.73-57.91,32.63-1.47.83-2.67,1.1-4.21.22Q69.62,106.07,35.68,86.9A3.28,3.28,0,0,1,34.11,85H43.8c10.54,5.82,21.11,11.61,31.62,17.47,8.86,4.94,17.71,9.88,26.43,15,2.61,1.54,4.58,1.51,7.2,0C127.47,106.92,146,96.52,164.47,86.1A23.6,23.6,0,0,1,167.1,85Z"/><path class="cls-4" d="M109.51,54.31h-8.12c-5.61-2.6-11-5.49-14.41-10.68-1.92-2.92-3.34-6-3.1-9.5,1-1.5,2.67-1.11,4.14-1.27,7.26-.8,14.35-1.95,19.42-7.68.84-1,2.12-1.69,3.31-1,5.54,3.12,11.88,5.06,16.32,9.78-.26,9.27-6.41,14.61-14.25,18.79C111.75,53.31,110.61,53.79,109.51,54.31Z"/><path class="cls-1" d="M127.07,33.94c-5.14-2.84-10.26-5.71-15.43-8.48-.9-.48-1.91-1.92-3.12-.23C103.61,32.09,95.75,32.88,88,33.9c-1.37.18-2.77.15-4.15.22a24.48,24.48,0,0,1,1.88-12.25c3-7.79,10.65-11.92,20.63-11.52s16.56,4.7,19.2,12.82A25.34,25.34,0,0,1,127.07,33.94Z"/><path class="cls-1" d="M183.44,126.36c0,1.18-.49,1.81-1.71,1.81a26.43,26.43,0,0,1-3.33,0c-3-.36-4.31.48-4.14,3.59.08,1.6,1.52,4.71-1.58,4.75-3.55.06-1.78-3.2-1.78-4.86,0-2.73-.81-3.86-3.77-3.49a29.31,29.31,0,0,1-3.75,0,1.5,1.5,0,0,1-1.7-1.74c0-1.06.51-2,1.64-1.82,6.15,1,8.64-1.24,7.56-7.05-.18-1,.72-1.28,1.66-1.27s1.63.31,1.74,1.28a5.14,5.14,0,0,1,.08,1.56c-.93,4.59,1.2,6.1,5.87,5.43C181.62,124.38,183.53,124.09,183.44,126.36Z"/></g></g></svg>