<svg xmlns="http://www.w3.org/2000/svg" viewBox="0 0 243 158.63"><defs><style>.cls-1{fill:#fe6d3a;}.cls-2{fill:#e6e9eb;}.cls-3{fill:#da7800;}.cls-4{fill:#222020;}.cls-5{fill:#140e0e;}.cls-6{fill:#566368;}.cls-7{fill:#010101;}.cls-8{fill:#010100;}</style></defs><title>rom</title><g id="Layer_2" data-name="Layer 2"><g id="rom"><path class="cls-1" d="M51.36,155.74c-.74,2.47-2.65,2.78-4.85,2.78-12.49,0-25,0-37.46-.05-5.86-.05-9-3.3-9-9.22Q0,101.12,0,53a16.49,16.49,0,0,1,2.94-9.33C7.39,37,12.58,30.84,16.57,23.82a9.34,9.34,0,0,1,9.25-4.65c2.84.22,3.51-.94,3.33-3.52-1-15,3.06-15.79,16-15.59C62.52.34,79.91.12,97.29.14c8,0,10.74,2.83,10.77,10.92,0,2.93,0,5.86,0,9.58,9.46-6.13,19-10.17,29.37-11.58,20.07-2.73,38.27,1.89,54.1,14.71,3.24,2.63,5.84,6.05,8.68,9.17,2.3,2.52,10.86,4.44,13.8,3.06,1.63-.76,1-2.18,1-3.29.08-7.59,0-15.18.07-22.76.08-6.85,3.05-9.73,9.88-9.81,2.21,0,4.44.18,6.63-.05,5.07-.54,8.86,1.28,11.43,5.66V46.57c-.87,1.45-1.81,2.82-3.77,2.81-4.17-.51-4.19-3.72-4.23-6.75-.13-9.15,0-18.31-.08-27.46-.06-6.07-5.12-8.68-10.55-5.53-1,2.44-.7,5-.7,7.5q0,60.11,0,120.23a51.05,51.05,0,0,1-.13,5.67c.42,6,.79,6.46,5.58,6.43,5,0,5.74-.77,5.76-6.33.06-18.47,0-36.93,0-55.4,0-8-.09-16.11.06-24.15.06-2.89.25-5.86,4-6.53,2.09-.15,3.13,1.24,4,2.8v93c-2.58,4.38-6.37,6.17-11.44,5.67-2.67-.26-5.38,0-8.07-.07-3.45-.07-6.61-1.52-7.48-4.76-.94-3.47-2.9-3.41-5.57-3.4-20.08.06-40.17-.09-60.25.07-14.45.11-27.79-3.36-40-11.12-.48-.3-1-.48-2.12-1,0,3.92.07,7.35,0,10.76-.16,6.19-3.28,9.38-9.4,9.43-10.91.08-21.83,0-32.74.05-2.69,0-4.64-.68-5.32-3.51-.78-4.13,2.3-4.74,5.07-5.24,3.74-.67,7.56-.27,11.35-.3,5.85,0,11.7,0,17.54,0,3.18,0,4.61-1.31,4.56-4.53-.06-4.42,0-8.85,0-13.27V19.79c0-1.42,0-2.84,0-4.27C99,9.7,98.94,9.65,93,9.06c-15.64.28-31.28.06-46.91.12-8.43,0-8.45,0-8.45,8.26q0,59.24,0,118.47c0,2.21.1,4.42-.11,6.62,0,6.7,0,6.7,6.95,7.12C50.17,150,51.81,151.44,51.36,155.74Z"/><path class="cls-2" d="M243,59.86c-1.07-.48-1.48-1.93-2.86-2-3-3.42-3-6,0-9.33,1.38-.05,1.81-1.46,2.84-2Z"/><path class="cls-3" d="M51.36,155.74c.16-3-1.61-4.23-4.28-4.51a34,34,0,0,0-3.78-.08c-7.46,0-7.46,0-7.07-7.8,2-1.81,4.43-1.45,6.76-1.46,12-.06,24,0,36.06,0,12.45,0,12.49,0,12.44-12.23-.16-37.95.46-75.91,0-113.86,0-2.8-.49-5.75,1.53-8.19.48,0,1-.08,1.42-.09,6.25-.06,6.26-.06,6.26,6V144.87c0,6.27,0,6.28-6.5,6.28h-27c-3,0-5.82.16-6.61,3.87C57.52,155.36,54.34,154.29,51.36,155.74Z"/><path class="cls-4" d="M108.28,128.2q-.11-34.8-.21-69.6c0-6.48.75-13.06-.19-19.39-1.22-8.31,3.49-12.59,9.41-15.79,20.55-11.09,41.43-11.34,61.7.43a51.4,51.4,0,0,1,16.63,14.93c11.09,23,5.48,54.22-12.21,72.73-11.7,12.26-25,20.66-42.12,22.3C129.8,134.92,118.57,134.22,108.28,128.2Z"/><path class="cls-3" d="M93.05,7.58q0,63.83,0,127.66c0,6.77-1.34,8.15-7.92,8.15l-48.88,0q-.07-43.14-.15-86.28c0-15.18.06-30.35,0-45.52,0-3,.69-4.21,3.92-4.18C57.65,7.55,75.35,7.53,93.05,7.58Z"/><path class="cls-4" d="M108.28,128.2c8.29,2.39,16.55,4.93,25.33,4.76,15.74-.3,29.82-4.74,41.82-15.42,11.78-10.48,20.09-22.92,23.31-38.47a67.31,67.31,0,0,0-2.07-35.26c-.53-1.61-1.4-3.21-1-5,17.7,18.56,19.41,51.09,5.08,74.81-18.84,31.17-59.28,38.13-87.43,19.23C111.41,131.57,109,130.78,108.28,128.2Z"/><path class="cls-3" d="M7.51,51.19c1.2-5.4,5.52-8.87,8.28-13.3,1.22-2,2.79-3.71,4.21-5.56,3,.88,2.3,3.5,2.35,5.51.2,7.43.08,14.86.08,22.29q0,35.82,0,71.63a35,35,0,0,1-.29,6.63c-1.07,5.5-9,8.75-13.68,5.69-1.9-1.24-1.29-3.09-1.3-4.72,0-19.61-.09-39.22,0-58.82C7.22,70.76,6.68,61,7.51,51.19Z"/><path class="cls-3" d="M240.16,48.56a14.67,14.67,0,0,0,0,9.33c-4-.07-3.94,2.67-3.94,5.51q0,37.92,0,75.84c0,2.85,0,5.69,0,8.53,0,2.36-1.06,3.51-3.47,3.38-1.1-.06-2.21,0-3.31,0-7.54,0-7.54,0-7.16-7.79,3.22-2.81,4.13-6.36,4.11-10.57q-.13-58.45,0-116.9c0-3.33-.48-6.24-3.38-8.28,3.87-1.9,7.74,0,11.58.22,2.09.09,1.63,2.73,1.64,4.4,0,10.43.06,20.87,0,31.31C236.17,46.39,236.6,48.65,240.16,48.56Z"/><path class="cls-3" d="M7.51,51.19q.07,43.1.11,86.19c0,3.45-.55,6.53,4.86,6.14,6.53-.48,8.39-1.45,8.39-6.79q0-50.2,0-100.4c0-1.38.39-2.89-.88-4,.87-1.29,1.64-2.67,2.63-3.87,1.42-1.73,3.5-1.5,5.28-1.07s1.21,2.34,1.21,3.66q0,58.13.07,116.25c0,2.93-.56,4.33-3.9,4.14-4.89-.28-9.81-.13-14.71-.05-2.2,0-3.62-.4-3.62-3.06q.11-48.15.13-96.31C7.09,51.74,7.37,51.46,7.51,51.19Z"/><path class="cls-3" d="M223,7.61c3.4-.33,5,.61,4.94,4.63q-.24,62-.08,124c0,4-1,6.83-5.58,7.1q-.07-50.49-.14-101c0-10.11,0-20.23,0-30.34C222.16,10.55,221.49,8.85,223,7.61Z"/><path class="cls-1" d="M210.79,110.16l3.58-9.11.71.12c0,13.15,0,26.29,0,39.43,0,2-.54,2.83-2.68,2.81-10.71-.08-21.42,0-33.46,0l10.81-6.74c3.62-.55,7.27-.09,10.89-.36,6.24-.46,9.45-3.77,9.63-10C210.45,120.88,210.18,115.51,210.79,110.16Z"/><path class="cls-3" d="M210.79,110.16c1.78,6.77,1,13.64.46,20.42-.23,2.66-2.56,4.95-5.06,5.85a24.09,24.09,0,0,1-16.41.21C199.11,129.66,205.32,120.2,210.79,110.16Z"/><path class="cls-3" d="M214.64,57.88c-2.18-4.8-4.33-9.52-6.49-14.26,6.52-1.68,7-1.33,7,4.92q0,4.44,0,8.9C215.18,57.51,215,57.59,214.64,57.88Z"/><path class="cls-5" d="M133.78,51.34c7.9-5.36,16.39-5,24.85-2,15.66,5.46,24.05,22.21,19.72,38.7-4,15.24-19.24,25.21-35.13,23s-27.54-16.67-26.74-33.2a33.45,33.45,0,0,1,4.37-15.28c1.47-2.56,3.38-3.62,6.24-2.6,3.45,1.94,1.88,4.61.77,6.92a28.43,28.43,0,0,0-3.14,14.09,22.07,22.07,0,0,0,10.4,18c9,6,19.91,5.25,28.39-1.95,7.26-6.19,9.61-18.35,5.38-27.83A22.63,22.63,0,0,0,167,65.9c-6-8.33-14.77-11.66-24.85-9.41a22.68,22.68,0,0,1-3.25.61C134.42,57.44,133.25,56.12,133.78,51.34Z"/><path class="cls-6" d="M134.42,99.88c-10.92-7-14.27-21.12-7.72-33.09,1.28-2.33,2.34-4.46.39-6.87a15.27,15.27,0,0,0,6.69-8.58c.19,5.13,1.2,5.8,6.44,4.26,11.29-3.3,21.86.44,27.83,9.86,3.16,10.67,0,19.62-7.69,27.14C153.09,99.69,144.61,103,134.42,99.88Z"/><path class="cls-7" d="M68.49,74.28c-5,0-10.11,0-15.16,0S45,71.38,44.89,66.33q-.28-15.15,0-30.32c.11-5.17,2.65-7.41,7.83-7.45q15.87-.11,31.75,0c5,0,7.55,2.59,7.59,7.59q.11,14.93,0,29.86c0,5.5-2.94,8.24-8.41,8.26C78.6,74.3,73.54,74.28,68.49,74.28Z"/><path class="cls-6" d="M134.42,99.88c6.6,0,13.32.23,19.16-3.49,9.36-6,14.84-14.23,14.45-25.74-.06-1.72,0-3.46,0-5.19A25,25,0,0,1,165,97.3,23.75,23.75,0,0,1,134.42,99.88Z"/><path class="cls-7" d="M133.68,79.81c0-8.72,5.87-15.12,14-15.23,8.31-.11,14.59,6.46,14.58,15.23a14.44,14.44,0,0,1-14.11,14.24A14.18,14.18,0,0,1,133.68,79.81Z"/><path class="cls-1" d="M52.31,62.7c-.06-8.05-.08-16.09-.2-24.14,0-1.9.37-2.9,2.58-2.86,9,.18,18,.21,27,.3a6.88,6.88,0,0,1,1.46,4.4c.1,5.83.24,11.66-.06,17.48-.22,4.44-1.72,6-6.07,6.22-6.92.33-13.85.22-20.78,0A5.4,5.4,0,0,1,52.31,62.7Z"/><path class="cls-1" d="M52.31,62.7c7.87,0,15.75-.24,23.61.11,4.71.2,6-1.6,5.8-6-.3-6.92-.07-13.85-.07-20.78,2.53-.79,3.42.22,3.4,2.75-.07,8.19-.14,16.38,0,24.56.07,3-1.26,3.27-3.68,3.24-8.65-.1-17.31-.19-26,0C52.16,66.67,51.7,65.32,52.31,62.7Z"/><path class="cls-6" d="M142.1,83.75c-3.1-4.12-.87-7.14,1.86-10.32,2.07-2.41,4.25-2.05,6.73-1.2.91.32,1,1.09,1.2,1.84C152.59,80.19,148,84.75,142.1,83.75Z"/><path class="cls-6" d="M142.1,83.75c6-.5,8.4-4.56,9.79-9.68,3.73,3.4,4.15,7.84,1,10.85C149.52,88.21,146,87.84,142.1,83.75Z"/><path class="cls-8" d="M68,47.67c-2.19,0-4.39,0-6.59,0s-3.7-1-3.8-3.25a3.15,3.15,0,0,1,3.46-3.57c5-.06,10-.07,15.07,0a3.21,3.21,0,0,1,3.39,3.23c.08,2.16-1.28,3.49-3.52,3.55C73.35,47.72,70.68,47.66,68,47.67Z"/><path class="cls-8" d="M68.65,54c2.36,0,4.71,0,7.07,0s3.73,1.16,3.82,3.31A3.27,3.27,0,0,1,76,60.82q-7.53.12-15.07,0a3.14,3.14,0,0,1-3.31-3.28c-.06-2.21,1.24-3.5,3.51-3.54,2.51-.06,5,0,7.53,0Z"/></g></g></svg>