<svg xmlns="http://www.w3.org/2000/svg" viewBox="0 0 376 193"><defs><style>.cls-1{fill:#282626;}.cls-2{fill:#fbfcfb;}.cls-3{fill:#1a3664;}.cls-4{fill:#153b6f;}</style></defs><title>samsung</title><g id="Layer_2" data-name="Layer 2"><g id="samsung"><rect class="cls-1" width="376" height="193"/><path class="cls-2" d="M173.39,77.46c-2,8.69-2.57,17.77-4,26.61-.13.79-.21,1.58-.34,2.37-.94,6.07-.95,5.9-5.35,6.11-2.06.1-2.82-.65-3.16-3.59-1.15-10-2.57-19.85-3.88-29.76H156c0,9.5,0,19-.13,28.5,0,1.52.61,4.05-.51,4.42-2,.64-4.14.23-6.22.12-.41,0-.42-.9-.4-1.48.14-3.44-.1-6.92.43-10.33.69-.48.31-1.33.32-2,.06-7.33.06-14.65.11-22,0-1.11-.24-2.29.27-3.33,3.33-.6,6.67-.07,10-.25,1-.05,1.43.45,1.58,1.94.95,9.1,2,18.19,3.29,27.35l2.13-16.92c.31-2.49.59-5,.92-7.48.65-4.84.66-4.84,4.28-4.83,2.18,0,4.35.07,6.53,0,1.1,0,1.41.5,1.41,2,0,7.26.1,14.53.16,21.79-.05,4.26-.1,8.52,0,12.77,0,2-.27,2.83-1.9,2.84-4.65,0-4.65.14-4.63-6.27,0-.34,0-.69,0-1,0-8.09.07-16.17.07-24.25C173.69,79.68,174,78.48,173.39,77.46Z"/><path class="cls-2" d="M259.26,103.27c0-9.38.1-18.62.08-27.86,0-1.62.3-2.12,1.52-2.18,5.56-.31,5.56-.37,5.53,7.38,0,9.36-.19,18.73,0,28.08.05,3.22-.71,4-2.79,3.6a8.63,8.63,0,0,0-1.76,0c-5.87,0-5.85,0-7.49-7.84s-3.32-15.58-5-23.37c0,9.51-.11,18.9-.07,28.29,0,2.13-.24,3-2,2.94-5-.12-5,0-5-7,0-9.47.19-18.95,0-28.42-.05-3.23.72-3.89,2.81-3.65,2.58.3,5.83-1.07,7.59.64,2,1.93,1.84,6.83,2.64,10.43C256.71,90.59,258,97,259.26,103.27Z"/><path class="cls-2" d="M143.12,112.4c-2.22,0-4.29-.08-6.36,0-1.49,0-1.48-1.36-1.62-2.76q-1.48-15.15-3-30.32c0-.42-.07-.93-.68-1.1-1.1,9.81-2.24,19.61-3.31,29.42-.51,4.7-.45,4.71-3.87,4.7-4.4,0-4.41,0-3.61-5.92,1.36-10.06,2.81-20.09,4.07-30.18.35-2.8,1.13-3.75,3.22-3.53a71.2,71.2,0,0,0,8.52.1c1,0,1.65.21,1.86,1.94C139.87,87.2,141.49,99.62,143.12,112.4Z"/><path class="cls-2" d="M95.53,79.06a7.55,7.55,0,0,1,5-6.85,12.25,12.25,0,0,1,9.38,0c3.43,1.32,5.27,5.47,4.79,10.33-.07.68,0,1.48-.7,1.49-1.92,0-3.85.09-5.76-.06-1-.09-.58-1.42-.61-2.21-.06-1.83-.57-3.12-1.94-3.45-1.21-.29-2.43-.22-3,1.6a4.9,4.9,0,0,0,.63,4.72c1.69,2.11,3.83,3.19,5.73,4.82,2.16,1.87,4.6,3.33,5.54,7a33.19,33.19,0,0,1,0,10.48c-1.39,4.81-4.75,7.06-10.21,6.81-4.87-.22-7.84-2.65-9-7.32a23.49,23.49,0,0,1,.09-7.2c1,0,2,0,3-.1,2.38-.24,4.7-.61,4.07,4.53a2.56,2.56,0,0,0,2.12,2.81,2.33,2.33,0,0,0,3-1.67,5.73,5.73,0,0,0-.21-4.84,13.43,13.43,0,0,0-3.74-3.9C101.46,94.26,99,92.75,97.17,90c-.79-1.16-1.72-2.22-1.66-4A22.93,22.93,0,0,1,95.53,79.06Z"/><path class="cls-2" d="M207,107.17c-1,5.7-6.62,7.08-10.5,6.65-5.38-.59-8.38-3.56-9-8.74-.17-1.35,0-2.77-.05-4.15s.5-1.49,1.26-1.45a16.8,16.8,0,0,0,3.25,0c2.11-.31,3.56,0,3.1,3.81a2.75,2.75,0,0,0,1.81,3.2c1.17.34,2.41.52,3.2-1.06a5.72,5.72,0,0,0,0-5.16,10.4,10.4,0,0,0-3.12-3.38c-2-1.74-4.2-3.3-6.14-5.25-3-3-3.65-7.15-2.78-12,.8-4.41,3.1-6.29,6-7.24a11.36,11.36,0,0,1,9.1.76c3,1.59,4.61,5.75,4,10,0,.11,0,.28,0,.33-1.8,2.17-3.91.41-5.85.92-1.06.28-1.25-.66-1.19-1.88.11-2.12-.46-3.59-2.13-3.85a2.19,2.19,0,0,0-2.74,1.73c-.55,2-.25,4,1.14,5.16,2,1.75,4.19,3.27,6.24,5,1.82,1.57,3.74,3.07,4.48,6.17A36.39,36.39,0,0,1,207,107.17Z"/><path class="cls-2" d="M274.43,79.54q1.68-7.65,9.86-7.42c5.09.14,8.35,2.87,9.27,7.78.1.56.2,1.12.28,1.68.56,4.22.42,4.44-2.72,4.43a14.83,14.83,0,0,0-2,0c-1.62.22-2.7-.06-2.52-3,.15-2.56-1.2-3.81-2.88-3.74s-2.77,1.42-2.78,4c0,6.45,0,12.89-.08,19.34,0,2.47,1,3.59,2.6,3.78s3.05-.8,3.19-3.32c.12-2.23.52-4.54-.24-6.73-1.15-.38-2.55-.21-2.25-2.95.16-1.55.37-2.28,1.6-2.23,2.17.11,4.35.09,6.53,0,1.06,0,1.52.51,1.46,2-.16,3.9.22,7.83-.25,11.72a7.94,7.94,0,0,1-3.79,7,10.66,10.66,0,0,1-12-.15,6.92,6.92,0,0,1-3.38-5.49C274,97.39,274,88.46,274.43,79.54Z"/><path class="cls-2" d="M215.22,73.26h5.94c.59,1.87.25,3.83.25,5.75,0,7.58,0,15.15,0,22.73,0,.87-.32,1.84.24,2.61.93,2,2.27,2.78,3.86,2s1.68-2.81,1.68-4.88c0-8.42.1-16.85,0-25.28,0-2.29.27-3.2,2.14-3.15,5.11.15,5.12,0,5.1,7,0,7.16,0,14.32-.09,21.47-.07,8.07-2.67,11.73-8.57,12.07-2.59.15-5.2.25-7.57-1.56a7.16,7.16,0,0,1-3.17-5.37c-.45-8.17-.07-16.35-.1-24.53C214.92,79.2,214.62,76.19,215.22,73.26Z"/><path class="cls-2" d="M293.5,104.94c0-3.34-.15-6.69,0-10,.16-2.87-.67-3.67-2.57-3.41-1.24.16-2.51-.11-3.75.06-.95.13-2.26-1-2.73,1.29-.5,2.4.91,2.72,1.93,3.48-2.37.08-3.26-1.68-2.52-4.77.28-1.19.88-.86,1.4-.87,2.42,0,4.85,0,7.27,0,.63,0,1.48-.26,1.42,1.19C293.79,96.26,294.48,100.66,293.5,104.94Z"/><path class="cls-2" d="M215.22,73.26q-.1,16.71-.19,33.43c-.76-1-.54-2.39-.54-3.6q0-13.82.08-27.64C214.57,74.68,214.16,73.51,215.22,73.26Z"/><path class="cls-3" d="M221.61,104.36c-1-.59-.47-1.81-.47-2.69,0-9.46,0-18.93,0-28.4,1.12.65.52,2,.52,3C221.7,85.6,221.65,95,221.61,104.36Z"/><path class="cls-2" d="M173.83,105a30.19,30.19,0,0,1,0,3.43c-.31,3,.68,3.68,2.68,3.58,3.34-.16,3.3,0,3.39-4.67.06-3.54-.24-7.1.28-10.62.07,4.61.11,9.22.22,13.83,0,1.48-.31,2.18-1.42,2a.7.7,0,0,0-.25,0c-5.63.31-5.63.31-5.31-7.52C173.56,104.68,173.7,104.69,173.83,105Z"/><path class="cls-2" d="M149.88,73.15l-.11,29.61c-.8-.65-.35-1.63-.59-2.32q.13-13.09.28-26.19C149.46,73.78,149.51,73.35,149.88,73.15Z"/><path class="cls-4" d="M173.83,105h-.41l0-27.54c.89.65.53,1.82.53,2.76C173.92,88.48,173.87,96.74,173.83,105Z"/><path class="cls-2" d="M274.43,79.54l-.12,26.78c-.71-.92-.51-2.15-.51-3.25q0-10.14.07-20.29C273.88,81.68,273.72,80.44,274.43,79.54Z"/><path class="cls-2" d="M114.59,107V96.48A17,17,0,0,1,114.59,107Z"/><path class="cls-2" d="M207,107.17c0-3.46,0-6.91,0-10.37A17,17,0,0,1,207,107.17Z"/><path class="cls-2" d="M95.53,79.06c0,2.31,0,4.61,0,6.92A10.59,10.59,0,0,1,95.53,79.06Z"/><path class="cls-2" d="M95.51,99.25l-.09,7.2C94.81,104,94.18,101.63,95.51,99.25Z"/></g></g></svg>