<svg xmlns="http://www.w3.org/2000/svg" viewBox="0 0 128.72 188.03"><defs><style>.cls-1{fill:#da7800;}.cls-2{fill:#222020;}.cls-3{fill:#404242;}</style></defs><title>screen</title><g id="Layer_2" data-name="Layer 2"><g id="screen"><path class="cls-1" d="M8.9,188C2.34,185.49,0,180.7,0,173.72.16,120.36.09,67,.09,13.65.09,4.25,4.31,0,13.75,0h91c1.1,0,2.2.09,3.3.13,4.43.35,7,3,8.44,7,.61,1.7.66,3.37-1.14,4.52-3,1-6.06.56-9.09.51-7.09-.11-14.17,0-21.25-.06a6.13,6.13,0,0,0-3.51.79c-2.52,1.59-4.36,3.92-6.48,5.94-6.79,6.48-14.81,7-21,.1-5-5.43-10.32-7.42-17.45-6.85-6.44.52-13,.15-19.44.09-2.92,0-4.36,1.12-4.16,4.11,0,.73,0,1.47,0,2.2q0,64.22,0,128.43c0,1.9-.49,4,1.09,5.56,1.41,1.07,3.06.75,4.62.75,30.09-.08,60.18.19,90.26-.14,5.9-.06,6-.09,6-5.91q0-64.77,0-129.53c0-2.16-.47-4.44,1-6.38,1.52-.49,1.56.81,1.79,1.63a17.55,17.55,0,0,1,.29,4.75V171a37.54,37.54,0,0,1-.52,6.94c-1,5.42-3.63,9.27-9.47,10.14Z"/><path class="cls-1" d="M108,188c6.92-2.77,8.82-8.39,8.82-15.22q0-78.81,0-157.61c0-1.37.67-3-.8-4.09l0,0c.37-5.87-3.1-8.92-8-11,4.47.06,9-.83,13.37,1,5.05,2.11,7.15,5.87,7.15,11.14q0,19.44,0,38.88c0,40.46-.13,80.92.12,121.38,0,7.66-2,13-9.67,15.45Z"/><path class="cls-2" d="M12.52,153.59c-.85-1.22-.47-2.61-.47-3.92,0-44.62,0-89.24-.11-133.86,0-3.77,1-4.76,4.72-4.66,9.28.27,18.58.15,27.87,0A6.53,6.53,0,0,1,50,13.43a79.93,79.93,0,0,0,6,6,12.13,12.13,0,0,0,16.91-.13c2.67-2.49,5.28-5,7.92-7.59,7.57-.58,15.14-.08,22.71-.27a2.28,2.28,0,0,1,2.52,2.1,22.31,22.31,0,0,1,.27,4.76q0,64.4,0,128.79c0,6.81,0,6.81-6.86,6.81H16.52C15.19,153.86,13.83,154.12,12.52,153.59Z"/><path d="M12.52,153.59c29.36,0,58.72-.13,88.07,0,3.84,0,4.6-1.11,4.59-4.72q-.18-66.42,0-132.84c0-3.24-.67-4.49-4.2-4.35-6.71.26-13.44,0-20.17,0,1.17-1,2.57-.55,3.87-.55,10.46,0,20.92,0,31.39,0h0c.07,1.34.19,2.68.19,4,0,44.9,0,89.8.08,134.7,0,3.6-1.06,4.42-4.52,4.4-31.69-.11-63.37,0-95.06,0C15.33,154.2,13.78,154.76,12.52,153.59Z"/><path class="cls-2" d="M51.42,176.36c-3.37-.7-4.69-3-4.27-6.16s2.65-4.86,5.85-4.9c4.38-.06,8.77,0,13.16.1,4.62,1.56,6.39,5,4.36,8.54a4.58,4.58,0,0,1-4.1,2.67C61.42,176.52,56.41,177,51.42,176.36Z"/><path class="cls-2" d="M51.42,176.36c4.13,0,8.26-.24,12.38,0,3.25.16,5.53-1,6.47-4s-1.11-4.71-3.25-6.25c-.29-.21-.58-.44-.86-.66,3.3,0,6.6-.23,9.89-.07s5.25,2,5.51,5.26-1.31,5.42-4.71,5.78A105.54,105.54,0,0,1,51.42,176.36Z"/><path class="cls-3" d="M64.09,9.06c1.09.45,2,1.13,2,2.34s-1,1.86-2.21,1.8-2.14-.71-1.92-2A2.45,2.45,0,0,1,64.09,9.06Z"/></g></g></svg>