<svg xmlns="http://www.w3.org/2000/svg" viewBox="0 0 171.58 165.59"><defs><style>.cls-1{fill:#da7800;}.cls-2{fill:#222020;}.cls-3{fill:#566368;}</style></defs><title>security-sensor</title><g id="Layer_2" data-name="Layer 2"><g id="security-sensor"><path class="cls-1" d="M76.88,0h9a4.53,4.53,0,0,1,1.38,3.69c.05,2.12.08,4.24,0,6.36-.09,3.22-.24,6.42,2.79,8.43.24.16.15.59.16.91-.88,1.65-2.33,1.29-3.7,1.26C70.38,20.92,55.67,25.82,43,36.82c-6.52,5.66-11.85,12.42-15,21-1.09,3-3,5.56-4,8.62-1,2.91-.79,4.72,1,5.64,2.27,1.18,3.77-.1,5.08-2,1.71-2.45,2.25-5.48,3.5-8.16,3.78-8.1,8.39-15.38,15.29-21A60.15,60.15,0,0,1,82.82,27.28a7.69,7.69,0,0,1,3.27,1.24,3.26,3.26,0,0,1,1,2.25c0,2.85.52,5.4,3,7.06.31.21.23.77.07,1.19-1,1.43-2.43,1-3.76,1a49.42,49.42,0,0,0-9.06,1c-1.89.42-4,.57-5.09,2.69a2.34,2.34,0,0,0,0,2.36c1.13,2.13,2.9,2.3,4.85,1.82A26.33,26.33,0,0,1,84,46.8a6.29,6.29,0,0,1,2.2,1.12A2.12,2.12,0,0,1,86.75,49,31.32,31.32,0,0,0,89,58.22a2.32,2.32,0,0,1-2.56,1.13c-8.36.41-15.48,3.5-20.58,11a14.55,14.55,0,0,0-1.93,4C63.37,76.26,63.5,78,65.41,79a3.52,3.52,0,0,0,4.79-1.25,14.41,14.41,0,0,0,1.35-2.86C74,69.38,80,65.82,85.21,66.74a2.66,2.66,0,0,1,1.21.84c1.32,3.11.73,6.47,1.09,9.7a1.9,1.9,0,0,1-1,1.06C84,78.77,82.71,80.77,82,83a68.86,68.86,0,0,1-8.18,17.09A72.89,72.89,0,0,1,53,121.89a63.18,63.18,0,0,1-5.34,3.53c-1.73.92-2.86,2.58-1.71,4.76s2.85,2.19,4.68,1.23a72.18,72.18,0,0,0,15.32-11c5.79-5.33,10.48-11.68,15-18.17,1-1.46,1.51-3.28,2.5-4.76.87-1.31,1.9-2.41,3.3-.56.82,4.52.45,9.07.28,13.61a10.08,10.08,0,0,0,.06,3.15,4.28,4.28,0,0,1-1.31,3.43c-4.33,6.93-9.92,12.63-15.47,18.38-1.33,1.37-2.64,2.76-1.85,5s3.11,2.49,5.35,1c3.59-2.4,5.93-6.27,9.16-9.09,1-.85,1.75-2.22,3.31-1.25A2.65,2.65,0,0,1,87,132c.67,10.28.31,20.57.2,30.85a3.67,3.67,0,0,1-.5,1.83,1.91,1.91,0,0,1-2.06.94c-8.44-.33-16.94-.06-25.16-2.76a91.82,91.82,0,0,1-27.12-14,83.17,83.17,0,0,1-20.55-22.09,96.1,96.1,0,0,1-8.3-17C-.83,98.46,0,86.82.18,75.18c0-1.82,0-3.65.16-5.47C1.46,56.42,7.2,45.32,14.25,34.76a70.74,70.74,0,0,1,9.46-11.11A88.26,88.26,0,0,1,47.7,7,64.43,64.43,0,0,1,76.07.32,1.23,1.23,0,0,0,76.88,0Z"/><path class="cls-1" d="M94.84,0c5,1.34,10.11,1.72,15.08,3.17a86.91,86.91,0,0,1,26.31,12.42,86,86,0,0,1,23.71,25.15,76.06,76.06,0,0,1,11.42,35.81,82.21,82.21,0,0,1-4.07,33c-1.43,4-3.57,7.77-5.38,11.64-.3,0-.68,0-.87-.17-3.4-3.74-7.76-3.32-12-3.24-6.17.12-12.35-.27-18.51.27a23.52,23.52,0,0,1-6.54.25,3.12,3.12,0,0,1-2.83-1.46c-1-2.44-.73-5.05-.75-7.61,0-3.86-.06-7.72,0-11.58.14-6.83,3.88-10.82,10.29-11.06A11.13,11.13,0,0,1,141,91.72a8.36,8.36,0,0,1,1.34,4.85,39.54,39.54,0,0,0,.12,4.49c.29,2.61,1.71,4.13,3.77,4.14s3.8-1.7,4-4.28A20,20,0,0,0,150,95.8a18.86,18.86,0,0,1-.63-4.74c1.29-3,.56-6.19.59-9.2a56.59,56.59,0,0,0-8.19-30.07c-10.77-18-26.63-27-45.75-30.48-2-.36-4.53.51-5.93-2C85.86,18,85.86,18,85.86,12.9V0Z"/><path class="cls-1" d="M102.55,163.81c-5.52.93-11,1.77-16.66,1.35q0-16.95,0-33.92c-.44-1.35.39-2.2,1-3.15,3.66-5.33,7.88-10.22,11.21-15.78s6.71-10.94,8.59-17.22c.86-2.86,2.23-5.49,2.9-8.43,2.53-11.17-5.3-23.48-16.4-26.32-1.55-.4-3.48-.25-4.29-2.33-2.48-.46-3.41-2-3.07-4.69a40.71,40.71,0,0,0,.07-4.82c.47-1.38,1.6-1.42,2.69-1.52s2.39,0,3.57-.16A2.9,2.9,0,0,0,95,44.09,3.3,3.3,0,0,0,93,40.58c-1-.53-2.47-.31-2.87-1.91a4.82,4.82,0,0,0-1.67-.55c-2.22.12-2.66-1.21-2.56-3.23s0-3.84,0-5.77c.76-1.76,2.3-1.57,3.63-1.5a57.12,57.12,0,0,1,24.64,7,66.89,66.89,0,0,1,13.65,10.25,41.48,41.48,0,0,1,6.79,8.93c4.08,6.78,7.21,14.11,7.59,22.42.06,1.49.26,3-.91,4.24a3.07,3.07,0,0,1-3.07.37c-2.34-.67-4.74-1.09-7.07-1.8a2,2,0,0,1-.8-.5,8.16,8.16,0,0,1-1-3.32c-1.81-12.35-8.62-20.92-17.93-27.61A5.69,5.69,0,0,0,108,46.38a3.47,3.47,0,0,0-3.33,2.29c-.65,1.6.23,2.69,1.35,3.54a43.75,43.75,0,0,1,9.91,9.6c4.15,5.9,6.55,12.18,5.4,19.68a18.75,18.75,0,0,1-3.95,4.32A13.58,13.58,0,0,0,113,96.25c0,5.25,0,10.49,0,15.73,0,1.48.13,3-.63,4.38-1.14,2.13-3.11,1.89-5,2-3.8.22-4.37.81-4.57,4.92a26,26,0,0,1-.58,4.4c-1.56,3.18-3.69,6-5.51,8.95-2.22,3.64-1.39,5.69,2.51,6.52a5.14,5.14,0,0,1,2.7,1.18,2.35,2.35,0,0,1,.64,1.41C102.85,151.77,103.22,157.79,102.55,163.81Z"/><path class="cls-2" d="M140.86,80.15c.06-10.31-3.3-19.23-8.89-27.5a51.84,51.84,0,0,0-18.26-16.49,53.08,53.08,0,0,0-27.82-7l-3.59-.18c2.32-2.68,1.52-6.71,3.55-9.52l4.25-.16c15.56.93,29.46,6.4,41.38,17.43A62.15,62.15,0,0,1,148.64,63.8a59.73,59.73,0,0,1,2,27.42C149.06,90.71,141.18,81.76,140.86,80.15Z"/><path class="cls-2" d="M85.85,19.42a33.42,33.42,0,0,0,0,4.13c.41,3.1-.43,5.11-3.59,5.39A57,57,0,0,0,49.59,42.27C42.17,48.42,37.31,56.39,33.8,65.51c-1,2.48-1.81,5-3.6,7a4.54,4.54,0,0,1-6.26,1c-2.24-1.37-2.72-3.67-1.76-6.14,4.44-11.42,9.49-22.41,18.55-30.57A66.54,66.54,0,0,1,75.72,20,41.46,41.46,0,0,1,85.85,19.42Z"/><path class="cls-2" d="M88.9,58c8.92,1.12,15.92,5.23,20.19,14.22a22.22,22.22,0,0,1,.25,19.5c-.34.77-.49,1.64-.77,2.44-3.68,10.59-9.37,19.87-16,28.53-2.21,2.87-4.14,6-6.68,8.54a2.07,2.07,0,0,0,.06-.61c-1.5-.72-1.31-2.24-1.41-3.58a99,99,0,0,1,.22-10.19l1.14-2.61A48.9,48.9,0,0,1,92,102.65a7.25,7.25,0,0,0,.71-1,106.31,106.31,0,0,0,6-14.29c2.3-7.25.06-15-8.55-17.37-1.5-.42-3.17-.61-4.25-2.09l-1.2-.22c-.31-3.26-1.09-6.6,1.15-9.5Z"/><path class="cls-2" d="M64.37,54.29c-.69,2.16-2.36,3.52-3.88,4.8-4.2,3.55-6.28,8.61-8.09,13.61-2.79,7.7-6.27,14.74-12,20.35a28.48,28.48,0,0,1-11.9,7.09c-3,.88-5.5-.54-6.19-3.34s.59-4.69,3.67-5.91A24.55,24.55,0,0,0,38.64,79.27a72,72,0,0,0,5.28-12.2c2.44-7.71,7.41-13.34,13.16-18.24,2.45-2.09,5.28-1.11,7.27,2.12A3,3,0,0,1,64.37,54.29Z"/><path class="cls-2" d="M85.85,96.17A81,81,0,0,1,72.36,116a72.23,72.23,0,0,1-21.5,17,4.59,4.59,0,0,1-6.45-2.08,4.78,4.78,0,0,1,2.08-6.55A74.44,74.44,0,0,0,65,109.4a52.46,52.46,0,0,0,6.71-8.55c3.5-5.82,7.11-11.62,9-18.43.72-2.65,2.23-4.81,5.21-4.9,1.4,1.08,1.31,2.72,1.41,4.3.24,4-.32,8-.08,12A2,2,0,0,1,85.85,96.17Z"/><path class="cls-2" d="M64.37,93A55.25,55.25,0,0,1,37,118a5.45,5.45,0,0,1-4.65-.09,4.25,4.25,0,0,1-2.79-4.09,4.09,4.09,0,0,1,2.56-4.24,47.52,47.52,0,0,0,15.5-10.52,91.7,91.7,0,0,0,7.59-9.35c3-4.08,6.19-4.25,9.13,0A3,3,0,0,1,64.37,93Z"/><path class="cls-1" d="M85.85,96.17l.59-1.92a11,11,0,0,1,1.4-5.52c1.81-4,2.58-7.8-.74-11.36-2-1.61-1-3.93-1.22-6-.1-1.16,0-2.35,0-3.53a13.68,13.68,0,0,1,13.55,7.49c3,5.58,1.66,11.61-1,17.13-.41.84-.82,1.68-1.17,2.54a69.72,69.72,0,0,1-11.39,19.22Q85.85,105.21,85.85,96.17Z"/><path class="cls-2" d="M85.85,58.15c-.46,3.16,1.13,6.6-1.15,9.5-6,.83-10.68,3.57-12.83,10.22-.91,2.83-4.21,3.93-7,2.78-2.45-1-3.37-3.47-2.34-6.63C65.38,65.22,75.65,57.46,85.85,58.15Z"/><path class="cls-2" d="M84.72,116.86c1.42.7,1.11,2.09,1.13,3.31,0,3.49,0,7,.06,10.47-3.19,4.86-7.36,8.69-11.61,12.38a4.61,4.61,0,0,1-6.72-1c-1.58-2.2-1.19-5,1.37-7.35C74.75,129.3,79.71,123.07,84.72,116.86Z"/><path class="cls-2" d="M70.84,43.2A4.6,4.6,0,0,1,74.62,40a34.16,34.16,0,0,1,11.24-1.21c2.18,2.42,1.5,5.31.91,8-.38,1.73-2.15,1-3.27,1.49-2.26.41-4.51.85-6.77,1.23-2.59.45-4.8,0-5.89-3A3,3,0,0,1,70.84,43.2Z"/><path class="cls-2" d="M83.5,48.3c1.74-.55,2.56-1.7,2.39-3.77-.15-1.9,0-3.84,0-5.76l4.22-.1c4.85.24,6.73,1.71,6.62,5.25-.08,2.57-1.26,4.29-3.71,4.48s-4.73.08-7.09.1Z"/><path class="cls-2" d="M87.1,77.37c3.54,1,4.79,3.13,3.73,6.71s-1.89,7.3-4.39,10.17c-1.21-3.72-.33-7.55-.56-11.33-.11-1.79,0-3.6,0-5.4Z"/><path class="cls-1" d="M70.84,43.2v3.34C69.22,45.42,69.23,44.31,70.84,43.2Z"/><path class="cls-2" d="M64.37,54.29c0-1.11,0-2.23,0-3.34C65.94,52.06,66,53.17,64.37,54.29Z"/><path class="cls-2" d="M64.37,93c0-1.1,0-2.21,0-3.31C65.9,90.79,66,91.9,64.37,93Z"/><path class="cls-3" d="M130.77,116.72c4.12-.86,8.28-.24,12.41-.35s8.12,0,12.17,0c3.22,0,5.37,1.62,6.56,4.8,0,12.45-.14,24.9-.1,37.36,0,3.25-1.27,5.2-4.07,6.14-5.44.68-10.9.16-16.36.29-3,.07-6,0-8.94,0-1.64,0-2.82-.55-2.89-2.42-.21-5.34-.68-10.69.31-16a3.12,3.12,0,0,1,.45-1,4.9,4.9,0,0,1,3.59-1.15,8.71,8.71,0,0,0,3.49-.6,3.21,3.21,0,0,0,.06-6.11,10.43,10.43,0,0,0-4.38-.64c-1.29-.05-2.63,0-3.21-1.65-1-5.39-.47-10.81-.34-16.22A4,4,0,0,1,130.77,116.72Z"/><path class="cls-3" d="M130.77,116.72l.06,19.28a1.57,1.57,0,0,1-.34.83c-1.26,1.13-2.81.78-4.26.93s-2.7.78-2.87,2.59.76,2.85,2.4,3.45,3.86,0,5,2.1c0,5.14.09,10.28,0,15.41-.06,2.54.85,3.35,3.15,3.33,7.94-.09,15.88,0,23.82,0-1.14,1-2.49.58-3.75.58q-21-.06-42.07-.2c-1.49,0-3,0-4.48,0a9.59,9.59,0,0,1-4.89-1.18,8.32,8.32,0,0,1-1.42-5.39c0-4.68-.12-9.36-.19-14-1.72-4.44-.91-9-.51-13.53.08-.93.46-1.85.53-2.81.07-1.91.13-3.82.19-5.73.13-4,1.44-5.47,5.21-5.72l5-.27c3.39-1.15,6.77-1.92,10.16,0Z"/><path class="cls-2" d="M121.52,116.34a44.26,44.26,0,0,1-10.16,0c0-5,.31-10.07,0-15.07-.61-9,2.19-15.88,9.37-20.59,2.56-3.54,7.16-4.73,10.17-2.63l0,.25c2.34,3.09,2.51,6.54.47,9.43-7.1.86-9.76,4-9.8,11.65Q121.54,107.85,121.52,116.34Z"/><path class="cls-2" d="M131.37,87.71q-.24-4.72-.47-9.43c3.53-.7,6.7.86,10,1.87a25.63,25.63,0,0,1,9.75,11.07,36.1,36.1,0,0,1,1,9.83c-.16,3.85-2,6-5.24,6s-5.15-2.06-5.3-5.89a11.1,11.1,0,0,1,0-1.29C141.58,92.86,139.09,89.23,131.37,87.71Z"/><path class="cls-2" d="M130.86,78c-3.56.13-6.85,1.43-10.17,2.63-.18-12.22-6.16-20.64-15.28-26.94-2.1-1.44-3.31-3-2.34-5.77.81-2.27,3.77-3.68,6.22-3.14,2.88.64,5,2.82,7,4.66C124.6,56.88,130.46,65.89,130.86,78Z"/><path class="cls-2" d="M101,128a111.4,111.4,0,0,1,0,16.34c-2.43.47-4.8.61-6.32-2.06s-.35-4.89,1.15-7Z"/><path class="cls-1" d="M130.83,136a14.19,14.19,0,0,1,7.09.16,4.8,4.8,0,0,1,0,9.15c-2.15.74-4.34.47-6.52.43-2.58-1.94-2.88-6.31-.66-9.53Z"/><path class="cls-1" d="M130.78,136.21c.39,3.17-.57,6.44.66,9.54l-.64.15c-1.86-.2-3.73-.31-5.58-.61-2.63-.41-3.62-2.28-3.47-5s1.55-4.05,4-4.12C127.42,136.13,129.1,136.2,130.78,136.21Z"/></g></g></svg>