<svg xmlns="http://www.w3.org/2000/svg" viewBox="0 0 139.41 173"><defs><style>.cls-1{fill:#da7800;}.cls-2{fill:#222020;}.cls-3{fill:#fe6d3a;}</style></defs><title>sim</title><g id="Layer_2" data-name="Layer 2"><g id="sim"><path class="cls-1" d="M69.28,172.89c-17.9,0-35.8.21-53.7,0-9.69-.1-15.5-6.52-15.53-16.61C0,135.72,0,115.11,0,94.51c0-25.79,0-51.57,0-77.35C0,11.14,1.61,6,6.83,2.62A42.24,42.24,0,0,1,12.49,0H69.25a3.25,3.25,0,0,1,.92,2.1c.09,5.87.58,11.75-.29,17.6-.39,1-1.42,1.37-2.16,2-2.18,1.61-2.89,3.88-2.91,6.46,0,4.69,0,9.39,0,14.08,0,3.66,1,6.83,4.74,8.42a3.37,3.37,0,0,1,.5,1.13c.52,5.44.21,10.9.19,16.35A4.4,4.4,0,0,1,69.4,71c-1.54,1.26-3.4,1-5.17,1-9.56,0-19.12,0-28.68,0-1.13,0-2.25,0-3.38,0-8.28.18-10.43,2.34-10.49,10.78-.07,8.77,0,17.55,0,26.32,0,10.12-.22,20.25.06,30.36.32,11.82,2.31,12.06,12.1,12.15,10.12.1,20.25,0,30.37,0,1.77,0,3.63-.24,5.19,1a5.28,5.28,0,0,1,.92,3.47q.11,6.66,0,13.33A4.5,4.5,0,0,1,69.28,172.89Z"/><path class="cls-1" d="M69.29,20.17,69.25,0H101c5.35,2.2,9.58,5.86,13.65,9.91C120.92,16.13,127.55,22,134,28a17.18,17.18,0,0,1,5.4,13q0,57.9,0,115.8c0,10.05-7,16.17-16.77,16.18-17.77,0-35.55-.06-53.33-.1l-.06-20.2.48-.43c1.59-.77,3.3-.58,5-.58,11.25,0,22.51,0,33.76,0,6.73,0,8.38-1.65,8.39-8.41q.06-31.4,0-62.79c0-6.76-1.66-8.39-8.39-8.42-11.25,0-22.51,0-33.76,0-1.68,0-3.39.19-5-.58L69.22,71q0-9.85,0-19.69C74,48.89,74.79,44.81,74.43,40a66.6,66.6,0,0,1,0-9.37C74.73,26.1,74,22.22,69.29,20.17Z"/><path class="cls-2" d="M69.22,152.69q-18.57-.08-37.12-.15c-9.3,0-11-.46-11.21-11.33-.37-19.12-.06-38.26-.15-57.39A30.39,30.39,0,0,1,21.94,75a4.28,4.28,0,0,1,3.77-3.37c2-.21,4-.4,6.05-.42,12.49-.08,25-.11,37.46-.16l0,.26a11.67,11.67,0,0,1,.12,10c-3.21,1.58-6.63.73-10,.83-5.11.17-5.3.22-5.3,5.36q0,24.48,0,49c0,4.86.25,5,5.2,5.13,3.33.11,6.75-.71,10,.79a11.29,11.29,0,0,1,0,10.07Z"/><path class="cls-3" d="M53.57,35.94c-.2,3.36.2,6.84-.34,10.31-.48,3.07-2.06,4.56-5.17,4.56s-5-1.19-5.28-4.38a113.73,113.73,0,0,1,.06-21.83c.35-3.24,2.86-4.26,5.56-4.21s4.28,1.59,4.76,4.36C53.79,28.43,53.41,32.14,53.57,35.94Z"/><path class="cls-3" d="M31.92,35.92c-.17,3.19.32,7-.4,10.8-.49,2.59-1.93,4-4.54,4.07a4.59,4.59,0,0,1-5.06-3.47c-2.28-6.89-1-14-1-20.94,0-3.35,3.46-6.26,6.07-6.07,3,.21,4.86,2.82,4.94,6.92C32,29.93,31.92,32.62,31.92,35.92Z"/><path class="cls-3" d="M69.29,20.17c4.15.49,5.87,2.15,5.94,6.22.11,6.07.1,12.13,0,18.2-.06,4.16-1.23,5.37-6,6.72,0-.18,0-.36,0-.54-1.16-1.43-1-3.14-1-4.81q0-9.55,0-19.11a14.8,14.8,0,0,0-1-5.9C67.74,20.23,68.57,20.35,69.29,20.17Z"/><path class="cls-3" d="M67.23,21c2.32-.16,2,1.5,2,2.95l0,26.87c-3,0-4.55-1.56-4.86-4.46-.74-6.84-.34-13.71-.24-20.56A4.83,4.83,0,0,1,67.23,21Z"/><path class="cls-2" d="M69.25,152.42l0-9.83c3.34-1.89,7-.54,10.44-.94,1.6-.19,3.39.51,4.7-1,.84-1.33.65-2.83.65-4.27q0-24.59,0-49.16c0-1.45.19-2.94-.7-4.24-1.34-1.45-3.12-.76-4.71-1-3.45-.4-7.06,1-10.38-.94q0-4.91,0-9.83c14.18-.06,28.36-.22,42.54-.15,4.23,0,6,2.46,6,7.29q0,30.73,0,61.48c0,2.14.08,4.28,0,6.41-.19,4-2.1,6.27-6,6.28C97.6,152.63,83.43,152.49,69.25,152.42Z"/><path class="cls-3" d="M85.65,35.5c.16-3.59-.19-7.18.36-10.76.43-2.79,2.17-4.32,4.74-4.34,2.74,0,5.22,1.53,5.55,4.33a92.51,92.51,0,0,1,0,21.81c-.32,2.72-2.62,4.28-5.53,4.26-2.75,0-4.31-1.47-4.77-4.22C85.39,42.9,85.84,39.19,85.65,35.5Z"/><path class="cls-3" d="M85.49,141.93c-3,1.41-6.12.42-9.18.63-2.33.17-4.69,0-7,0-4.27,0-8.54-.17-12.8-.06-2.41.06-3.4-.65-3.39-3.23q.13-27.47,0-54.92c0-2.58,1-3.29,3.39-3.23,4.26.12,8.53,0,12.8-.06s8.71,0,13.06,0c1.07,0,2.26-.36,3.15.65-2.52,1.88-5.43,1-8.17,1-7.42.17-7-.56-7,6.94q0,23.12,0,46.23c0,4.73.16,4.7,5,4.92C78.7,141.05,82.27,139.9,85.49,141.93Z"/><path class="cls-3" d="M42.8,112.17c0,.9.07,1.8,0,2.69-.23,2.29,1.13,5.39-.73,6.71-2.44,1.72-5.86.52-8.85.57-1.49,0-1.7-1.18-1.7-2.39V104a1.64,1.64,0,0,1,0-.67c2.11-3.71,5.6-1.12,8.38-1.76,1.57-.37,2.9.18,2.87,2.24C42.76,106.56,42.79,109.37,42.8,112.17Z"/><path class="cls-3" d="M37.09,91.81c-1,0-2,0-3,0-1.86.09-2.6-.77-2.58-2.61.14-9.66-1.13-7.73,7.57-8.07,3-.12,4.17.9,3.75,3.83a6.68,6.68,0,0,0,0,1C42.78,92.34,43.39,91.8,37.09,91.81Z"/><path class="cls-3" d="M37,142.49c-1,0-2,0-3,0-1.64.05-2.57-.6-2.49-2.35,0-.22,0-.44,0-.67-.28-7.54,2.29-9.83,9.59-7.4,3.76,1.25,1,5.31,1.65,8,.37,1.63-.69,2.45-2.37,2.4C39.26,142.46,38.14,142.49,37,142.49Z"/><path class="cls-3" d="M85.49,141.93c-4.38,0-8.77-.1-13.14,0-2.28.07-3.16-.54-3.14-3q.14-27.14,0-54.25c0-2.45.86-3.07,3.14-3,4.37.14,8.75,0,13.14,0,1,.9.63,2.09.63,3.17q0,26.92,0,53.84C86.12,139.84,86.47,141,85.49,141.93Z"/><path class="cls-3" d="M106.45,112.07v3.37c0,6.35-1.55,7.52-7.94,6.23-1.36-.28-1.56-1-1.56-2.13,0-5.17,0-10.34,0-15.52,0-1.43.62-2.07,2-2h.34c7.14-.49,7.14-.49,7.14,6.68Z"/><path class="cls-3" d="M101.58,91.89c-5.09,0-5.28-.21-5.27-5.67,0-4.87.26-5.11,5.49-5.11s5.29.21,5.28,5.67C107.07,91.65,106.82,91.89,101.58,91.89Z"/><path class="cls-3" d="M101.49,141.94c-4.55,0-4.55,0-4.55-4.88,0-4.63,0-4.63,5.13-4.63,4.38,0,4.38,0,4.37,5C106.44,141.94,106.44,141.94,101.49,141.94Z"/></g></g></svg>