<svg xmlns="http://www.w3.org/2000/svg" viewBox="0 0 376 193"><defs><style>.cls-1{fill:#282626;}.cls-2{fill:#fefefe;}.cls-3{fill:#fdfdfe;}.cls-4{fill:#296bfe;}.cls-5{fill:#222020;}</style></defs><title>tecno</title><g id="Layer_2" data-name="Layer 2"><g id="tecno"><rect class="cls-1" width="376" height="193"/><path class="cls-2" d="M275.08,68.11c3.54,0,7.09,0,10.64,0a11.33,11.33,0,0,1,8.6,3.48A5.52,5.52,0,0,1,296,75.48c0,6.1,0,12.19,0,18.29,0,3.13-2.16,4.85-4.63,6.17a11.58,11.58,0,0,1-5.65,1.28c-7.14,0-14.28,0-21.42,0a10.83,10.83,0,0,1-8.46-3.48A6.05,6.05,0,0,1,254,93.53c0-5.89.06-11.78,0-17.66,0-3,2.72-5.91,5.88-7a13.21,13.21,0,0,1,4.41-.73C267.89,68.12,271.49,68.11,275.08,68.11Z"/><path class="cls-2" d="M224,68.11c4.89,0,9.77,0,14.66,0a11.22,11.22,0,0,1,8.76,3.64A5.86,5.86,0,0,1,249,75.9c0,8.1,0,16.2,0,24.3,0,.86-.3,1-1.09,1-3.13,0-6.26,0-9.39,0-1,0-1.18-.27-1.17-1.19,0-7.31,0-14.62,0-21.92,0-3.33-1.74-5.32-5.07-5.42-4.3-.13-8.6,0-12.9-.06-1,0-.74.68-.74,1.19q0,12.66,0,25.3c0,2.08,0,2.08-2,2.08-2.84,0-5.68,0-8.52,0-.9,0-1.1-.29-1.09-1.14q0-15.4,0-30.81c0-1.06.38-1.2,1.29-1.2C213.51,68.13,218.73,68.11,224,68.11Z"/><path class="cls-2" d="M147.49,101.22c-4,0-7.94,0-11.9,0a10.83,10.83,0,0,1-8.94-4,6,6,0,0,1-1.42-3.72c0-5.84-.09-11.69,0-17.53.07-3.46,2.39-5.43,5.29-6.8a11.24,11.24,0,0,1,4.85-1c8.19,0,16.37,0,24.55,0,1,0,1.35.29,1.22,1.26s.46,2.43-.26,3.12-2,.18-3,.18q-7.59,0-15.16,0a6.87,6.87,0,0,0-4,1.17c-1.61,1.08-1.74,2.7-1.57,4.42s1.39,2.66,2.85,3.27a7.22,7.22,0,0,0,2.81.51c5.68,0,11.36,0,17,0,1,0,1.47.17,1.34,1.28s.31,2.39-.21,3-2,.25-3.09.25q-9.78,0-19.54,0c-1,0-1.35.18-1.27,1.22a31.39,31.39,0,0,1,0,3.88c-.13,3,1.45,4.42,4.47,4.9a24.39,24.39,0,0,0,3.63.1c4.88,0,9.77,0,14.65,0,1,0,1.5.15,1.35,1.27s.45,2.43-.27,3.12-2,.17-3,.18C154.42,101.23,151,101.22,147.49,101.22Z"/><path class="cls-2" d="M188.31,101.22c-4,0-7.93,0-11.9,0a10.86,10.86,0,0,1-9.26-4.4A6,6,0,0,1,166,93.35c-.07-5.81-.14-11.61,0-17.41.07-2.76,1.72-4.79,4.08-6.19a11.88,11.88,0,0,1,6.18-1.64c8.18,0,16.37,0,24.55,0,1,0,1.24.32,1.14,1.22-.11,1.06.45,2.45-.22,3.13s-2.06.2-3.14.21c-5,0-10.1,0-15.15,0a6.16,6.16,0,0,0-4.69,1.86,3,3,0,0,0-.87,2.24c0,5.26,0,10.52,0,15.78,0,1.92,1.53,3.44,3.84,3.91a11.73,11.73,0,0,0,2.37.19c5.55,0,11.1,0,16.65,0,.89,0,1.34.16,1.21,1.15s.48,2.54-.26,3.24-2.07.17-3.15.18C195.16,101.23,191.73,101.22,188.31,101.22Z"/><path class="cls-2" d="M104.92,101.26l-9.51,0c-1.88,0-1.88,0-1.88-1.94,0-8.48,0-17,0-25.42,0-1-.25-1.24-1.23-1.23-4.3.06-8.6,0-12.9.05-.89,0-1.33-.15-1.2-1.15s-.48-2.59.27-3.23,2.07-.19,3.15-.19c12.39,0,24.79,0,37.18,0,1.11,0,1.41.27,1.38,1.38-.06,3.2,0,3.2-3.18,3.2-2.17,0-4.34,0-6.51,0a6,6,0,0,0-4.76,2.25,2,2,0,0,0-.5,1.47,3.47,3.47,0,0,0-.09,1.36c0,7.42,0,14.83,0,22.25C105.14,100.41,105.4,100.91,104.92,101.26Z"/><path class="cls-2" d="M233.73,111.68a5.38,5.38,0,0,1,4.64-1.78c2.36.06,4.77-.21,7,.91s3.63,2.62,3.5,5.28a46.14,46.14,0,0,0,0,5.88,5.94,5.94,0,0,1-5.24,6.82,32.09,32.09,0,0,1-13.89-.35,6.18,6.18,0,0,1-4.4-6.15c0-5.26.06-10.52,0-15.78a2.54,2.54,0,0,1,2.7-2.78c1.92.07,2.6.61,2.7,2.78.19,4.38,0,8.77.06,13.15,0,1.13,0,2.26,0,3.38.07,1.58.54,2.16,2,2.32a42.36,42.36,0,0,0,8.5,0c1.8-.18,2.49-1,2.52-2.78q.07-3.14,0-6.26c0-1.76-.63-2.37-2.37-2.59a11.74,11.74,0,0,0-1.87-.11C236.14,113.73,236.15,113.74,233.73,111.68Z"/><path class="cls-2" d="M164.19,119.78c0-2.33,0-4.67,0-7,0-1.68.62-2.22,2.26-2.64a8.55,8.55,0,0,1,8.37,2.14c1.39,1.26,3,2.32,4.45,3.5a.79.79,0,0,0,1.18,0c2-1.53,3.92-3.1,6-4.5a8,8,0,0,1,7.5-.9,2.51,2.51,0,0,1,1.77,2.55c0,4.63,0,9.27,0,13.9,0,1.59-.87,2.29-2.62,2.27s-2.34-.64-2.34-2.36c0-4,0-8,0-12,0-.49.11-1-.48-1.31s-.77.32-1.09.58c-1.93,1.57-3.88,3.13-5.78,4.75-3.07,2.62-4.88,1.93-7.26,0a70.67,70.67,0,0,1-5.56-4.66c-.27-.28-.6-.48-1-.27a1.15,1.15,0,0,0-.56,1.16c0,3.22,0,6.43,0,9.65a25.49,25.49,0,0,1-.09,2.62c-.14,1.46-.75,1.91-2.4,1.89s-2.33-.52-2.37-1.93c-.08-2.46,0-4.92,0-7.39Z"/><path class="cls-2" d="M284.56,109.93c2.13.12,4.39-.15,6.62.37a5.71,5.71,0,0,1,4.68,5c.06.71.05,1.42.12,2.12.23,2.53-1.33,3.51-3.49,3.79a53.81,53.81,0,0,1-9.5.09c-.88,0-1.77-.22-2-1.32-.27-1.32.31-2.13,1.8-2.22s2.92,0,4.38,0a7.28,7.28,0,0,0,1.62-.11c.75-.19,2,.26,2.07-1a2.34,2.34,0,0,0-2.11-2.86,42.41,42.41,0,0,0-8.87-.08c-1.7.16-2.43,1.08-2.45,2.82,0,1.92,0,3.84,0,5.76a2.74,2.74,0,0,0,2.63,3,36.05,36.05,0,0,0,7.12.16,6.47,6.47,0,0,0,4.32-2.41,2.86,2.86,0,0,1,3.86-.07c.62.45.61,2,0,2.78a8.1,8.1,0,0,1-5.78,3.23A53.84,53.84,0,0,1,279,129c-3.13-.34-6.68-2.54-6.26-6.89a28.44,28.44,0,0,0,0-5.38c-.41-4.26,2.93-6.21,6-6.68A49.1,49.1,0,0,1,284.56,109.93Z"/><path class="cls-2" d="M210.53,129.07c-2.64,0-5.35.47-7.88-.74-2.3-1.11-3.72-2.75-3.63-5.47a50.14,50.14,0,0,0,0-6.13c-.41-4.29,3-6.36,6-6.6a70.43,70.43,0,0,1,11.25,0,6.64,6.64,0,0,1,5.05,2.56,3,3,0,0,1,.57,1.2c.59,2.76,1.13,5.52.28,8.34a2,2,0,0,0-.06.74c.2,3.74-2.52,5.26-5.19,5.92a3.54,3.54,0,0,1-.85.16C214.2,129.08,212.36,129.07,210.53,129.07Z"/><path class="cls-2" d="M260.44,114.69q0-4.32,0-8.64c0-1.64.78-2.36,2.48-2.36a2.24,2.24,0,0,1,2.48,2.43q0,7.83,0,15.65c0,2.49.09,2.64,2.36,3.6.88.38,1.79.8,1.63,2a2.41,2.41,0,0,1-2.45,1.69,6.46,6.46,0,0,1-6.48-6.48v-7.88Z"/><path class="cls-3" d="M257.13,121.16c0,2,0,3.92,0,5.88,0,1.46-.78,2.06-2.51,2s-2.42-.62-2.43-2q0-6,0-12c0-1.46.82-2.09,2.49-2.07s2.41.65,2.43,2.14c0,2,0,4,0,6Z"/><path class="cls-3" d="M252.17,106.93c.14-1-.44-2.16.9-2.88,2-1.1,4.05,0,4.05,2.22,0,.71,0,1.42,0,2.12,0,1.42-.82,2.06-2.48,2.06s-2.44-.65-2.47-2.06C252.16,107.93,252.17,107.47,252.17,106.93Z"/><path class="cls-4" d="M105.63,100.71V76.29h.25v24.42Z"/><path class="cls-2" d="M104.92,101.26a2.71,2.71,0,0,0,.2-1.59q0-10.89,0-21.8a3.54,3.54,0,0,1,.12-1.48c0,3.67.06,7.34.07,11q0,6.19,0,12.38C105.31,100.29,105.52,100.89,104.92,101.26Z"/><path class="cls-5" d="M284.32,84.74c0,2.26-.13,4.52,0,6.77a4.66,4.66,0,0,1-4.5,5,61.92,61.92,0,0,1-9.63,0,4.77,4.77,0,0,1-4.61-5.08c.2-4.5.05-9,.05-13.52,0-3.09,1.6-5,4.73-5.19a77.49,77.49,0,0,1,9.27,0,4.68,4.68,0,0,1,4.69,5.12C284.2,80.14,284.32,82.45,284.32,84.74Z"/><path class="cls-5" d="M210,113.58c2,.08,3.48-.06,4.94.16a2.43,2.43,0,0,1,2.36,2.64q0,3,0,6a2.69,2.69,0,0,1-2.62,3,37.83,37.83,0,0,1-8.24,0c-1.81-.19-2.47-1-2.49-2.81,0-2.13,0-4.26,0-6.39,0-1.54.58-2.21,2.12-2.38S209.1,113.63,210,113.58Z"/></g></g></svg>