<svg xmlns="http://www.w3.org/2000/svg" viewBox="0 0 182 139"><defs><style>.cls-1{fill:#da7800;}.cls-2{fill:#222020;}</style></defs><title>title</title><g id="Layer_2" data-name="Layer 2"><g id="title"><rect class="cls-1" width="182" height="139" rx="12" ry="12"/><path class="cls-2" d="M90.6,24.89c18.66,0,37.31.1,56,0,2.66,0,3.36.63,3.35,3.33-.11,26.77-.06,53.55-.07,80.33,0,6.75-1.75,8.47-8.55,8.48l-50.69.07-.44-.32a5,5,0,0,1-.85-3.42q-.11-22.45,0-44.9a6.76,6.76,0,0,1,1.07-3.94c2-1.44,4.24-2.64,4.63-5.44.52-3.66.8-7.31-.32-10.91a5.57,5.57,0,0,0-2.82-3.26c-.89-.47-1.88-.82-2.07-2-1-5.39-.51-10.81-.31-16.22a2.74,2.74,0,0,1,.69-1.48Z"/><path class="cls-2" d="M90.67,117Q64,117,37.43,117c-3.36,0-5.66-2.21-6.06-5.63-.09-.82,0-1.66-.05-2.5,0-26.89.05-53.79-.07-80.69,0-2.76.81-3.32,3.41-3.3C53.33,25,72,25,90.67,25q0,9.06,0,18.14c-.66,1.51-2.08,1.37-3.31,1.38-5.57.09-11.15.21-16.72-.07-6.27.26-12.56.08-18.84.15-5.08.06-7,1.83-7.4,6.91a21.42,21.42,0,0,0,.53,8c.78,2.56,2.31,3.84,4.48,3.78s3.57-1.45,4.2-4.09c.11-.45.17-.91.24-1.36a2.43,2.43,0,0,1,.09-.55c1.35-4.18,4.86-2.37,7.51-2.51,3-.16,3.67.59,3.83,3.16.26,4.15.1,8.31.11,12.46,0,6.1.06,12.2,0,18.29-.06,3.78-.27,4-3.83,4.82-3,.7-4.82,2.77-4.72,5.32s2.11,4.29,5.36,4.56c2.48.2,5,0,7.48.11a76.43,76.43,0,0,0,8-.18c3.15-.33,5-2,5.2-4.43s-1.66-4.63-4.64-5.36c-3.63-.9-3.84-1.06-3.87-4.78-.08-10-.1-19.92,0-29.89,0-4,.74-4.6,4.75-4.73.83,0,1.66,0,2.49,0,3.34.13,3.67.38,4.38,3.67.57,2.65,1.61,4.92,4.43,5.85A1.74,1.74,0,0,1,91.66,65c-1.08.87-1,2.09-1,3.29Q90.66,92.63,90.67,117Z"/><path class="cls-1" d="M70.1,43.35l20.55-.18c3.65.81,5.49,2.44,5.78,5.95a69.46,69.46,0,0,1,0,10.2A5.71,5.71,0,0,1,91.66,65c-4.77-.14-6.76-1.89-6.9-6.7-.07-2.26-.85-2.76-2.93-2.74-6,.06-6,0-6,6,0,9.34,0,18.68,0,28,0,2,.45,2.74,2.59,2.77a6.12,6.12,0,0,1,6.27,6.56c-.06,3.45-2.48,5.7-6.41,5.82-2.86.09-5.73,0-8.6,0-.93-1.18-.84-2.6-.84-4q-.08-26.53,0-53.07C68.78,46.11,68.57,44.45,70.1,43.35Z"/><path class="cls-1" d="M112.72,92.56c2.76-1.07,5.64-.39,8.46-.46,3.68-.1,7.37,0,11,.19,3.35.2,5.58,2.87,5.62,6.35a5.53,5.53,0,0,1-5.34,5.92c-6.26.25-12.53.17-18.8.19-.33,0-.66-.27-1-.42.3-1.12,1.25-1.21,2.17-1.32s1.83-.08,2.74-.11c1.57-.05,3.34.08,4-1.76a7,7,0,0,0-.26-5.86c-.86-1.49-2.54-1.14-4-1.31C115.74,93.78,113.78,94.62,112.72,92.56Z"/><path class="cls-1" d="M123.37,55.49a37,37,0,0,1-9.64.1,5.62,5.62,0,0,1-5.31-6.47C108.8,46,111,43,114.49,43.23c2.94.19,5.9.09,8.85.12.28.24.71.46.76.77C124.77,48,125.72,51.84,123.37,55.49Z"/><path class="cls-1" d="M123.34,80.33c-3,0-6.09,0-9.13.11-3.32.14-5.42-2.85-5.79-5.88a5.57,5.57,0,0,1,5-6.43,36.55,36.55,0,0,1,9.91.06c2.25,2.42,1.11,5.41,1.29,8.16C124.76,77.78,124.79,79.34,123.34,80.33Z"/><path class="cls-1" d="M123.37,55.49l0-12.14c2.77,0,5.54-.12,8.3-.07,3.82.06,6.14,2.48,6.21,6.34.07,3.5-2.31,5.85-6.18,5.94C128.91,55.62,126.14,55.52,123.37,55.49Z"/><path class="cls-1" d="M112.72,92.56c2.67,0,5.35.09,8,0,1.89,0,2.68.81,2.62,2.67q-.09,3.18,0,6.36c.06,1.86-.73,2.7-2.62,2.66-2.67-.05-5.35,0-8,0-2.92-.7-4.22-2.71-4.32-5.56A6.56,6.56,0,0,1,112.72,92.56Z"/><path class="cls-1" d="M123.34,80.33l0-12.14c2.95,0,5.91-.14,8.85,0a5.57,5.57,0,0,1,5.63,5.63c.06,3.71-2.19,6.46-5.66,6.6C129.25,80.5,126.29,80.36,123.34,80.33Z"/><path class="cls-1" d="M70.1,43.35v57.53a8.49,8.49,0,0,1-.49,3.8c-2.67,0-5.35.14-8,.09-3.9-.07-6.46-2.53-6.45-6.07,0-3.84,2.44-6.53,6.31-6.52,2.08,0,2.63-.59,2.61-2.65q-.16-15.51,0-31c0-2.22-.68-3-2.81-2.74a7.41,7.41,0,0,1-1.94,0c-3-.43-4.48.2-4.33,3.81.14,3.27-2.36,5.32-5.42,5.49s-5.59-1.52-6-4.85c-.55-4.63-1.27-9.34.71-13.89a4.75,4.75,0,0,1,4.77-3.06C56.07,43.28,63.08,43.32,70.1,43.35Z"/></g></g></svg>