<svg xmlns="http://www.w3.org/2000/svg" viewBox="0 0 673 673"><defs><style>.cls-1{fill:#f7931c;}.cls-2{fill:#ff8500;}.cls-3{fill:#fc8300;}.cls-4{fill:#eda666;}</style></defs><title>update</title><g id="Layer_2" data-name="Layer 2"><g id="update"><circle class="cls-1" cx="336.5" cy="336.5" r="336.5"/><path class="cls-2" d="M595.42,364.16c-2.7,12.15-4.69,24.51-8.22,36.41Q541.73,554.1,385.05,587.88c-6.94,1.49-9.84-.54-12.72-6.59-11-23.09-22.5-45.92-33.8-68.86-4.82-9.77-4.8-9.73,6.19-10.47,64.87-4.39,114-34,143.58-92.45,34.95-69,14.64-155.66-45.82-202.18-5-3.83-7.57-4.86-10.88,1.8-4.87,9.78-10.84,19-17.08,29.73C391,191.28,368,144.75,344.33,97L502.17,86.8C496.11,97.46,491,107.39,485,116.73c-3.7,5.74-3,8.51,2.68,12.52,55.65,39.62,89.53,93.43,103.27,160.17,1.43,7,.81,14.37,4.51,20.84v18a49.92,49.92,0,0,0,0,22Z"/><path class="cls-3" d="M595.42,350.19a26.09,26.09,0,0,1,0-22Z"/><path class="cls-4" d="M265.76,436c5.79,11.81,11.45,23.41,17.18,35q24.32,49.13,48.67,98.24c1.82,3.7,5.32,7.92-3.16,8.44-49.72,3-99.42,6.25-151,9.53,6-10.55,11-20.18,16.89-29.19,4.16-6.34,3.25-9.59-3-14-52-37-85.34-86.86-100.17-148.77C57,252.66,152.46,109.67,297.15,85.83c4.37-.72,6.61-.32,8.6,3.76,12.2,25.1,24.46,50.18,37,75.09,4.47,8.86-3.15,7-6.46,7.19-19.7,1.26-39,4.36-57.28,12-57,23.7-92.3,66-102.22,126.62-10.28,62.84,11.7,114.86,60.25,155.91,5.94,5,8.4,3.59,11.56-2.57,4.55-8.86,9.94-17.28,15-25.86A13.28,13.28,0,0,1,265.76,436Z"/><path class="cls-4" d="M339.94,202.64c13.27-.15,26.55-.21,39.82-.51,4.33-.1,5.81,1.6,5.71,5.86-.22,9.29-.18,18.6,0,27.9.15,10,11.14,16.08,19.86,11.14,7.78-4.41,15.64-8.71,23.22-13.45,4.06-2.54,6.34-3,9.1,2q18.92,33.82,38.67,67.17c3.18,5.33,1.65,7.27-3,9.63-6.2,3.13-12.1,6.85-18.12,10.32-14.41,8.3-14.5,20.13-.2,28.42,6.59,3.82,13.16,7.7,19.85,11.35,3.57,1.94,4.4,3.79,2.13,7.67C463.52,393,450.38,416,437.22,439c-2.11,3.7-4.29,4.11-7.94,1.79-7-4.43-14.35-8.28-21.45-12.54-4.89-2.93-8.8-5-15.15-1.31s-7.66,7.9-7.36,14.3c.37,8-.18,16,.18,23.91.22,5.13-1.35,7.07-6.7,6.89-12.94-.43-25.89-.34-38.84-.46a9.43,9.43,0,0,1-2.92-7.19c-.06-26.55-1.41-53.11.69-79.62,2.06-5.65,7.46-6,12.1-7.33,27.95-8.26,39.63-37,25.48-62.46-5.73-10.33-15.07-15.34-25.84-18.59-4.28-1.3-9.46-1.17-11.61-6.45-2.33-26.7-.86-53.42-.83-80.12A10.07,10.07,0,0,1,339.94,202.64Z"/><path class="cls-2" d="M339.94,382.3q0,44.64,0,89.28c-12.95.1-25.9,0-38.85.39-4.8.12-6.49-1.64-6.39-6.32.21-9,.14-17.94,0-26.91-.13-10.67-11.24-17.31-20.39-12.16-7.52,4.24-15,8.56-22.31,13.13-4.38,2.75-7.09,3.14-10.1-2.26-12.29-22-25-43.82-37.78-65.54-2.75-4.68-2.81-7.38,2.48-10,7.4-3.72,14.34-8.34,21.65-12.25,4.82-2.58,6.84-5.57,6.93-11.6.11-7.35-2.07-11.22-8.52-14.66-8.62-4.59-22-7.69-23.62-16-1.41-7.23,7.84-16.62,12.58-24.94,8.37-14.71,17.3-29.11,25.17-44.09,3.67-7,7-7.25,12.89-3.13,5.42,3.78,11.42,6.75,17.18,10,5,2.83,8.82,6.53,16,2.26s8.08-9.11,8-16.13c-.08-9.23-4-21.26,1.46-27,5.94-6.29,18.18-1.47,27.66-2,5.28-.31,10.61.14,15.92.25q0,44.63,0,89.26c-2.65,3.69-7,3.22-10.72,4.33-19.09,5.83-31.71,21.9-31.78,40.81-.07,19.11,12.33,35,31.74,40.75C332.92,378.9,337.16,378.91,339.94,382.3Z"/></g></g></svg>