<svg xmlns="http://www.w3.org/2000/svg" viewBox="0 0 376 193"><defs><style>.cls-1{fill:#282626;}.cls-2{fill:#fcfdfc;}.cls-3{fill:#fbfcfb;}.cls-4{fill:#fcfefc;}.cls-5{fill:#f6fafb;}</style></defs><title>vivo</title><g id="Layer_2" data-name="Layer 2"><g id="vivo"><rect class="cls-1" width="376" height="193"/><path class="cls-2" d="M273.62,80.92c13.63,4.72,19.44,15.4,14.13,26.36-3.46,7.15-9.7,10.85-18.1,11.1-6.73.2-13.48.07-20.22,0-10.27,0-18.58-6.06-20.54-14.84-2.07-9.3,3-18,12.75-21.78.61-.23,1.19-.53,1.79-.81A278.93,278.93,0,0,1,273.62,80.92Z"/><path class="cls-3" d="M199.24,117.78a12.93,12.93,0,0,1-10.88-5.59c-6.07-8.08-11.92-16.3-18-24.39-1.75-2.34-1.94-4.67.51-6.24s5-.79,6.82,1.74q8.64,12,17.5,23.79c3.41,4.55,4.72,4.5,8.15-.11,5.8-7.8,11.52-15.65,17.29-23.47,2.06-2.77,4.91-3.58,7.09-1.88,2.46,1.92,1.87,4.1.25,6.29-5.92,8-11.76,16.1-17.74,24.08C207.62,115.54,204.11,117.91,199.24,117.78Z"/><path class="cls-3" d="M121.82,117.77a12.32,12.32,0,0,1-10.28-5c-6.22-8.29-12.3-16.66-18.47-25-1.66-2.25-2.11-4.61.48-6.25s5.11-.62,6.86,1.78c5.9,8,11.77,16.09,17.72,24.09,3.1,4.17,4.48,4.14,7.64-.11,5.87-7.89,11.75-15.79,17.5-23.77,1.88-2.62,4.23-3.76,7-1.9s1.79,4.34.13,6.59C144.62,96.15,138.83,104.1,133,112A13.43,13.43,0,0,1,121.82,117.77Z"/><path class="cls-4" d="M156.4,99.73c0-4.74.06-9.48,0-14.21,0-2.79,1.12-4.85,4.21-4.85s4.34,2.06,4.33,4.83c0,9.6,0,19.19,0,28.79,0,2.64-1.34,4.44-4.26,4.45s-4.24-1.72-4.21-4.43c.05-4.86,0-9.72,0-14.58Z"/><path class="cls-5" d="M166.44,73.67c0,.73-5.36,5-6.23,5s-6.08-5.35-5.63-6c1.48-2.25,3.94-3.61,6.29-5C161.6,67.3,166.47,72.6,166.44,73.67Z"/><path class="cls-1" d="M245.81,110.3c-6.32-1.32-9.63-5.51-9.21-11.68a10.88,10.88,0,0,1,10.82-10.15c7.81-.22,15.63-.3,23.43,0a10.85,10.85,0,0,1,10.55,10c.39,6.26-2.79,10.43-9,11.82A214.3,214.3,0,0,1,245.81,110.3Z"/></g></g></svg>