<svg xmlns="http://www.w3.org/2000/svg" viewBox="0 0 429 429"><defs><style>.cls-1{fill:#f7931c;}.cls-2{fill:#e9e9e9;}</style></defs><title>x-shape</title><g id="Layer_2" data-name="Layer 2"><g id="x-shape"><circle class="cls-1" cx="214.5" cy="214.5" r="214.5"/><path class="cls-2" d="M310.78,147.39c-.39,1.56-1.6,2.28-2.52,3.2q-29.52,29.58-59.14,59.06c-2.35,2.33-2.44,3.49,0,5.86,19.9,19.69,39.61,39.58,59.5,59.27,2.31,2.28,2.12,3.48-.07,5.61q-13.32,13-26.29,26.3c-2.14,2.21-3.25,2-5.32-.05-19.53-19.69-39.22-39.21-58.71-58.93-2.69-2.72-4.05-3.18-7-.16-19.44,19.77-39.17,39.27-58.69,58.95-2.15,2.16-3.35,2.43-5.61.09-8.52-8.81-17.15-17.54-26-26-2.77-2.64-2.09-3.91.22-6.19,19.69-19.53,39.21-39.22,58.92-58.72,2.47-2.43,2.59-3.64,0-6.15-19.81-19.59-39.42-39.38-59.22-59-2.36-2.34-2.38-3.58,0-5.89q13.23-12.78,26-26c2.2-2.26,3.4-2.22,5.61,0,19.7,19.88,39.58,39.59,59.27,59.49,2.39,2.42,3.56,2.26,5.86-.06,19.61-19.8,39.39-39.42,59-59.21,2.26-2.28,3.5-2.61,5.89-.13,8.61,8.92,17.48,17.59,26.24,26.36C309.45,145.86,310.12,146.66,310.78,147.39Z"/></g></g></svg>