<svg xmlns="http://www.w3.org/2000/svg" viewBox="0 0 376 193"><defs><style>.cls-1{fill:#282626;}.cls-2{fill:#da7800;}.cls-3{fill:#fbfcfb;}</style></defs><title>xiaomi</title><g id="Layer_2" data-name="Layer 2"><g id="xiaomi"><rect class="cls-1" width="376" height="193"/><path class="cls-2" d="M95.58,58.91a53.68,53.68,0,0,1,15.35,1.4c10.15,2.76,15.74,10.66,17.13,22.75a127.09,127.09,0,0,1-.2,32.49c-1.78,12.54-8.55,20.12-19.16,21.82a81.46,81.46,0,0,1-26.12,0c-11.38-1.84-18.15-9.89-19.66-23.52a139.74,139.74,0,0,1,0-30.53c1.58-14.48,9.42-22.8,22.26-24A84.13,84.13,0,0,1,95.58,58.91Z"/><path class="cls-3" d="M303.93,101.7c0,3.48,0,7,0,10.43,0,1.34-.38,1.77-1.5,1.81-4.61.17-4.61.21-4.61-5.18,0-4.81,0-9.62,0-14.42,0-3.85-.91-4.8-4.14-4.89-4.74-.12-5.18.38-5.18,6.09,0,5.4,0,10.8,0,16.2,0,1.6-.37,2.19-1.78,2.21-4.51,0-4.51.1-4.51-5.29,0-5,0-9.91,0-14.87,0-3.23-.86-4.22-3.55-4.31-5.23-.18-5.8.47-5.8,6.63,0,5.25,0,10.5,0,15.75,0,1.54-.41,2-1.71,2.08-4.55.09-4.55.14-4.55-5.26,0-5,0-9.9,0-14.86.05-7.24,2-9.89,8.11-10.47,3.28-.31,6.57-.25,9.67,1.41a2.59,2.59,0,0,0,2.5-.15,16,16,0,0,1,11.86-.6c3.38,1,5,3.69,5.09,7.93.07,3.25,0,6.51,0,9.76Z"/><path class="cls-3" d="M215.6,94.44a21.9,21.9,0,0,1,3.34,0c1.36.21,1.64-.38,1.37-1.84a3.61,3.61,0,0,0-2.95-3.19c-3.83-1-7.5,0-11.15,1.3-2.29.84-2.36.78-2.21-1.95.23-4.33.22-4.36,3.82-5.21s7.25-1.3,10.88-.33c4.24,1.14,7.05,4.14,7.82,9.45a49.26,49.26,0,0,1,.15,12.37c-.53,5-2.64,7.63-6.66,8.61a22,22,0,0,1-12.69-.31c-4-1.39-5.65-4.59-5.51-10.23.11-4.18,2-6.76,5.86-7.92A22.87,22.87,0,0,1,215.6,94.44Z"/><path class="cls-3" d="M246.18,114.29a21.76,21.76,0,0,1-4.62-.3c-4.64-1-7.33-4.34-8.17-9.78a32.83,32.83,0,0,1,.05-10.79c1.1-6.06,3.6-8.86,8.73-9.86a20.74,20.74,0,0,1,9.4.27c4.75,1.26,7.41,5.15,7.9,11.6a37.14,37.14,0,0,1-.21,8.16c-.94,6.53-4.22,10.2-9.74,10.68C248.41,114.37,247.29,114.29,246.18,114.29Z"/><path class="cls-3" d="M157.45,83.73c2.29-.83,3.94.69,5.26,3.44.94,2,2.32,3.65,3.39,5.55.65,1.15,1,.91,1.6,0,1.62-2.62,3.31-5.17,4.91-7.8a2.05,2.05,0,0,1,2-1.2c1.55.06,3.1,0,4.65,0,.47,0,1.08-.27,1.34.4s-.3,1-.6,1.49c-2.6,3.86-5.16,7.76-7.84,11.53-.84,1.17-.72,1.81.05,2.94C174.89,104,177.43,108,180,112c.28.44.85.86.63,1.49-.28.79-1,.44-1.5.45-5.76.12-5.76.11-9.66-6.35-2.35-3.88-2.35-3.88-4.74-.06a8.86,8.86,0,0,0-.79,1.23c-1.91,4.82-5.25,5.94-9.32,5.18-.46-.08-1.09.29-1.34-.4s.3-1.07.59-1.51c2.6-3.86,5.16-7.76,7.84-11.54a2.36,2.36,0,0,0,0-3.22c-2.61-3.76-5.15-7.58-7.71-11.39-.33-.5-1-1-.75-1.65.31-.85,1.1-.41,1.68-.46S156.31,83.73,157.45,83.73Z"/><path class="cls-3" d="M318.7,98.89c0,4.29-.05,8.58,0,12.86,0,1.58-.29,2.21-1.73,2.21-4.55,0-4.55.09-4.55-5.31,0-7.47.05-14.93,0-22.39,0-1.87.33-2.62,2.05-2.58,4.23.08,4.23,0,4.23,5Z"/><path class="cls-3" d="M194.16,99c0,4.21-.06,8.43,0,12.64,0,1.67-.3,2.34-1.85,2.32-4.29-.07-4.29,0-4.29-5.14,0-7.62,0-15.23,0-22.85,0-1.68.32-2.31,1.85-2.29,4.28.06,4.29,0,4.29,5.12Z"/><path class="cls-3" d="M75.39,98.51q0-6.65,0-13.31c0-1,.06-1.93,1.25-1.89,6.74.21,13.51-.47,20.24.41,4.47.58,6.27,2.6,6.95,7.88.77,6,.31,12.11.34,18.17,0,4.58.68,4-3.47,4.07-2.72,0-2.69,0-2.72-3.2,0-5.25.17-10.51-.17-15.75-.2-3-1.34-4.59-3.9-4.94-3.7-.5-7.43-.12-11.14-.21-1.29,0-1.07,1.14-1.07,2.06,0,6.43-.07,12.87,0,19.3,0,2.05-.34,2.87-2.22,2.79-4.1-.17-4.11,0-4.11-5C75.38,105.47,75.39,102,75.39,98.51Z"/><path class="cls-3" d="M115.34,98.58c0,4.43,0,8.87,0,13.3,0,1.55-.46,2-1.74,2-4.59,0-4.59.07-4.59-5.42,0-7.62,0-15.23,0-22.84,0-1.85.49-2.38,2-2.35,4.33.08,4.33,0,4.32,5.11v10.2Z"/><path class="cls-3" d="M86.52,104.38c0-2.51.06-5,0-7.53,0-1.38.43-1.73,1.52-1.77,5.07-.18,5-.21,5,5.73,0,3.62,0,7.23.1,10.85,0,1.57-.32,2.22-1.75,2.23-4.89,0-4.89.09-4.89-5.74v-3.77Z"/><path class="cls-1" d="M220.47,102.76c-.13,4-1.11,5.16-4.26,5.43a22.35,22.35,0,0,1-5.17,0,3.72,3.72,0,0,1-3.51-4c-.05-2.1.95-3.22,3.24-3.66a28.16,28.16,0,0,1,7.94-.17C220.31,100.52,220.81,101.21,220.47,102.76Z"/><path class="cls-1" d="M239.12,98.8c-.22-9.07,3.24-10.1,9.72-9.22,2.89.4,4.07,2.28,4.47,5.81a33.86,33.86,0,0,1-.09,7.73,5.29,5.29,0,0,1-3.39,4.77,10.52,10.52,0,0,1-7.15,0c-1.66-.54-2.7-2-3.17-4A21.44,21.44,0,0,1,239.12,98.8Z"/></g></g></svg>